<?xml version="1.0" encoding="UTF-8" standalone="no"?>
<!-- Created with Inkscape (http://www.inkscape.org/) -->

<svg
   width="75.000008mm"
   height="20.999994mm"
   viewBox="0 0 75.000008 20.999994"
   version="1.1"
   id="svg1"
   inkscape:version="1.3 (0e150ed6c4, 2023-07-21)"
   sodipodi:docname="logos.svg"
   xmlns:inkscape="http://www.inkscape.org/namespaces/inkscape"
   xmlns:sodipodi="http://sodipodi.sourceforge.net/DTD/sodipodi-0.dtd"
   xmlns="http://www.w3.org/2000/svg"
   xmlns:svg="http://www.w3.org/2000/svg">
  <sodipodi:namedview
     id="namedview1"
     pagecolor="#ffffff"
     bordercolor="#000000"
     borderopacity="0.25"
     inkscape:showpageshadow="2"
     inkscape:pageopacity="0.0"
     inkscape:pagecheckerboard="0"
     inkscape:deskcolor="#d1d1d1"
     inkscape:document-units="mm"
     inkscape:zoom="1"
     inkscape:cx="295.49999"
     inkscape:cy="611.49998"
     inkscape:window-width="1920"
     inkscape:window-height="1017"
     inkscape:window-x="-8"
     inkscape:window-y="296"
     inkscape:window-maximized="1"
     inkscape:current-layer="g16" />
  <defs
     id="defs1">
    <inkscape:path-effect
       effect="bspline"
       id="path-effect27"
       is_visible="true"
       lpeversion="1.3"
       weight="33.333333"
       steps="2"
       helper_size="0"
       apply_no_weight="true"
       apply_with_weight="true"
       only_selected="false"
       uniform="false" />
  </defs>
  <g
     inkscape:label="Layer 1"
     inkscape:groupmode="layer"
     id="layer1"
     transform="translate(-113.27806,-209.90501)">
    <rect
       style="fill:none;fill-opacity:1;stroke:none;stroke-width:2.16411;stroke-dasharray:none;stroke-opacity:1"
       id="rect16"
       width="75"
       height="21"
       x="113.27807"
       y="209.90501"
       ry="2.4052448"
       inkscape:export-filename="dark.svg"
       inkscape:export-xdpi="96"
       inkscape:export-ydpi="96" />
    <g
       id="g24"
       transform="translate(-3.4995345,-31.880946)">
      <path
         style="fill:#cccccc;fill-opacity:1;stroke:none;stroke-width:0.499999"
         d="m 37.028554,291.32939 c -0.742856,0.46158 -1.485694,0.92315 -1.49197,0.43566 -0.0063,-0.4875 0.72401,-1.92401 1.454312,-3.36055"
         id="path18"
         inkscape:path-effect="#path-effect27"
         inkscape:original-d="m 37.028554,291.32939 c -0.742856,0.46158 -1.485694,0.92315 -2.228567,1.38474 0.73032,-1.43658 1.460606,-2.87309 2.190909,-4.30963"
         sodipodi:nodetypes="ccc"
         transform="translate(94.770751,-30.810589)" />
      <text
         xml:space="preserve"
         style="font-style:normal;font-variant:normal;font-weight:normal;font-stretch:normal;font-size:8.46667px;line-height:0.8;font-family:codicon;-inkscape-font-specification:'codicon, Normal';font-variant-ligatures:normal;font-variant-caps:normal;font-variant-numeric:normal;font-variant-east-asian:normal;fill:#cccccc;fill-opacity:1;stroke:#cccccc;stroke-width:0.499999"
         x="133.94769"
         y="256.74054"
         id="text19"><tspan
           sodipodi:role="line"
           id="tspan18"
           style="font-style:normal;font-variant:normal;font-weight:bold;font-stretch:normal;font-size:11.2889px;line-height:0.8;font-family:Arial;-inkscape-font-specification:Arial;fill:#cccccc;fill-opacity:1;stroke:none;stroke-width:0.5"
           x="133.94769"
           y="256.74054">BATMODS</tspan><tspan
           sodipodi:role="line"
           style="font-style:normal;font-variant:normal;font-weight:normal;font-stretch:normal;font-size:8.46667px;line-height:0.8;font-family:'Bauhaus 93';-inkscape-font-specification:'Bauhaus 93, Normal';font-variant-ligatures:normal;font-variant-caps:normal;font-variant-numeric:normal;font-variant-east-asian:normal;fill:#cccccc;fill-opacity:1;stroke:none;stroke-width:0.5"
           x="133.94769"
           y="265.76315"
           id="tspan19" /></text>
      <path
         id="path19"
         style="font-size:14.1111px;line-height:0.9;font-family:Arial;-inkscape-font-specification:Arial;fill:#4b8bbe;fill-opacity:1;stroke:none;stroke-width:0.729651"
         d="m 119.66053,247.92322 v 9.40511 h 2.52802 v -6.8833 h 0.26923 0.17002 0.34674 c 0.46394,0 0.69609,0.16324 0.69609,0.48937 0,0.3537 -0.25758,0.53072 -0.77205,0.53072 v 2.50786 h 0.53743 c 0.46854,0 0.7028,0.15158 0.7028,0.45475 0,0.17914 -0.0573,0.30529 -0.17208,0.37879 -0.11483,0.0689 -0.31253,0.10335 -0.59273,0.10335 h -0.47542 v 2.41846 h 0.53072 c 0.5604,0 1.00614,-0.0482 1.33687,-0.1447 0.33072,-0.0965 0.64078,-0.26607 0.93017,-0.50953 0.59256,-0.50987 0.88884,-1.19464 0.88884,-2.05362 0,-1.1208 -0.50299,-1.89939 -1.50896,-2.33577 0.69362,-0.52366 1.04025,-1.18035 1.04025,-1.97042 0,-1.59393 -1.01286,-2.39107 -3.03857,-2.39107 z m 8.40837,7.3862 h 1.23232 c 0.14922,0 0.26934,0.12013 0.26934,0.26934 v 0.85211 c 0,0.14922 -0.12012,0.26934 -0.26934,0.26934 h -1.23232 c -0.14921,0 -0.26934,-0.12012 -0.26934,-0.26934 v -0.85211 c 0,-0.14921 0.12013,-0.26934 0.26934,-0.26934 z m 0,-3.23854 h 1.23232 c 0.14922,0 0.26934,0.12013 0.26934,0.26934 v 0.85211 c 0,0.14922 -0.12012,0.26934 -0.26934,0.26934 h -1.23232 c -0.14921,0 -0.26934,-0.12012 -0.26934,-0.26934 v -0.85211 c 0,-0.14921 0.12013,-0.26934 0.26934,-0.26934 z m 0,-3.08908 h 1.23232 c 0.14922,0 0.26934,0.12012 0.26934,0.26934 v 0.85211 c 0,0.14921 -0.12012,0.26934 -0.26934,0.26934 h -1.23232 c -0.14921,0 -0.26934,-0.12013 -0.26934,-0.26934 v -0.85211 c 0,-0.14922 0.12013,-0.26934 0.26934,-0.26934 z m -6.35382,-5.11559 c -1.54333,0 -2.78588,1.24255 -2.78588,2.78588 v 12.73514 c 0,1.54332 1.24255,2.78587 2.78588,2.78587 h 6.65489 c 1.54333,0 2.78588,-1.24255 2.78588,-2.78587 v -12.73514 c 0,-1.54333 -1.24255,-2.78588 -2.78588,-2.78588 z m 0.41548,1.08934 h 5.82445 c 1.35971,0 2.45411,1.0944 2.45411,2.45411 v 11.21999 c 0,1.35971 -1.0944,2.45411 -2.45411,2.45411 h -5.82445 c -1.35971,0 -2.45463,-1.0944 -2.45463,-2.45411 v -11.21999 c 0,-1.35971 1.09492,-2.45411 2.45463,-2.45411 z m 0.5334,-2.55673 h 4.75736 c 0.0918,0 0.16567,0.0739 0.16567,0.16567 v 0.75736 c 0,0.0918 -0.0739,0.16567 -0.16567,0.16567 h -4.75736 c -0.0918,0 -0.16567,-0.0739 -0.16567,-0.16567 v -0.75736 c 0,-0.0918 0.0739,-0.16567 0.16567,-0.16567 z" />
      <path
         id="path22"
         style="fill:#cccccc;fill-opacity:1;stroke:none;stroke-width:0.284198"
         d="m 124.78242,257.59401 v 0.0727 l 1.03751,1.3897 -1.03751,1.38969 v 0.0727 h 7.01688 v -2.92489 z" />
    </g>
  </g>
</svg>
