<?xml version="1.0" encoding="UTF-8" standalone="no"?>
<!-- Created with Inkscape (http://www.inkscape.org/) -->

<svg
   width="77.662804mm"
   height="24.999992mm"
   viewBox="0 0 77.662804 24.999992"
   version="1.1"
   id="svg1"
   inkscape:version="1.3 (0e150ed6c4, 2023-07-21)"
   sodipodi:docname="logo_ideas.svg"
   xmlns:inkscape="http://www.inkscape.org/namespaces/inkscape"
   xmlns:sodipodi="http://sodipodi.sourceforge.net/DTD/sodipodi-0.dtd"
   xmlns="http://www.w3.org/2000/svg"
   xmlns:svg="http://www.w3.org/2000/svg">
  <sodipodi:namedview
     id="namedview1"
     pagecolor="#ffffff"
     bordercolor="#000000"
     borderopacity="0.25"
     inkscape:showpageshadow="2"
     inkscape:pageopacity="0.0"
     inkscape:pagecheckerboard="0"
     inkscape:deskcolor="#d1d1d1"
     inkscape:document-units="mm"
     inkscape:zoom="5.6568542"
     inkscape:cx="489.93662"
     inkscape:cy="632.06508"
     inkscape:window-width="1920"
     inkscape:window-height="1106"
     inkscape:window-x="-11"
     inkscape:window-y="-11"
     inkscape:window-maximized="1"
     inkscape:current-layer="layer1" />
  <defs
     id="defs1" />
  <g
     inkscape:label="Layer 1"
     inkscape:groupmode="layer"
     id="layer1"
     transform="translate(-111.16601,-152.7512)">
    <rect
       style="fill:none;fill-opacity:1;stroke:none;stroke-width:2.40275;stroke-dasharray:none;stroke-opacity:1"
       id="rect16"
       width="77.662811"
       height="25"
       x="111.16601"
       y="152.75121"
       ry="2.8633869"
       inkscape:export-filename="bm_dark_g.svg"
       inkscape:export-xdpi="200"
       inkscape:export-ydpi="200" />
    <g
       id="g2">
      <g
         id="g74"
         transform="translate(2.1028973,133.23195)">
        <text
           xml:space="preserve"
           style="font-size:11.2889px;line-height:0.9;font-family:Arial;-inkscape-font-specification:Arial;text-align:center;text-anchor:middle;fill:#cccccc;fill-opacity:1;stroke:none;stroke-width:2.80001;stroke-dasharray:none;stroke-opacity:1"
           x="151.69411"
           y="38.584015"
           id="text73"><tspan
             sodipodi:role="line"
             id="tspan73"
             style="font-size:11.2889px;fill:#cccccc;fill-opacity:1;stroke:none;stroke-width:2.8"
             x="151.69411"
             y="38.584015">BatMods</tspan></text>
        <text
           xml:space="preserve"
           style="font-size:5.64444px;line-height:0.9;font-family:Arial;-inkscape-font-specification:Arial;text-align:center;text-anchor:middle;fill:#cccccc;stroke:#4b8bbe;stroke-width:0.25"
           x="176.77994"
           y="30.437042"
           id="text74"><tspan
             sodipodi:role="line"
             id="tspan74"
             style="font-size:5.64444px;fill:#cccccc;stroke:none;stroke-width:0.25"
             x="176.77994"
             y="30.437042">lite</tspan></text>
        <rect
           style="fill:none;stroke:#cccccc;stroke-width:0.436518;stroke-dasharray:none;stroke-opacity:1"
           id="rect74"
           width="12.341819"
           height="5.8189516"
           x="170.67241"
           y="25.540438"
           ry="1.511305" />
      </g>
      <g
         id="g1">
        <rect
           style="fill:none;fill-opacity:1;stroke:#5e8346;stroke-width:0.389634;stroke-dasharray:none;stroke-dashoffset:1.3083;stroke-opacity:1"
           id="rect19"
           width="12.22659"
           height="18.306643"
           x="116.24381"
           y="156.8257"
           ry="2.7857933" />
        <rect
           style="fill:none;fill-opacity:1;stroke:#5e8346;stroke-width:0.342659;stroke-dasharray:none;stroke-dashoffset:1.3083;stroke-opacity:1"
           id="rect20"
           width="10.733181"
           height="16.128616"
           x="116.99052"
           y="157.91472"
           ry="2.4543548" />
        <rect
           style="fill:#5e8346;fill-opacity:1;stroke:#5e8346;stroke-width:0.0612995;stroke-dasharray:none;stroke-dashoffset:1.3083;stroke-opacity:1"
           id="rect21"
           width="5.0887003"
           height="1.0887004"
           x="119.81276"
           y="155.20592"
           ry="0.16567181" />
        <g
           id="g22"
           transform="translate(58.663052,64.547021)"
           style="fill:#5e8346;fill-opacity:1;stroke:#5e8346;stroke-opacity:1">
          <path
             style="fill:#5e8346;fill-opacity:1;stroke:#5e8346;stroke-width:0.24149;stroke-dasharray:none;stroke-dashoffset:1.3083;stroke-opacity:1"
             id="path21"
             sodipodi:type="arc"
             sodipodi:cx="-103.74736"
             sodipodi:cy="58.96558"
             sodipodi:rx="0.60990727"
             sodipodi:ry="0.60990727"
             sodipodi:start="0"
             sodipodi:end="3.1415927"
             sodipodi:arc-type="slice"
             d="m -103.13745,58.96558 a 0.60990727,0.60990727 0 0 1 -0.30496,0.528195 0.60990727,0.60990727 0 0 1 -0.6099,0 0.60990727,0.60990727 0 0 1 -0.30496,-0.528195 h 0.60991 z"
             transform="rotate(-90)" />
          <path
             style="fill:#5e8346;fill-opacity:1;stroke:#5e8346;stroke-width:0.24149;stroke-dasharray:none;stroke-dashoffset:1.3083;stroke-opacity:1"
             id="path22"
             sodipodi:type="arc"
             sodipodi:cx="-105.5501"
             sodipodi:cy="58.96558"
             sodipodi:rx="0.60990727"
             sodipodi:ry="0.60990727"
             sodipodi:start="0"
             sodipodi:end="3.1415927"
             sodipodi:arc-type="slice"
             d="m -104.94019,58.96558 a 0.60990727,0.60990727 0 0 1 -0.30496,0.528195 0.60990727,0.60990727 0 0 1 -0.60991,0 0.60990727,0.60990727 0 0 1 -0.30495,-0.528195 h 0.60991 z"
             transform="rotate(-90)" />
        </g>
        <g
           id="g24"
           transform="translate(58.624197,64.673371)"
           style="fill:#5e8346;fill-opacity:1;stroke:#5e8346;stroke-opacity:1">
          <rect
             style="fill:#5e8346;fill-opacity:1;stroke:#5e8346;stroke-width:0.371983;stroke-dasharray:none;stroke-dashoffset:1.3083;stroke-opacity:1"
             id="rect22"
             width="1.3575134"
             height="1.0660737"
             x="67.077507"
             y="100.65217"
             ry="0.20645493"
             rx="0" />
          <rect
             style="fill:#5e8346;fill-opacity:1;stroke:#5e8346;stroke-width:0.371983;stroke-dasharray:none;stroke-dashoffset:1.3083;stroke-opacity:1"
             id="rect23"
             width="1.3575134"
             height="1.0660737"
             x="67.077507"
             y="98.197998"
             ry="0.20645493"
             rx="0" />
          <rect
             style="fill:#5e8346;fill-opacity:1;stroke:#5e8346;stroke-width:0.371983;stroke-dasharray:none;stroke-dashoffset:1.3083;stroke-opacity:1"
             id="rect24"
             width="1.3575134"
             height="1.0660737"
             x="67.077507"
             y="95.74382"
             ry="0.20645493"
             rx="0" />
        </g>
        <g
           id="g27"
           transform="translate(58.624197,64.547021)"
           style="fill:#5e8346;fill-opacity:1;stroke:#5e8346;stroke-opacity:1">
          <rect
             style="fill:#5e8346;fill-opacity:1;stroke:#5e8346;stroke-width:0.981743;stroke-dasharray:none;stroke-dashoffset:1.3083;stroke-opacity:1"
             id="rect26"
             width="2.6442811"
             height="5.7927985"
             x="-64.147476"
             y="-109.95126"
             ry="1.3719785"
             transform="scale(-1)" />
          <rect
             style="fill:#5e8346;fill-opacity:1;stroke:#5e8346;stroke-width:0.981743;stroke-dasharray:none;stroke-dashoffset:1.3083;stroke-opacity:1"
             id="rect27"
             width="2.6442811"
             height="5.7927985"
             x="-67.460869"
             y="-109.95126"
             ry="1.3719785"
             transform="scale(-1)" />
        </g>
        <g
           id="g29"
           transform="rotate(90,63.784371,162.70676)"
           style="fill:#5e8346;fill-opacity:1;stroke:#5e8346;stroke-opacity:1">
          <rect
             style="fill:#5e8346;fill-opacity:1;stroke:#5e8346;stroke-width:0.981743;stroke-dasharray:none;stroke-dashoffset:1.3083;stroke-opacity:1"
             id="rect28"
             width="2.6442811"
             height="5.7927985"
             x="-64.147476"
             y="-109.95126"
             ry="1.3719785"
             transform="scale(-1)" />
          <rect
             style="fill:#5e8346;fill-opacity:1;stroke:#5e8346;stroke-width:0.981743;stroke-dasharray:none;stroke-dashoffset:1.3083;stroke-opacity:1"
             id="rect29"
             width="2.6442811"
             height="5.7927985"
             x="-67.460869"
             y="-109.95126"
             ry="1.3719785"
             transform="scale(-1)" />
        </g>
        <path
           style="fill:#5e8346;fill-opacity:1;stroke:#5e8346;stroke-width:0.0854538"
           d="m 118.58171,174.97207 c -0.79222,-0.14676 -1.55427,-0.801 -1.89273,-1.5553 -0.23144,-0.51579 -0.38569,-0.62922 -0.30924,-4.02267 l 0.0712,-3.15786 0.18088,0.1714 0.18088,0.1714 v 2.69434 c 0,2.96036 -0.001,2.94641 0.2797,3.52728 0.0968,0.20013 0.25156,0.40379 0.48513,0.63822 0.5388,0.54078 1.03335,0.74979 1.88049,0.79475 l 0.56524,-0.064 0.26371,0.29473 c 0.13021,0.14553 0.33667,0.28536 0.44654,0.32632 l 0.68032,0.23919 -1.57144,0.01 c -0.55958,0.003 -0.91585,-0.004 -1.04481,-0.0276 z"
           id="path1"
           sodipodi:nodetypes="ssscccsssscsscsss" />
        <path
           style="fill:#5e8346;fill-opacity:1;stroke:#5e8346;stroke-width:0.0151062"
           d="m 121.98947,174.81988 c 0.21064,-0.0704 0.34681,-0.18953 0.52173,-0.32751 0.0881,-0.0695 0.21323,-0.16381 0.29482,-0.2385 l 0.087,-0.0796 0.21377,-0.0139 0.18551,-0.005 0.11579,0.0935 c 0.0887,0.0717 0.22542,0.22848 0.32707,0.30432 0.16475,0.12292 0.34437,0.17138 0.50302,0.29524 l 0.17672,0.13797 -1.32507,0.0396 -1.28267,-0.0311 z"
           id="path2"
           sodipodi:nodetypes="csscccssscccc" />
        <path
           style="fill:#5e8346;fill-opacity:1;stroke:#5e8346;stroke-width:0.0151062"
           d="m 125.25505,174.86458 c 0.12944,-0.064 0.26318,-0.1285 0.39369,-0.20688 0.26913,-0.16162 0.52818,-0.41595 0.65452,-0.67729 0.0177,-0.0366 0.0696,-0.047 0.16864,-0.0982 0.52955,-0.27366 0.92733,-0.70695 1.16356,-1.24858 0.11123,-0.25505 0.19204,-0.51407 0.21934,-0.78994 0.005,-0.0527 -0.01,-0.54718 -0.004,-1.36093 l 0.01,-1.3301 0.22204,0.008 0.266,0.014 -0.007,1.72064 c -0.007,1.8553 -0.0394,1.72376 -0.0899,1.97606 -0.18382,0.9192 -0.89153,1.72639 -1.79043,1.99871 -0.29428,0.0892 -0.55383,0.24076 -0.98922,0.12927 l -0.33574,-0.0765 z"
           id="path3"
           sodipodi:nodetypes="ssssssscccscsscs" />
        <path
           style="fill:#5e8346;fill-opacity:1;stroke:#5e8346;stroke-width:0.0151062"
           d="m 127.859,165.68338 -0.014,-3.53922 0.23981,-0.008 0.24581,0.028 -0.022,3.51923 0.03,3.5512 -0.24581,0.034 -0.26579,-0.038 z"
           id="path4"
           sodipodi:nodetypes="ccccccccc" />
        <path
           style="fill:#5e8346;fill-opacity:1;stroke:#5e8346;stroke-width:0.0151062"
           d="m 127.87099,161.17777 c 0.0116,-1.00592 -0.001,-1.05719 -0.0327,-1.24659 -0.0749,-0.45157 -0.24222,-0.83669 -0.53819,-1.21032 -0.0809,-0.10209 -0.28016,-0.28476 -0.38832,-0.37108 -0.32729,-0.26123 -0.71118,-0.45317 -1.10709,-0.53334 -0.25962,-0.0526 0.0505,-0.052 -3.37338,-0.055 -2.22467,-0.002 -3.12694,0.0158 -3.20148,0.0222 -1.01283,0.0864 -1.87642,0.71121 -2.21208,1.66821 -0.0805,0.22964 -0.0946,0.48968 -0.1186,0.73798 l -0.0128,0.13204 -0.0973,0.0408 c -0.12203,0.0512 -0.23019,0.18283 -0.3789,0.34463 -0.004,0.005 0.004,-0.33029 0.006,-0.69745 0.004,-0.65686 -0.007,-0.67971 0.0413,-0.91697 0.1992,-0.98616 0.88439,-1.85861 1.86433,-2.08939 0.0957,-0.0225 0.31655,-0.029 0.41988,-0.12676 0.12969,-0.12264 6.88526,0.11646 7.0927,0.12921 0.24293,0.0149 0.46129,0.0465 0.67747,0.1179 0.40071,0.13228 0.73901,0.33811 1.03919,0.63936 0.4032,0.40464 0.64281,0.91698 0.73272,1.51326 0.0127,0.084 0.028,0.21258 0.009,1.48883 l 0.0406,1.45686 -0.25406,-0.004 h -0.22008 z"
           id="path5"
           sodipodi:nodetypes="scsssccsscssssssssssscccs" />
        <path
           style="fill:#5e8346;fill-opacity:1;stroke:#5e8346;stroke-width:0.0151062"
           d="m 116.38003,163.41331 0.032,-0.58589 0.16818,0.01 c 0.10207,0.006 0.12998,0.16143 0.19882,0.25046 l 0.0647,0.0836 0.036,0.23884 -10e-6,0.18289 -0.0839,0.0932 c -0.0738,0.082 -0.24049,0.4396 -0.29204,0.35166 l -0.13762,-0.0946 z"
           id="path6"
           sodipodi:nodetypes="ccsscccsscc" />
      </g>
    </g>
  </g>
</svg>
