<?xml version="1.0" encoding="UTF-8" standalone="no"?>
<!-- Created with Inkscape (http://www.inkscape.org/) -->

<svg
   width="75.000008mm"
   height="24.999992mm"
   viewBox="0 0 75.000008 24.999992"
   version="1.1"
   id="svg1"
   inkscape:version="1.3 (0e150ed6c4, 2023-07-21)"
   sodipodi:docname="dark.svg"
   inkscape:export-filename="dark.svg"
   inkscape:export-xdpi="250"
   inkscape:export-ydpi="250"
   xmlns:inkscape="http://www.inkscape.org/namespaces/inkscape"
   xmlns:sodipodi="http://sodipodi.sourceforge.net/DTD/sodipodi-0.dtd"
   xmlns="http://www.w3.org/2000/svg"
   xmlns:svg="http://www.w3.org/2000/svg">
  <sodipodi:namedview
     id="namedview1"
     pagecolor="#ffffff"
     bordercolor="#000000"
     borderopacity="0.25"
     inkscape:showpageshadow="2"
     inkscape:pageopacity="0.0"
     inkscape:pagecheckerboard="0"
     inkscape:deskcolor="#d1d1d1"
     inkscape:document-units="mm"
     inkscape:zoom="2.8284272"
     inkscape:cx="201.52543"
     inkscape:cy="33.764348"
     inkscape:window-width="960"
     inkscape:window-height="1017"
     inkscape:window-x="-8"
     inkscape:window-y="296"
     inkscape:window-maximized="0"
     inkscape:current-layer="g5" />
  <defs
     id="defs1">
    <inkscape:path-effect
       effect="bspline"
       id="path-effect138"
       is_visible="true"
       lpeversion="1.3"
       weight="33.333333"
       steps="2"
       helper_size="0"
       apply_no_weight="true"
       apply_with_weight="true"
       only_selected="false"
       uniform="false" />
  </defs>
  <g
     inkscape:label="Layer 1"
     inkscape:groupmode="layer"
     id="layer1"
     transform="translate(-113.27806,-141.34968)">
    <rect
       style="fill:none;fill-opacity:1;stroke:none;stroke-width:2.36123;stroke-dasharray:none;stroke-opacity:1"
       id="rect160"
       width="75"
       height="25"
       x="113.27807"
       y="141.34969"
       ry="2.8633869"
       inkscape:export-filename="dark.svg"
       inkscape:export-xdpi="96"
       inkscape:export-ydpi="96" />
    <g
       id="g5"
       transform="translate(-3.4995337,-98.436279)">
      <path
         style="fill:#cccccc;fill-opacity:1;stroke:none;stroke-width:0.499999"
         d="m 37.028554,291.32939 c -0.742856,0.46158 -1.485694,0.92315 -1.49197,0.43566 -0.0063,-0.4875 0.72401,-1.92401 1.454312,-3.36055"
         id="path78"
         inkscape:path-effect="#path-effect138"
         inkscape:original-d="m 37.028554,291.32939 c -0.742856,0.46158 -1.485694,0.92315 -2.228567,1.38474 0.73032,-1.43658 1.460606,-2.87309 2.190909,-4.30963"
         sodipodi:nodetypes="ccc"
         transform="translate(94.770751,-30.810589)" />
      <text
         xml:space="preserve"
         style="font-style:normal;font-variant:normal;font-weight:normal;font-stretch:normal;font-size:8.46667px;line-height:0.8;font-family:codicon;-inkscape-font-specification:'codicon, Normal';font-variant-ligatures:normal;font-variant-caps:normal;font-variant-numeric:normal;font-variant-east-asian:normal;fill:#cccccc;fill-opacity:1;stroke:#cccccc;stroke-width:0.499999"
         x="133.94769"
         y="256.74054"
         id="text79"><tspan
           sodipodi:role="line"
           id="tspan78"
           style="font-style:normal;font-variant:normal;font-weight:bold;font-stretch:normal;font-size:11.2889px;line-height:0.8;font-family:Arial;-inkscape-font-specification:Arial;fill:#cccccc;fill-opacity:1;stroke:none;stroke-width:0.5"
           x="133.94769"
           y="256.74054">BATMODS</tspan><tspan
           sodipodi:role="line"
           style="font-style:normal;font-variant:normal;font-weight:normal;font-stretch:normal;font-size:8.46667px;line-height:0.8;font-family:'Bauhaus 93';-inkscape-font-specification:'Bauhaus 93, Normal';font-variant-ligatures:normal;font-variant-caps:normal;font-variant-numeric:normal;font-variant-east-asian:normal;fill:#cccccc;fill-opacity:1;stroke:none;stroke-width:0.5"
           x="133.94769"
           y="265.76315"
           id="tspan79" /></text>
      <path
         id="path132"
         style="font-size:14.1111px;line-height:0.9;font-family:Arial;-inkscape-font-specification:Arial;fill:#4b8bbe;fill-opacity:1;stroke:none;stroke-width:0.729651"
         d="m 119.66053,247.92322 v 9.40511 h 2.52802 v -6.8833 h 0.26923 0.17002 0.34674 c 0.46394,0 0.69609,0.16324 0.69609,0.48937 0,0.3537 -0.25758,0.53072 -0.77205,0.53072 v 2.50786 h 0.53743 c 0.46854,0 0.7028,0.15158 0.7028,0.45475 0,0.17914 -0.0573,0.30529 -0.17208,0.37879 -0.11483,0.0689 -0.31253,0.10335 -0.59273,0.10335 h -0.47542 v 2.41846 h 0.53072 c 0.5604,0 1.00614,-0.0482 1.33687,-0.1447 0.33072,-0.0965 0.64078,-0.26607 0.93017,-0.50953 0.59256,-0.50987 0.88884,-1.19464 0.88884,-2.05362 0,-1.1208 -0.50299,-1.89939 -1.50896,-2.33577 0.69362,-0.52366 1.04025,-1.18035 1.04025,-1.97042 0,-1.59393 -1.01286,-2.39107 -3.03857,-2.39107 z m 8.40837,7.3862 h 1.23232 c 0.14922,0 0.26934,0.12013 0.26934,0.26934 v 0.85211 c 0,0.14922 -0.12012,0.26934 -0.26934,0.26934 h -1.23232 c -0.14921,0 -0.26934,-0.12012 -0.26934,-0.26934 v -0.85211 c 0,-0.14921 0.12013,-0.26934 0.26934,-0.26934 z m 0,-3.23854 h 1.23232 c 0.14922,0 0.26934,0.12013 0.26934,0.26934 v 0.85211 c 0,0.14922 -0.12012,0.26934 -0.26934,0.26934 h -1.23232 c -0.14921,0 -0.26934,-0.12012 -0.26934,-0.26934 v -0.85211 c 0,-0.14921 0.12013,-0.26934 0.26934,-0.26934 z m 0,-3.08908 h 1.23232 c 0.14922,0 0.26934,0.12012 0.26934,0.26934 v 0.85211 c 0,0.14921 -0.12012,0.26934 -0.26934,0.26934 h -1.23232 c -0.14921,0 -0.26934,-0.12013 -0.26934,-0.26934 v -0.85211 c 0,-0.14922 0.12013,-0.26934 0.26934,-0.26934 z m -6.35382,-5.11559 c -1.54333,0 -2.78588,1.24255 -2.78588,2.78588 v 12.73514 c 0,1.54332 1.24255,2.78587 2.78588,2.78587 h 6.65489 c 1.54333,0 2.78588,-1.24255 2.78588,-2.78587 v -12.73514 c 0,-1.54333 -1.24255,-2.78588 -2.78588,-2.78588 z m 0.41548,1.08934 h 5.82445 c 1.35971,0 2.45411,1.0944 2.45411,2.45411 v 11.21999 c 0,1.35971 -1.0944,2.45411 -2.45411,2.45411 h -5.82445 c -1.35971,0 -2.45463,-1.0944 -2.45463,-2.45411 v -11.21999 c 0,-1.35971 1.09492,-2.45411 2.45463,-2.45411 z m 0.5334,-2.55673 h 4.75736 c 0.0918,0 0.16567,0.0739 0.16567,0.16567 v 0.75736 c 0,0.0918 -0.0739,0.16567 -0.16567,0.16567 h -4.75736 c -0.0918,0 -0.16567,-0.0739 -0.16567,-0.16567 v -0.75736 c 0,-0.0918 0.0739,-0.16567 0.16567,-0.16567 z" />
      <path
         id="path133"
         style="fill:#cccccc;fill-opacity:1;stroke:none;stroke-width:0.284198"
         d="m 124.78242,257.59401 v 0.0727 l 1.03751,1.3897 -1.03751,1.38969 v 0.0727 h 7.01688 v -2.92489 z" />
      <path
         style="-inkscape-font-specification:'codicon, Normal';fill:#333333;stroke-width:0.5"
         d="m 127.0838,260.03613 h -0.25908 v -2.14422 h 0.25908 z m 0.79099,-1.79696 h -0.29214 v -0.26871 h 0.29214 z m -0.0165,1.79696 h -0.25907 v -1.53926 h 0.25907 z m 1.31189,-0.0138 q -0.073,0.0193 -0.15985,0.0317 -0.0854,0.0124 -0.15296,0.0124 -0.23564,0 -0.35829,-0.12678 -0.12265,-0.12678 -0.12265,-0.40652 v -0.81855 h -0.17501 v -0.21773 h 0.17501 v -0.44235 h 0.25908 v 0.44235 h 0.53467 v 0.21773 h -0.53467 v 0.70142 q 0,0.12126 0.006,0.19017 0.006,0.0675 0.0386,0.12677 0.0303,0.0551 0.0827,0.0813 0.0537,0.0248 0.1626,0.0248 0.0634,0 0.13229,-0.0179 0.0689,-0.0193 0.0992,-0.0317 h 0.0138 z m 1.60128,-0.72898 h -1.13412 q 0,0.14194 0.0427,0.24805 0.0427,0.10473 0.11713,0.17225 0.0717,0.0661 0.1695,0.0992 0.0992,0.0331 0.21773,0.0331 0.1571,0 0.31557,-0.062 0.15985,-0.0634 0.22738,-0.12402 h 0.0138 v 0.2825 q -0.13092,0.0551 -0.26734,0.0923 -0.13643,0.0372 -0.28663,0.0372 -0.3831,0 -0.59807,-0.2067 -0.21498,-0.20809 -0.21498,-0.5898 0,-0.37759 0.20533,-0.59945 0.20671,-0.22186 0.54295,-0.22186 0.31143,0 0.47955,0.1819 0.1695,0.1819 0.1695,0.51676 z m -0.25218,-0.19844 q -0.001,-0.20395 -0.10335,-0.31557 -0.1006,-0.11162 -0.3073,-0.11162 -0.20809,0 -0.33211,0.12265 -0.12264,0.12264 -0.13918,0.30454 z"
         id="text136"
         aria-label="lite" />
      <path
         style="-inkscape-font-specification:'codicon, Normal';fill:#4b8bbe;stroke-width:0.559931"
         d="m 131.24319,270.60059 q 0,0.32099 -0.14661,0.57562 -0.1466,0.25308 -0.37036,0.38888 -0.16821,0.10186 -0.36883,0.14198 -0.20062,0.0401 -0.47531,0.0401 h -0.81018 v -2.29783 h 0.83333 q 0.28086,0 0.48457,0.0478 0.2037,0.0463 0.34259,0.13271 0.23765,0.14506 0.37345,0.39198 0.13735,0.24537 0.13735,0.5787 z m -0.61265,-0.005 q 0,-0.22685 -0.0833,-0.38735 -0.0818,-0.16203 -0.2608,-0.25308 -0.091,-0.0448 -0.18673,-0.0602 -0.0941,-0.017 -0.28549,-0.017 h -0.14969 v 1.43827 h 0.14969 q 0.21142,0 0.31018,-0.0185 0.0988,-0.0201 0.1929,-0.071 0.16204,-0.0926 0.23766,-0.24691 0.0756,-0.15587 0.0756,-0.38426 z m 2.74073,0.38734 h -1.2716 q 0.0123,0.20371 0.15432,0.31173 0.14352,0.10803 0.4213,0.10803 0.17592,0 0.34105,-0.0633 0.16512,-0.0633 0.2608,-0.13581 h 0.0617 v 0.44599 q -0.18828,0.0756 -0.35494,0.10957 -0.16667,0.034 -0.36883,0.034 -0.5216,0 -0.79938,-0.23457 -0.27778,-0.23457 -0.27778,-0.66821 0,-0.42901 0.26235,-0.67901 0.26389,-0.25154 0.72222,-0.25154 0.42284,0 0.6358,0.2145 0.21296,0.21297 0.21296,0.6142 z m -0.55246,-0.32561 q -0.005,-0.17438 -0.0864,-0.26235 -0.0818,-0.088 -0.25463,-0.088 -0.1605,0 -0.26389,0.0833 -0.1034,0.0833 -0.11574,0.26698 z m 1.84722,1.1358 q -0.22686,0 -0.41513,-0.054 -0.18673,-0.054 -0.32561,-0.16667 -0.13735,-0.11265 -0.21297,-0.28395 -0.0756,-0.1713 -0.0756,-0.40123 0,-0.24229 0.0802,-0.41821 0.0818,-0.17593 0.22685,-0.29167 0.14044,-0.10957 0.32408,-0.16049 0.18364,-0.0509 0.38117,-0.0509 0.17747,0 0.32716,0.0386 0.14969,0.0386 0.27932,0.10031 v 0.47376 h -0.0787 q -0.0324,-0.0278 -0.0787,-0.0648 -0.0447,-0.037 -0.11111,-0.0725 -0.0633,-0.034 -0.13889,-0.0556 -0.0756,-0.0231 -0.17592,-0.0231 -0.22222,0 -0.34259,0.14198 -0.11883,0.14043 -0.11883,0.38272 0,0.25 0.12191,0.37962 0.12346,0.12963 0.34877,0.12963 0.10494,0 0.18827,-0.0231 0.0849,-0.0247 0.14043,-0.0571 0.0525,-0.0309 0.0926,-0.0648 0.0401,-0.034 0.0741,-0.0664 h 0.0787 v 0.47377 q -0.13117,0.0617 -0.27469,0.0972 -0.14198,0.037 -0.31481,0.037 z m 2.72839,-0.91204 q 0,0.42747 -0.25,0.67438 -0.24846,0.24537 -0.69908,0.24537 -0.45061,0 -0.70061,-0.24537 -0.24846,-0.24691 -0.24846,-0.67438 0,-0.43055 0.25,-0.67592 0.25154,-0.24537 0.69907,-0.24537 0.45371,0 0.70062,0.24691 0.24846,0.24691 0.24846,0.67438 z m -0.68364,0.4213 q 0.054,-0.0664 0.0802,-0.15895 0.0278,-0.0941 0.0278,-0.25926 0,-0.15278 -0.0278,-0.25617 -0.0278,-0.1034 -0.0772,-0.16513 -0.0494,-0.0633 -0.11882,-0.0895 -0.0695,-0.0262 -0.1497,-0.0262 -0.0802,0 -0.14351,0.0216 -0.0617,0.0216 -0.11883,0.0864 -0.0509,0.0602 -0.0818,0.16512 -0.0293,0.10494 -0.0293,0.26389 0,0.14197 0.0262,0.24691 0.0262,0.1034 0.0772,0.16667 0.0494,0.0602 0.11729,0.088 0.0694,0.0278 0.1574,0.0278 0.0756,0 0.14352,-0.0247 0.0694,-0.0262 0.11729,-0.0864 z m 2.76697,0.44444 h -0.55556 v -0.18055 q -0.14352,0.11728 -0.26852,0.17284 -0.125,0.0555 -0.28858,0.0555 -0.31635,0 -0.50617,-0.24383 -0.18981,-0.24382 -0.18981,-0.6574 0,-0.22068 0.0633,-0.39043 0.0648,-0.1713 0.17593,-0.29321 0.10493,-0.11574 0.25462,-0.17901 0.1497,-0.0648 0.29939,-0.0648 0.15586,0 0.25463,0.0339 0.1003,0.0324 0.20524,0.0833 v -0.73765 h 0.55556 z m -0.55556,-0.47839 v -0.85031 q -0.0586,-0.0247 -0.12345,-0.0355 -0.0648,-0.0108 -0.11883,-0.0108 -0.21914,0 -0.3287,0.13735 -0.10957,0.1358 -0.10957,0.37809 0,0.25462 0.088,0.37037 0.088,0.11419 0.28241,0.11419 0.0756,0 0.16049,-0.0278 0.0849,-0.0293 0.14969,-0.0756 z m 1.6358,0.47839 h -0.55555 v -1.73302 h 0.55555 z m 0.0154,-1.97993 h -0.58642 v -0.4213 h 0.58642 z m 2.24999,1.97993 h -0.55864 v -0.85956 q 0,-0.10494 -0.0108,-0.20834 -0.0108,-0.10494 -0.037,-0.15432 -0.0309,-0.0571 -0.091,-0.0833 -0.0586,-0.0262 -0.16512,-0.0262 -0.0756,0 -0.15432,0.0247 -0.0772,0.0247 -0.16821,0.0787 v 1.22839 h -0.55556 v -1.73302 h 0.55556 v 0.19136 q 0.14815,-0.11574 0.28395,-0.17747 0.13735,-0.0617 0.30401,-0.0617 0.28087,0 0.43827,0.16358 0.15895,0.16358 0.15895,0.4892 z m 2.19599,-0.19907 q 0,0.24383 -0.0694,0.41049 -0.0694,0.16667 -0.19444,0.2608 -0.125,0.0957 -0.30247,0.13735 -0.17593,0.0432 -0.39815,0.0432 -0.18055,0 -0.35648,-0.0216 -0.17438,-0.0216 -0.30247,-0.0525 v -0.43365 h 0.0679 q 0.10186,0.0401 0.24846,0.0725 0.14661,0.034 0.26235,0.034 0.15432,0 0.25,-0.0293 0.0972,-0.0278 0.14814,-0.0802 0.0478,-0.0494 0.0694,-0.12655 0.0216,-0.0772 0.0216,-0.18518 v -0.0324 q -0.10031,0.0818 -0.22222,0.12963 -0.12191,0.0478 -0.2716,0.0478 -0.3642,0 -0.56173,-0.21913 -0.19753,-0.21914 -0.19753,-0.66667 0,-0.21451 0.0602,-0.37037 0.0602,-0.15586 0.16976,-0.2716 0.10185,-0.10803 0.25,-0.16821 0.14969,-0.0602 0.30555,-0.0602 0.14043,0 0.25463,0.0339 0.11574,0.0324 0.20988,0.0911 l 0.0201,-0.0772 h 0.53858 z m -0.55556,-0.34722 v -0.7855 q -0.0478,-0.0201 -0.11728,-0.0309 -0.0695,-0.0124 -0.125,-0.0124 -0.21914,0 -0.3287,0.12655 -0.10957,0.125 -0.10957,0.35031 0,0.25 0.0926,0.34876 0.0941,0.0988 0.27778,0.0988 0.0833,0 0.16358,-0.0262 0.0803,-0.0262 0.1466,-0.0694 z m 3.96913,-0.34414 q 0,0.40895 -0.22685,0.66667 -0.22531,0.25771 -0.56327,0.25771 -0.14506,0 -0.25463,-0.0309 -0.10956,-0.0309 -0.20833,-0.0895 l -0.0232,0.0864 h -0.53241 v -2.40123 h 0.55556 v 0.84877 q 0.12809,-0.10186 0.2608,-0.16513 0.13426,-0.0633 0.30864,-0.0633 0.32871,0 0.50618,0.23765 0.17746,0.23612 0.17746,0.65278 z m -0.57253,0.0108 q 0,-0.23148 -0.0787,-0.35648 -0.0787,-0.125 -0.28086,-0.125 -0.0787,0 -0.16204,0.0247 -0.0833,0.0231 -0.15895,0.0679 v 0.87036 q 0.0602,0.0216 0.1142,0.0293 0.054,0.008 0.12963,0.008 0.22068,0 0.3287,-0.12963 0.10802,-0.12963 0.10802,-0.38889 z m 2.02315,0.42747 v -0.36111 q -0.11265,0.009 -0.24383,0.0262 -0.13117,0.0154 -0.19907,0.037 -0.0833,0.0262 -0.12809,0.0772 -0.0432,0.0494 -0.0432,0.13118 0,0.054 0.009,0.088 0.009,0.034 0.0463,0.0648 0.0355,0.0309 0.0849,0.0463 0.0494,0.0139 0.15433,0.0139 0.0833,0 0.16821,-0.034 0.0864,-0.034 0.15123,-0.0895 z m 0,0.26852 q -0.0447,0.034 -0.11111,0.0818 -0.0664,0.0478 -0.125,0.0756 -0.0818,0.037 -0.16975,0.054 -0.088,0.0185 -0.19291,0.0185 -0.24691,0 -0.41357,-0.15278 -0.16667,-0.15278 -0.16667,-0.39043 0,-0.18982 0.0849,-0.31019 0.0849,-0.12037 0.24074,-0.18981 0.15432,-0.0694 0.38271,-0.0988 0.2284,-0.0293 0.47377,-0.0432 v -0.009 q 0,-0.14352 -0.11729,-0.19754 -0.11728,-0.0555 -0.34568,-0.0555 -0.13734,0 -0.29321,0.0494 -0.15586,0.0478 -0.22376,0.0741 h -0.0509 v -0.41821 q 0.088,-0.0232 0.2855,-0.054 0.19907,-0.0324 0.39814,-0.0324 0.47377,0 0.68365,0.1466 0.21141,0.14506 0.21141,0.45679 v 1.17901 h -0.55092 z m 2.16975,0.16821 q -0.0895,0.0231 -0.18981,0.0355 -0.10031,0.0139 -0.24537,0.0139 -0.32408,0 -0.48303,-0.13117 -0.15741,-0.13117 -0.15741,-0.44907 v -0.81019 h -0.22839 v -0.37654 h 0.22839 v -0.49537 h 0.55556 v 0.49537 h 0.52006 v 0.37654 h -0.52006 v 0.6142 q 0,0.091 0.002,0.15895 0.002,0.0679 0.0247,0.12191 0.0216,0.054 0.0756,0.0864 0.0556,0.0309 0.16049,0.0309 0.0432,0 0.11266,-0.0185 0.071,-0.0185 0.0988,-0.034 h 0.0463 z m 1.43981,0 q -0.0895,0.0231 -0.18981,0.0355 -0.10031,0.0139 -0.24537,0.0139 -0.32407,0 -0.48302,-0.13117 -0.15741,-0.13117 -0.15741,-0.44907 v -0.81019 h -0.2284 v -0.37654 h 0.2284 v -0.49537 h 0.55555 v 0.49537 h 0.52006 v 0.37654 h -0.52006 v 0.6142 q 0,0.091 0.002,0.15895 0.002,0.0679 0.0247,0.12191 0.0216,0.054 0.0756,0.0864 0.0556,0.0309 0.1605,0.0309 0.0432,0 0.11265,-0.0185 0.071,-0.0185 0.0988,-0.034 h 0.0463 z m 2.03858,-0.74846 h -1.2716 q 0.0123,0.20371 0.15432,0.31173 0.14352,0.10803 0.42129,0.10803 0.17593,0 0.34105,-0.0633 0.16513,-0.0633 0.2608,-0.13581 h 0.0617 v 0.44599 q -0.18827,0.0756 -0.35493,0.10957 -0.16667,0.034 -0.36883,0.034 -0.52161,0 -0.79938,-0.23457 -0.27778,-0.23457 -0.27778,-0.66821 0,-0.42901 0.26234,-0.67901 0.26389,-0.25154 0.72223,-0.25154 0.42283,0 0.6358,0.2145 0.21296,0.21297 0.21296,0.6142 z m -0.55247,-0.32561 q -0.005,-0.17438 -0.0864,-0.26235 -0.0818,-0.088 -0.25463,-0.088 -0.16049,0 -0.26389,0.0833 -0.10339,0.0833 -0.11574,0.26698 z m 2.20062,-0.1142 h -0.0494 q -0.0355,-0.0124 -0.1142,-0.0185 -0.0787,-0.006 -0.13117,-0.006 -0.11883,0 -0.20988,0.0154 -0.091,0.0154 -0.19599,0.0525 v 1.16049 h -0.55555 v -1.73302 h 0.55555 v 0.25463 q 0.18364,-0.15741 0.31945,-0.20833 0.1358,-0.0525 0.25,-0.0525 0.0293,0 0.0663,0.002 0.037,0.002 0.0648,0.005 z m 1.09722,0.59105 0.39506,-1.12037 h 0.57099 l -0.96296,2.36882 h -0.60186 l 0.2747,-0.64814 -0.67439,-1.72068 h 0.58334 z m 4.04012,0.61265 h -0.55556 v -0.18055 q -0.14352,0.11728 -0.26852,0.17284 -0.125,0.0555 -0.28858,0.0555 -0.31635,0 -0.50617,-0.24383 -0.18981,-0.24382 -0.18981,-0.6574 0,-0.22068 0.0633,-0.39043 0.0648,-0.1713 0.17592,-0.29321 0.10494,-0.11574 0.25463,-0.17901 0.14969,-0.0648 0.29939,-0.0648 0.15586,0 0.25462,0.0339 0.10031,0.0324 0.20525,0.0833 v -0.73765 h 0.55556 z m -0.55556,-0.47839 v -0.85031 q -0.0586,-0.0247 -0.12346,-0.0355 -0.0648,-0.0108 -0.11882,-0.0108 -0.21914,0 -0.32871,0.13735 -0.10956,0.1358 -0.10956,0.37809 0,0.25462 0.088,0.37037 0.088,0.11419 0.28241,0.11419 0.0756,0 0.16049,-0.0278 0.0849,-0.0293 0.14969,-0.0756 z m 2.78703,-0.2855 h -1.2716 q 0.0123,0.20371 0.15432,0.31173 0.14352,0.10803 0.4213,0.10803 0.17592,0 0.34105,-0.0633 0.16512,-0.0633 0.2608,-0.13581 h 0.0617 v 0.44599 q -0.18827,0.0756 -0.35494,0.10957 -0.16667,0.034 -0.36883,0.034 -0.5216,0 -0.79938,-0.23457 -0.27778,-0.23457 -0.27778,-0.66821 0,-0.42901 0.26235,-0.67901 0.26389,-0.25154 0.72222,-0.25154 0.42284,0 0.6358,0.2145 0.21296,0.21297 0.21296,0.6142 z m -0.55246,-0.32561 q -0.005,-0.17438 -0.0864,-0.26235 -0.0818,-0.088 -0.25463,-0.088 -0.1605,0 -0.26389,0.0833 -0.1034,0.0833 -0.11574,0.26698 z m 2.62962,0.89043 q 0,0.24383 -0.0694,0.41049 -0.0694,0.16667 -0.19445,0.2608 -0.125,0.0957 -0.30247,0.13735 -0.17592,0.0432 -0.39814,0.0432 -0.18056,0 -0.35648,-0.0216 -0.17439,-0.0216 -0.30247,-0.0525 v -0.43365 h 0.0679 q 0.10185,0.0401 0.24845,0.0725 0.14661,0.034 0.26235,0.034 0.15432,0 0.25,-0.0293 0.0972,-0.0278 0.14815,-0.0802 0.0478,-0.0494 0.0694,-0.12655 0.0216,-0.0772 0.0216,-0.18518 v -0.0324 q -0.10031,0.0818 -0.22223,0.12963 -0.12191,0.0478 -0.2716,0.0478 -0.3642,0 -0.56173,-0.21913 -0.19753,-0.21914 -0.19753,-0.66667 0,-0.21451 0.0602,-0.37037 0.0602,-0.15586 0.16975,-0.2716 0.10185,-0.10803 0.25,-0.16821 0.14969,-0.0602 0.30555,-0.0602 0.14044,0 0.25463,0.0339 0.11574,0.0324 0.20988,0.0911 l 0.0201,-0.0772 h 0.53858 z m -0.55555,-0.34722 v -0.7855 q -0.0478,-0.0201 -0.11729,-0.0309 -0.0694,-0.0124 -0.125,-0.0124 -0.21913,0 -0.3287,0.12655 -0.10957,0.125 -0.10957,0.35031 0,0.25 0.0926,0.34876 0.0941,0.0988 0.27778,0.0988 0.0833,0 0.16358,-0.0262 0.0803,-0.0262 0.14661,-0.0694 z m 2.33642,-0.65741 h -0.0494 q -0.0355,-0.0124 -0.11419,-0.0185 -0.0787,-0.006 -0.13118,-0.006 -0.11882,0 -0.20987,0.0154 -0.091,0.0154 -0.19599,0.0525 v 1.16049 h -0.55555 v -1.73302 h 0.55555 v 0.25463 q 0.18364,-0.15741 0.31944,-0.20833 0.13581,-0.0525 0.25,-0.0525 0.0293,0 0.0664,0.002 0.037,0.002 0.0648,0.005 z m 1.36419,0.75154 v -0.36111 q -0.11265,0.009 -0.24383,0.0262 -0.13117,0.0154 -0.19907,0.037 -0.0833,0.0262 -0.12809,0.0772 -0.0432,0.0494 -0.0432,0.13118 0,0.054 0.009,0.088 0.009,0.034 0.0463,0.0648 0.0355,0.0309 0.0849,0.0463 0.0494,0.0139 0.15432,0.0139 0.0833,0 0.16821,-0.034 0.0864,-0.034 0.15123,-0.0895 z m 0,0.26852 q -0.0447,0.034 -0.11111,0.0818 -0.0664,0.0478 -0.125,0.0756 -0.0818,0.037 -0.16975,0.054 -0.088,0.0185 -0.1929,0.0185 -0.24692,0 -0.41358,-0.15278 -0.16667,-0.15278 -0.16667,-0.39043 0,-0.18982 0.0849,-0.31019 0.0849,-0.12037 0.24074,-0.18981 0.15432,-0.0694 0.38271,-0.0988 0.2284,-0.0293 0.47377,-0.0432 v -0.009 q 0,-0.14352 -0.11729,-0.19754 -0.11728,-0.0555 -0.34567,-0.0555 -0.13735,0 -0.29321,0.0494 -0.15587,0.0478 -0.22377,0.0741 h -0.0509 v -0.41821 q 0.088,-0.0232 0.2855,-0.054 0.19907,-0.0324 0.39815,-0.0324 0.47376,0 0.68364,0.1466 0.21142,0.14506 0.21142,0.45679 v 1.17901 h -0.55093 z m 2.74691,0.18364 h -0.55555 v -0.18055 q -0.14352,0.11728 -0.26852,0.17284 -0.125,0.0555 -0.28858,0.0555 -0.31636,0 -0.50617,-0.24383 -0.18982,-0.24382 -0.18982,-0.6574 0,-0.22068 0.0633,-0.39043 0.0648,-0.1713 0.17592,-0.29321 0.10494,-0.11574 0.25463,-0.17901 0.14969,-0.0648 0.29938,-0.0648 0.15587,0 0.25463,0.0339 0.10031,0.0324 0.20525,0.0833 v -0.73765 h 0.55555 z m -0.55555,-0.47839 v -0.85031 q -0.0586,-0.0247 -0.12346,-0.0355 -0.0648,-0.0108 -0.11883,-0.0108 -0.21913,0 -0.3287,0.13735 -0.10957,0.1358 -0.10957,0.37809 0,0.25462 0.088,0.37037 0.088,0.11419 0.2824,0.11419 0.0756,0 0.1605,-0.0278 0.0849,-0.0293 0.14969,-0.0756 z m 2.12962,0.0262 v -0.36111 q -0.11265,0.009 -0.24382,0.0262 -0.13117,0.0154 -0.19908,0.037 -0.0833,0.0262 -0.12808,0.0772 -0.0432,0.0494 -0.0432,0.13118 0,0.054 0.009,0.088 0.009,0.034 0.0463,0.0648 0.0355,0.0309 0.0849,0.0463 0.0494,0.0139 0.15432,0.0139 0.0833,0 0.16821,-0.034 0.0864,-0.034 0.15123,-0.0895 z m 0,0.26852 q -0.0448,0.034 -0.11111,0.0818 -0.0663,0.0478 -0.125,0.0756 -0.0818,0.037 -0.16975,0.054 -0.088,0.0185 -0.1929,0.0185 -0.24691,0 -0.41358,-0.15278 -0.16667,-0.15278 -0.16667,-0.39043 0,-0.18982 0.0849,-0.31019 0.0849,-0.12037 0.24074,-0.18981 0.15432,-0.0694 0.38272,-0.0988 0.22839,-0.0293 0.47376,-0.0432 v -0.009 q 0,-0.14352 -0.11728,-0.19754 -0.11729,-0.0555 -0.34568,-0.0555 -0.13735,0 -0.29321,0.0494 -0.15586,0.0478 -0.22377,0.0741 h -0.0509 v -0.41821 q 0.088,-0.0232 0.28549,-0.054 0.19908,-0.0324 0.39815,-0.0324 0.47376,0 0.68364,0.1466 0.21142,0.14506 0.21142,0.45679 v 1.17901 h -0.55093 z m 2.16975,0.16821 q -0.0895,0.0231 -0.18981,0.0355 -0.10031,0.0139 -0.24537,0.0139 -0.32407,0 -0.48303,-0.13117 -0.1574,-0.13117 -0.1574,-0.44907 v -0.81019 h -0.2284 v -0.37654 h 0.2284 v -0.49537 h 0.55555 v 0.49537 h 0.52006 v 0.37654 h -0.52006 v 0.6142 q 0,0.091 0.002,0.15895 0.002,0.0679 0.0247,0.12191 0.0216,0.054 0.0756,0.0864 0.0556,0.0309 0.1605,0.0309 0.0432,0 0.11265,-0.0185 0.071,-0.0185 0.0988,-0.034 h 0.0463 z m 0.88735,0.0154 h -0.55555 v -1.73302 h 0.55555 z m 0.0154,-1.97993 h -0.58642 v -0.4213 h 0.58642 z m 2.28086,1.11419 q 0,0.42747 -0.25,0.67438 -0.24846,0.24537 -0.69907,0.24537 -0.45062,0 -0.70062,-0.24537 -0.24846,-0.24691 -0.24846,-0.67438 0,-0.43055 0.25,-0.67592 0.25155,-0.24537 0.69908,-0.24537 0.4537,0 0.70061,0.24691 0.24846,0.24691 0.24846,0.67438 z m -0.68364,0.4213 q 0.054,-0.0664 0.0803,-0.15895 0.0278,-0.0941 0.0278,-0.25926 0,-0.15278 -0.0278,-0.25617 -0.0278,-0.1034 -0.0772,-0.16513 -0.0494,-0.0633 -0.11883,-0.0895 -0.0694,-0.0262 -0.14969,-0.0262 -0.0803,0 -0.14352,0.0216 -0.0617,0.0216 -0.11883,0.0864 -0.0509,0.0602 -0.0818,0.16512 -0.0293,0.10494 -0.0293,0.26389 0,0.14197 0.0262,0.24691 0.0262,0.1034 0.0772,0.16667 0.0494,0.0602 0.11728,0.088 0.0694,0.0278 0.15741,0.0278 0.0756,0 0.14352,-0.0247 0.0694,-0.0262 0.11728,-0.0864 z m 2.82253,0.44444 h -0.55864 v -0.85956 q 0,-0.10494 -0.0108,-0.20834 -0.0108,-0.10494 -0.037,-0.15432 -0.0309,-0.0571 -0.091,-0.0833 -0.0586,-0.0262 -0.16512,-0.0262 -0.0756,0 -0.15432,0.0247 -0.0772,0.0247 -0.16821,0.0787 v 1.22839 h -0.55556 v -1.73302 h 0.55556 v 0.19136 q 0.14814,-0.11574 0.28395,-0.17747 0.13734,-0.0617 0.30401,-0.0617 0.28086,0 0.43827,0.16358 0.15895,0.16358 0.15895,0.4892 z"
         id="text4"
         transform="scale(1.0442866,0.95759148)"
         aria-label="Decoding battery degradation" />
    </g>
  </g>
</svg>
