<?xml version="1.0" encoding="UTF-8" standalone="no"?>
<!-- Created with Inkscape (http://www.inkscape.org/) -->

<svg
   width="77.662811mm"
   height="24.999992mm"
   viewBox="0 0 77.662811 24.999992"
   version="1.1"
   id="svg1"
   inkscape:version="1.3 (0e150ed6c4, 2023-07-21)"
   sodipodi:docname="logo_ideas.svg"
   xmlns:inkscape="http://www.inkscape.org/namespaces/inkscape"
   xmlns:sodipodi="http://sodipodi.sourceforge.net/DTD/sodipodi-0.dtd"
   xmlns="http://www.w3.org/2000/svg"
   xmlns:svg="http://www.w3.org/2000/svg">
  <sodipodi:namedview
     id="namedview1"
     pagecolor="#ffffff"
     bordercolor="#000000"
     borderopacity="0.25"
     inkscape:showpageshadow="2"
     inkscape:pageopacity="0.0"
     inkscape:pagecheckerboard="0"
     inkscape:deskcolor="#d1d1d1"
     inkscape:document-units="mm"
     inkscape:zoom="1.4142136"
     inkscape:cx="300.16682"
     inkscape:cy="911.81417"
     inkscape:window-width="1920"
     inkscape:window-height="1017"
     inkscape:window-x="-8"
     inkscape:window-y="296"
     inkscape:window-maximized="1"
     inkscape:current-layer="layer1" />
  <defs
     id="defs1" />
  <g
     inkscape:label="Layer 1"
     inkscape:groupmode="layer"
     id="layer1"
     transform="translate(-19.770955,-193.99516)">
    <rect
       style="fill:none;fill-opacity:1;stroke:none;stroke-width:2.40275;stroke-dasharray:none;stroke-opacity:1"
       id="rect125"
       width="77.662811"
       height="25"
       x="19.770954"
       y="193.99516"
       ry="2.8633869" />
    <g
       id="g31">
      <rect
         style="fill:#0079c2;fill-opacity:1;stroke:none;stroke-width:0.811325;stroke-opacity:1"
         id="rect115"
         width="10.82992"
         height="16.561909"
         x="24.856817"
         y="198.94202"
         ry="1.9839108" />
      <rect
         style="fill:#333333;fill-opacity:0.996633;stroke:#333333;stroke-width:0.0612995;stroke-dasharray:none;stroke-dashoffset:1.3083;stroke-opacity:1"
         id="rect116"
         width="5.0887003"
         height="1.0887004"
         x="27.727541"
         y="196.44986"
         ry="0.16567181" />
      <g
         id="g117"
         transform="matrix(1.1746401,0,0,1.1746401,-43.186199,88.114317)"
         style="fill:#333333;stroke:#333333">
        <path
           style="fill:#333333;fill-opacity:1;stroke:#333333;stroke-width:0.24149;stroke-dasharray:none;stroke-dashoffset:1.3083;stroke-opacity:1"
           id="path116"
           sodipodi:type="arc"
           sodipodi:cx="-103.74736"
           sodipodi:cy="58.96558"
           sodipodi:rx="0.60990727"
           sodipodi:ry="0.60990727"
           sodipodi:start="0"
           sodipodi:end="3.1415927"
           sodipodi:arc-type="slice"
           d="m -103.13745,58.96558 a 0.60990727,0.60990727 0 0 1 -0.30496,0.528195 0.60990727,0.60990727 0 0 1 -0.6099,0 0.60990727,0.60990727 0 0 1 -0.30496,-0.528195 h 0.60991 z"
           transform="rotate(-90)" />
        <path
           style="fill:#333333;fill-opacity:1;stroke:#333333;stroke-width:0.24149;stroke-dasharray:none;stroke-dashoffset:1.3083;stroke-opacity:1"
           id="path117"
           sodipodi:type="arc"
           sodipodi:cx="-105.5501"
           sodipodi:cy="58.96558"
           sodipodi:rx="0.60990727"
           sodipodi:ry="0.60990727"
           sodipodi:start="0"
           sodipodi:end="3.1415927"
           sodipodi:arc-type="slice"
           d="m -104.94019,58.96558 a 0.60990727,0.60990727 0 0 1 -0.30496,0.528195 0.60990727,0.60990727 0 0 1 -0.60991,0 0.60990727,0.60990727 0 0 1 -0.30495,-0.528195 h 0.60991 z"
           transform="rotate(-90)" />
      </g>
      <g
         id="g119"
         transform="matrix(1.0242019,0,0,1.0242019,-35.772792,103.60464)"
         style="fill:#333333;stroke:#333333">
        <rect
           style="fill:#333333;fill-opacity:1;stroke:#333333;stroke-width:0.371983;stroke-dasharray:none;stroke-dashoffset:1.3083;stroke-opacity:1"
           id="rect117"
           width="1.3575134"
           height="1.0660737"
           x="67.077507"
           y="100.65217"
           ry="0.20645493"
           rx="0" />
        <rect
           style="fill:#333333;fill-opacity:1;stroke:#333333;stroke-width:0.371983;stroke-dasharray:none;stroke-dashoffset:1.3083;stroke-opacity:1"
           id="rect118"
           width="1.3575134"
           height="1.0660737"
           x="67.077507"
           y="98.197998"
           ry="0.20645493"
           rx="0" />
        <rect
           style="fill:#333333;fill-opacity:1;stroke:#333333;stroke-width:0.371983;stroke-dasharray:none;stroke-dashoffset:1.3083;stroke-opacity:1"
           id="rect119"
           width="1.3575134"
           height="1.0660737"
           x="67.077507"
           y="95.74382"
           ry="0.20645493"
           rx="0" />
      </g>
      <text
         xml:space="preserve"
         style="font-size:11.2889px;line-height:0.9;font-family:Arial;-inkscape-font-specification:Arial;text-align:center;text-anchor:middle;fill:#333333;fill-opacity:1;stroke:none;stroke-width:2.80001;stroke-dasharray:none;stroke-opacity:1"
         x="61.711788"
         y="213.05992"
         id="text123"><tspan
           sodipodi:role="line"
           id="tspan123"
           style="font-size:11.2889px;fill:#333333;fill-opacity:1;stroke:none;stroke-width:2.8"
           x="61.711788"
           y="213.05992">BatMods</tspan></text>
      <text
         xml:space="preserve"
         style="font-size:5.64444px;line-height:0.9;font-family:Arial;-inkscape-font-specification:Arial;text-align:center;text-anchor:middle;fill:#333333;fill-opacity:1;stroke:none;stroke-width:0.25;stroke-opacity:1"
         x="86.797615"
         y="204.91295"
         id="text124"><tspan
           sodipodi:role="line"
           id="tspan124"
           style="font-size:5.64444px;fill:#333333;fill-opacity:1;stroke:none;stroke-width:0.25;stroke-opacity:1"
           x="86.797615"
           y="204.91295">lite</tspan></text>
      <rect
         style="fill:none;stroke:#333333;stroke-width:0.478083;stroke-dasharray:none;stroke-opacity:1"
         id="rect138"
         width="11.241204"
         height="5.8408689"
         x="81.240402"
         y="200.00539"
         ry="1.5169973" />
      <path
         id="path115"
         style="fill:#333333;fill-opacity:0.996633;stroke:#333333;stroke-width:0.389634;stroke-dasharray:none;stroke-dashoffset:1.3083;stroke-opacity:1"
         d="m 26.944331,198.06951 c -1.543328,0 -2.785877,1.24255 -2.785877,2.78588 v 12.73514 c 0,1.54332 1.242549,2.78587 2.785877,2.78587 h 6.654891 c 1.543328,0 2.785876,-1.24255 2.785876,-2.78587 v -12.73514 c 0,-1.54333 -1.242548,-2.78588 -2.785876,-2.78588 z m 0.415478,1.08934 h 5.824451 c 1.359711,0 2.454114,1.0944 2.454114,2.45411 v 11.21999 c 0,1.35971 -1.094403,2.45411 -2.454114,2.45411 h -5.824451 c -1.359711,0 -2.45463,-1.0944 -2.45463,-2.45411 v -11.21999 c 0,-1.35971 1.094919,-2.45411 2.45463,-2.45411 z" />
      <g
         id="g15">
        <path
           id="path14"
           style="fill:#333333;fill-opacity:0.996633;stroke:#333333;stroke-width:0.981743;stroke-dasharray:none;stroke-dashoffset:1.3083;stroke-opacity:1"
           d="m -29.364099,-210.61092 c 0.732465,0 1.321883,-0.61193 1.321883,-1.37201 v -3.04891 c 0,-0.28827 -0.08521,-0.55479 -0.230477,-0.77514 h -2.183329 c -0.145269,0.22035 -0.230477,0.48687 -0.230477,0.77514 v 3.04891 c 0,0.76008 0.589935,1.37201 1.3224,1.37201 z"
           transform="scale(-1)" />
        <path
           id="path15"
           style="fill:#333333;fill-opacity:0.996633;stroke:#333333;stroke-width:0.981743;stroke-dasharray:none;stroke-dashoffset:1.3083;stroke-opacity:1"
           d="m 32.677452,210.61092 c -0.732465,0 -1.321883,0.61193 -1.321883,1.37201 v 3.04891 c 0,0.28827 0.08521,0.55479 0.230477,0.77514 h 2.183329 c 0.145269,-0.22035 0.230477,-0.48687 0.230477,-0.77514 v -3.04891 c 0,-0.76008 -0.589935,-1.37201 -1.3224,-1.37201 z" />
      </g>
      <g
         id="g17"
         transform="rotate(90,33.317865,206.94519)">
        <path
           id="path16"
           style="fill:#333333;fill-opacity:0.996633;stroke:#333333;stroke-width:0.981743;stroke-dasharray:none;stroke-dashoffset:1.3083;stroke-opacity:1"
           d="m -29.364099,-210.61092 c 0.732465,0 1.321883,-0.61193 1.321883,-1.37201 v -3.04891 c 0,-0.28827 -0.08521,-0.55479 -0.230477,-0.77514 h -2.183329 c -0.145269,0.22035 -0.230477,0.48687 -0.230477,0.77514 v 3.04891 c 0,0.76008 0.589935,1.37201 1.3224,1.37201 z"
           transform="scale(-1)" />
        <path
           id="path17"
           style="fill:#333333;fill-opacity:0.996633;stroke:#333333;stroke-width:0.981743;stroke-dasharray:none;stroke-dashoffset:1.3083;stroke-opacity:1"
           d="m 32.677452,210.61092 c -0.732465,0 -1.321883,0.61193 -1.321883,1.37201 v 3.04891 c 0,0.28827 0.08521,0.55479 0.230477,0.77514 h 2.183329 c 0.145269,-0.22035 0.230477,-0.48687 0.230477,-0.77514 v -3.04891 c 0,-0.76008 -0.589935,-1.37201 -1.3224,-1.37201 z" />
      </g>
    </g>
  </g>
</svg>
