<?xml version="1.0" encoding="UTF-8" standalone="no"?>
<!-- Created with Inkscape (http://www.inkscape.org/) -->

<svg
   width="75mm"
   height="20.999994mm"
   viewBox="0 0 75 20.999994"
   version="1.1"
   id="svg1"
   inkscape:version="1.3 (0e150ed6c4, 2023-07-21)"
   sodipodi:docname="logos.svg"
   xmlns:inkscape="http://www.inkscape.org/namespaces/inkscape"
   xmlns:sodipodi="http://sodipodi.sourceforge.net/DTD/sodipodi-0.dtd"
   xmlns="http://www.w3.org/2000/svg"
   xmlns:svg="http://www.w3.org/2000/svg">
  <sodipodi:namedview
     id="namedview1"
     pagecolor="#ffffff"
     bordercolor="#000000"
     borderopacity="0.25"
     inkscape:showpageshadow="2"
     inkscape:pageopacity="0.0"
     inkscape:pagecheckerboard="0"
     inkscape:deskcolor="#d1d1d1"
     inkscape:document-units="mm"
     inkscape:zoom="1"
     inkscape:cx="295.49999"
     inkscape:cy="611.49998"
     inkscape:window-width="1920"
     inkscape:window-height="1017"
     inkscape:window-x="-8"
     inkscape:window-y="296"
     inkscape:window-maximized="1"
     inkscape:current-layer="g16" />
  <defs
     id="defs1">
    <inkscape:path-effect
       effect="bspline"
       id="path-effect25"
       is_visible="true"
       lpeversion="1.3"
       weight="33.333333"
       steps="2"
       helper_size="0"
       apply_no_weight="true"
       apply_with_weight="true"
       only_selected="false"
       uniform="false" />
  </defs>
  <g
     inkscape:label="Layer 1"
     inkscape:groupmode="layer"
     id="layer1"
     transform="translate(-21.72193,-209.90501)">
    <rect
       style="fill:none;fill-opacity:1;stroke:none;stroke-width:2.16407;stroke-dasharray:none;stroke-opacity:1"
       id="rect2"
       width="75"
       height="21"
       x="21.72193"
       y="209.90501"
       ry="2.4052451"
       inkscape:export-filename="light.svg"
       inkscape:export-xdpi="96"
       inkscape:export-ydpi="96" />
    <g
       id="g16"
       transform="translate(1.4898661e-5,66.555334)">
      <path
         style="fill:#333333;fill-opacity:1;stroke:none;stroke-width:0.499999"
         d="m 37.028554,291.32939 c -0.742856,0.46158 -1.485694,0.92315 -1.49197,0.43566 -0.0063,-0.4875 0.72401,-1.92401 1.454312,-3.36055"
         id="path2"
         inkscape:path-effect="#path-effect25"
         inkscape:original-d="m 37.028554,291.32939 c -0.742856,0.46158 -1.485694,0.92315 -2.228567,1.38474 0.73032,-1.43658 1.460606,-2.87309 2.190909,-4.30963"
         sodipodi:nodetypes="ccc"
         transform="translate(-0.1238333,-129.24687)" />
      <text
         xml:space="preserve"
         style="font-style:normal;font-variant:normal;font-weight:normal;font-stretch:normal;font-size:11.2889px;line-height:0.8;font-family:codicon;-inkscape-font-specification:'codicon, Normal';font-variant-ligatures:normal;font-variant-caps:normal;font-variant-numeric:normal;font-variant-east-asian:normal;fill:#333333;fill-opacity:1;stroke:#cccccc;stroke-width:0.497014"
         x="39.297832"
         y="157.35931"
         id="text10"
         transform="scale(0.99403075,1.0060051)"><tspan
           sodipodi:role="line"
           id="tspan9"
           style="font-style:normal;font-variant:normal;font-weight:bold;font-stretch:normal;font-size:11.2889px;line-height:0.8;font-family:Arial;-inkscape-font-specification:Arial;fill:#333333;fill-opacity:1;stroke:none;stroke-width:0.497016"
           x="39.297832"
           y="157.35931">BATMODS</tspan><tspan
           sodipodi:role="line"
           style="font-style:normal;font-variant:normal;font-weight:normal;font-stretch:normal;font-size:11.2889px;line-height:0.8;font-family:'Bauhaus 93';-inkscape-font-specification:'Bauhaus 93, Normal';font-variant-ligatures:normal;font-variant-caps:normal;font-variant-numeric:normal;font-variant-east-asian:normal;fill:#333333;fill-opacity:1;stroke:none;stroke-width:0.497016"
           x="39.297832"
           y="168.92192"
           id="tspan10" /></text>
      <path
         id="path10"
         style="font-size:14.1111px;line-height:0.9;font-family:Arial;-inkscape-font-specification:Arial;fill:#4b8bbe;fill-opacity:1;stroke:none;stroke-width:0.729651"
         d="m 24.765949,149.48694 v 9.40511 h 2.528011 v -6.8833 h 0.269234 0.170016 0.346749 c 0.463938,0 0.696081,0.16324 0.696081,0.48937 0,0.3537 -0.257579,0.53072 -0.772046,0.53072 v 2.50786 h 0.537435 c 0.468532,0 0.7028,0.15158 0.7028,0.45475 0,0.17914 -0.05725,0.30529 -0.172083,0.37879 -0.114836,0.0689 -0.312528,0.10335 -0.592728,0.10335 h -0.475424 v 2.41846 h 0.530717 c 0.560402,0 1.006141,-0.0482 1.33687,-0.1447 0.330728,-0.0965 0.640788,-0.26607 0.930175,-0.50953 0.592556,-0.50987 0.888835,-1.19464 0.888835,-2.05362 0,-1.1208 -0.502986,-1.89939 -1.508952,-2.33577 0.693612,-0.52366 1.040247,-1.18035 1.040247,-1.97042 0,-1.59393 -1.012862,-2.39107 -3.038574,-2.39107 z m 8.408369,7.3862 h 1.232321 c 0.149214,0 0.269339,0.12013 0.269339,0.26934 v 0.85211 c 0,0.14922 -0.120125,0.26934 -0.269339,0.26934 h -1.232321 c -0.149214,0 -0.26934,-0.12012 -0.26934,-0.26934 v -0.85211 c 0,-0.14921 0.120126,-0.26934 0.26934,-0.26934 z m 0,-3.23854 h 1.232321 c 0.149214,0 0.269339,0.12013 0.269339,0.26934 v 0.85211 c 0,0.14922 -0.120125,0.26934 -0.269339,0.26934 h -1.232321 c -0.149214,0 -0.26934,-0.12012 -0.26934,-0.26934 v -0.85211 c 0,-0.14921 0.120126,-0.26934 0.26934,-0.26934 z m 0,-3.08908 h 1.232321 c 0.149214,0 0.269339,0.12012 0.269339,0.26934 v 0.85211 c 0,0.14921 -0.120125,0.26934 -0.269339,0.26934 h -1.232321 c -0.149214,0 -0.26934,-0.12013 -0.26934,-0.26934 v -0.85211 c 0,-0.14922 0.120126,-0.26934 0.26934,-0.26934 z m -6.353821,-5.11559 c -1.543328,0 -2.785877,1.24255 -2.785877,2.78588 v 12.73514 c 0,1.54332 1.242549,2.78587 2.785877,2.78587 h 6.654891 c 1.543328,0 2.785876,-1.24255 2.785876,-2.78587 v -12.73514 c 0,-1.54333 -1.242548,-2.78588 -2.785876,-2.78588 z m 0.415478,1.08934 h 5.824451 c 1.359711,0 2.454114,1.0944 2.454114,2.45411 v 11.21999 c 0,1.35971 -1.094403,2.45411 -2.454114,2.45411 h -5.824451 c -1.359711,0 -2.45463,-1.0944 -2.45463,-2.45411 v -11.21999 c 0,-1.35971 1.094919,-2.45411 2.45463,-2.45411 z m 0.533404,-2.55673 h 4.757356 c 0.09178,0 0.165672,0.0739 0.165672,0.16567 v 0.75736 c 0,0.0918 -0.07389,0.16567 -0.165672,0.16567 h -4.757356 c -0.09178,0 -0.165672,-0.0739 -0.165672,-0.16567 v -0.75736 c 0,-0.0918 0.07389,-0.16567 0.165672,-0.16567 z" />
      <path
         id="path11"
         style="fill:#333333;fill-opacity:1;stroke:none;stroke-width:0.284198"
         d="m 29.887838,159.15773 v 0.0727 l 1.037508,1.3897 -1.037508,1.38969 v 0.0727 h 7.016882 v -2.92489 z" />
    </g>
  </g>
</svg>
