<?xml version="1.0" encoding="UTF-8" standalone="no"?>
<!-- Created with Inkscape (http://www.inkscape.org/) -->

<svg
   width="210mm"
   height="297mm"
   viewBox="0 0 210 297"
   version="1.1"
   id="svg1"
   inkscape:version="1.3 (0e150ed6c4, 2023-07-21)"
   sodipodi:docname="logos.svg"
   xmlns:inkscape="http://www.inkscape.org/namespaces/inkscape"
   xmlns:sodipodi="http://sodipodi.sourceforge.net/DTD/sodipodi-0.dtd"
   xmlns:xlink="http://www.w3.org/1999/xlink"
   xmlns="http://www.w3.org/2000/svg"
   xmlns:svg="http://www.w3.org/2000/svg">
  <sodipodi:namedview
     id="namedview1"
     pagecolor="#ffffff"
     bordercolor="#000000"
     borderopacity="0.25"
     inkscape:showpageshadow="2"
     inkscape:pageopacity="0.0"
     inkscape:pagecheckerboard="0"
     inkscape:deskcolor="#d1d1d1"
     inkscape:document-units="mm"
     inkscape:zoom="11.313709"
     inkscape:cx="128.1631"
     inkscape:cy="807.02976"
     inkscape:window-width="1920"
     inkscape:window-height="1009"
     inkscape:window-x="-8"
     inkscape:window-y="189"
     inkscape:window-maximized="1"
     inkscape:current-layer="layer1" />
  <defs
     id="defs1">
    <inkscape:path-effect
       effect="bspline"
       id="path-effect38"
       is_visible="true"
       lpeversion="1.3"
       weight="33.333333"
       steps="2"
       helper_size="0"
       apply_no_weight="true"
       apply_with_weight="true"
       only_selected="false"
       uniform="false" />
    <inkscape:path-effect
       effect="bspline"
       id="path-effect36"
       is_visible="true"
       lpeversion="1.3"
       weight="33.333333"
       steps="2"
       helper_size="0"
       apply_no_weight="true"
       apply_with_weight="true"
       only_selected="false"
       uniform="false" />
    <inkscape:path-effect
       effect="bspline"
       id="path-effect32"
       is_visible="true"
       lpeversion="1.3"
       weight="33.333333"
       steps="2"
       helper_size="0"
       apply_no_weight="true"
       apply_with_weight="true"
       only_selected="false"
       uniform="false" />
    <inkscape:path-effect
       effect="bspline"
       id="path-effect28"
       is_visible="true"
       lpeversion="1.3"
       weight="33.333333"
       steps="2"
       helper_size="0"
       apply_no_weight="true"
       apply_with_weight="true"
       only_selected="false"
       uniform="false" />
    <inkscape:path-effect
       effect="bspline"
       id="path-effect21"
       is_visible="true"
       lpeversion="1.3"
       weight="33.333333"
       steps="2"
       helper_size="0"
       apply_no_weight="true"
       apply_with_weight="true"
       only_selected="false"
       uniform="false" />
    <inkscape:path-effect
       effect="bspline"
       id="path-effect15"
       is_visible="true"
       lpeversion="1.3"
       weight="33.333333"
       steps="2"
       helper_size="0"
       apply_no_weight="true"
       apply_with_weight="true"
       only_selected="false"
       uniform="false" />
    <inkscape:path-effect
       effect="bspline"
       id="path-effect4"
       is_visible="true"
       lpeversion="1.3"
       weight="33.333333"
       steps="2"
       helper_size="0"
       apply_no_weight="true"
       apply_with_weight="true"
       only_selected="false"
       uniform="false" />
    <inkscape:path-effect
       effect="spiro"
       id="path-effect66"
       is_visible="true"
       lpeversion="1" />
    <inkscape:path-effect
       effect="spiro"
       id="path-effect11"
       is_visible="true"
       lpeversion="1" />
    <inkscape:path-effect
       effect="bspline"
       id="path-effect31"
       is_visible="true"
       lpeversion="1.3"
       weight="33.333333"
       steps="2"
       helper_size="0"
       apply_no_weight="true"
       apply_with_weight="true"
       only_selected="false"
       uniform="false" />
    <inkscape:path-effect
       effect="bspline"
       id="path-effect27"
       is_visible="true"
       lpeversion="1.3"
       weight="33.333333"
       steps="2"
       helper_size="0"
       apply_no_weight="true"
       apply_with_weight="true"
       only_selected="false"
       uniform="false" />
    <inkscape:path-effect
       effect="bspline"
       id="path-effect25"
       is_visible="true"
       lpeversion="1.3"
       weight="33.333333"
       steps="2"
       helper_size="0"
       apply_no_weight="true"
       apply_with_weight="true"
       only_selected="false"
       uniform="false" />
    <inkscape:path-effect
       effect="spiro"
       id="path-effect114"
       is_visible="true"
       lpeversion="1" />
    <inkscape:path-effect
       effect="spiro"
       id="path-effect100"
       is_visible="true"
       lpeversion="1" />
    <inkscape:path-effect
       effect="bspline"
       id="path-effect93"
       is_visible="true"
       lpeversion="1.3"
       weight="33.333333"
       steps="2"
       helper_size="0"
       apply_no_weight="true"
       apply_with_weight="true"
       only_selected="false"
       uniform="false" />
    <inkscape:path-effect
       effect="spiro"
       id="path-effect91"
       is_visible="true"
       lpeversion="1" />
    <inkscape:path-effect
       effect="bspline"
       id="path-effect71"
       is_visible="true"
       lpeversion="1.3"
       weight="33.333333"
       steps="2"
       helper_size="0"
       apply_no_weight="true"
       apply_with_weight="true"
       only_selected="false"
       uniform="false" />
    <inkscape:path-effect
       effect="spiro"
       id="path-effect69"
       is_visible="true"
       lpeversion="1" />
    <inkscape:path-effect
       effect="spiro"
       id="path-effect57"
       is_visible="true"
       lpeversion="1" />
    <inkscape:path-effect
       effect="bspline"
       id="path-effect29"
       is_visible="true"
       lpeversion="1.3"
       weight="33.333333"
       steps="2"
       helper_size="0"
       apply_no_weight="true"
       apply_with_weight="true"
       only_selected="false"
       uniform="false" />
    <inkscape:path-effect
       effect="spiro"
       id="path-effect22"
       is_visible="true"
       lpeversion="1" />
    <inkscape:path-effect
       effect="spiro"
       id="path-effect19"
       is_visible="true"
       lpeversion="1" />
    <inkscape:path-effect
       effect="spiro"
       id="path-effect18"
       is_visible="true"
       lpeversion="1" />
    <inkscape:path-effect
       effect="bspline"
       id="path-effect14"
       is_visible="true"
       lpeversion="1.3"
       weight="33.333333"
       steps="2"
       helper_size="0"
       apply_no_weight="true"
       apply_with_weight="true"
       only_selected="false"
       uniform="false" />
    <inkscape:path-effect
       effect="bspline"
       id="path-effect138"
       is_visible="true"
       lpeversion="1.3"
       weight="33.333333"
       steps="2"
       helper_size="0"
       apply_no_weight="true"
       apply_with_weight="true"
       only_selected="false"
       uniform="false" />
    <inkscape:path-effect
       effect="bspline"
       id="path-effect111"
       is_visible="true"
       lpeversion="1.3"
       weight="33.333333"
       steps="2"
       helper_size="0"
       apply_no_weight="true"
       apply_with_weight="true"
       only_selected="false"
       uniform="false" />
    <linearGradient
       id="linearGradient35"
       inkscape:collect="always">
      <stop
         style="stop-color:#a7a7a7;stop-opacity:1;"
         offset="0"
         id="stop37" />
      <stop
         style="stop-color:#343434;stop-opacity:1;"
         offset="0.42469472"
         id="stop36" />
    </linearGradient>
    <linearGradient
       inkscape:collect="always"
       xlink:href="#linearGradient35"
       id="linearGradient38"
       gradientUnits="userSpaceOnUse"
       gradientTransform="translate(34.792708,-0.26458333)"
       x1="39.327874"
       y1="47.973769"
       x2="53.266761"
       y2="47.973769" />
  </defs>
  <g
     inkscape:label="Layer 1"
     inkscape:groupmode="layer"
     id="layer1">
    <g
       id="g28"
       style="fill:#4b8bbe;fill-opacity:1"
       transform="translate(3.3757004,29.707084)" />
    <g
       id="g130"
       style="fill:#4b8bbe;fill-opacity:1"
       transform="translate(94.770751,29.707084)" />
    <rect
       style="fill:#ffffff;fill-opacity:1;stroke:none;stroke-width:1.32616;stroke-dasharray:none;stroke-opacity:1"
       id="rect33"
       width="20"
       height="22"
       x="21.72193"
       y="159.87003"
       ry="2.5197799"
       inkscape:export-filename="dark_button.svg"
       inkscape:export-xdpi="96"
       inkscape:export-ydpi="96"
       rx="2.5197799" />
    <text
       xml:space="preserve"
       style="font-style:normal;font-variant:normal;font-weight:normal;font-stretch:normal;font-size:4.23333px;line-height:0.9;font-family:Arial;-inkscape-font-specification:Arial;text-align:center;text-anchor:middle;fill:none;stroke:#000000;stroke-width:0.25"
       x="104.81603"
       y="81.726364"
       id="text7"><tspan
         sodipodi:role="line"
         id="tspan7"
         style="font-style:normal;font-variant:normal;font-weight:normal;font-stretch:normal;font-size:4.23333px;font-family:Arial;-inkscape-font-specification:Arial;fill:#333333;fill-opacity:1;stroke:none;stroke-width:0.25"
         x="104.81603"
         y="81.726364">Battery Analysis and Training Models for</tspan><tspan
         sodipodi:role="line"
         style="font-style:normal;font-variant:normal;font-weight:normal;font-stretch:normal;font-size:4.23333px;font-family:Arial;-inkscape-font-specification:Arial;fill:#333333;fill-opacity:1;stroke:none;stroke-width:0.25"
         x="104.81603"
         y="85.536362"
         id="tspan8"> Optimization and Design Studies</tspan></text>
    <rect
       style="fill:#333333;fill-opacity:1;stroke:none;stroke-width:1.32616;stroke-dasharray:none;stroke-opacity:1"
       id="rect75"
       width="20"
       height="22"
       x="113.36552"
       y="159.87003"
       ry="2.5197799"
       inkscape:export-filename="dark_button.svg"
       inkscape:export-xdpi="96"
       inkscape:export-ydpi="96"
       rx="2.5197799" />
    <rect
       style="fill:#ffffff;fill-opacity:1;stroke:none;stroke-width:2.3612;stroke-dasharray:none;stroke-opacity:1"
       id="rect161"
       width="75"
       height="25"
       x="21.72193"
       y="123.38446"
       ry="2.8633869"
       inkscape:export-filename="..\docs\source\_static\light.svg"
       inkscape:export-xdpi="500"
       inkscape:export-ydpi="500"
       rx="2.8633869" />
    <text
       xml:space="preserve"
       style="font-style:normal;font-variant:normal;font-weight:normal;font-stretch:normal;font-size:11.2889px;line-height:0.8;font-family:codicon;-inkscape-font-specification:'codicon, Normal';font-variant-ligatures:normal;font-variant-caps:normal;font-variant-numeric:normal;font-variant-east-asian:normal;fill:#333333;fill-opacity:1;stroke:#cccccc;stroke-width:0.497014"
       x="39.297832"
       y="139.50133"
       id="text5"
       transform="scale(0.99403075,1.0060051)"><tspan
         sodipodi:role="line"
         id="tspan5"
         style="font-style:normal;font-variant:normal;font-weight:bold;font-stretch:normal;font-size:11.2889px;line-height:0.8;font-family:Arial;-inkscape-font-specification:Arial;fill:#333333;fill-opacity:1;stroke:none;stroke-width:0.497016"
         x="39.297832"
         y="139.50133">BATMODS</tspan><tspan
         sodipodi:role="line"
         style="font-style:normal;font-variant:normal;font-weight:normal;font-stretch:normal;font-size:11.2889px;line-height:0.8;font-family:'Bauhaus 93';-inkscape-font-specification:'Bauhaus 93, Normal';font-variant-ligatures:normal;font-variant-caps:normal;font-variant-numeric:normal;font-variant-east-asian:normal;fill:#333333;fill-opacity:1;stroke:none;stroke-width:0.497016"
         x="39.297832"
         y="151.06393"
         id="tspan6" /></text>
    <path
       style="fill:#333333;fill-opacity:1;stroke:none;stroke-width:0.499977"
       d="m 37.028554,291.32939 c -0.742856,0.46158 -1.485694,0.92315 -1.49197,0.43566 -0.0063,-0.4875 0.72401,-1.92401 1.454312,-3.36055"
       id="path4"
       sodipodi:nodetypes="ccc"
       transform="matrix(1,0,0,1.0000866,-0.1636708,-147.43045)"
       inkscape:original-d="m 37.028554,291.32939 c -0.742856,0.46158 -1.485694,0.92315 -2.228567,1.38474 0.73032,-1.43658 1.460606,-2.87309 2.190909,-4.30963"
       inkscape:path-effect="#path-effect15" />
    <path
       id="path28"
       style="font-size:14.1111px;line-height:0.9;font-family:Arial;-inkscape-font-specification:Arial;fill:#4b8bbe;fill-opacity:1;stroke:none;stroke-width:0.729651"
       d="m 24.765949,131.52171 v 9.40511 h 2.528011 v -6.8833 h 0.269234 0.170016 0.346749 c 0.463938,0 0.696081,0.16324 0.696081,0.48937 0,0.3537 -0.257579,0.53072 -0.772046,0.53072 v 2.50786 h 0.537435 c 0.468532,0 0.7028,0.15158 0.7028,0.45475 0,0.17914 -0.05725,0.30529 -0.172083,0.37879 -0.114836,0.0689 -0.312528,0.10335 -0.592728,0.10335 h -0.475424 v 2.41846 h 0.530717 c 0.560402,0 1.006141,-0.0482 1.33687,-0.1447 0.330728,-0.0965 0.640788,-0.26607 0.930175,-0.50953 0.592556,-0.50987 0.888835,-1.19464 0.888835,-2.05362 0,-1.1208 -0.502986,-1.89939 -1.508952,-2.33577 0.693612,-0.52366 1.040247,-1.18035 1.040247,-1.97042 0,-1.59393 -1.012862,-2.39107 -3.038574,-2.39107 z m 8.408369,7.3862 h 1.232321 c 0.149214,0 0.269339,0.12013 0.269339,0.26934 v 0.85211 c 0,0.14922 -0.120125,0.26934 -0.269339,0.26934 h -1.232321 c -0.149214,0 -0.26934,-0.12012 -0.26934,-0.26934 v -0.85211 c 0,-0.14921 0.120126,-0.26934 0.26934,-0.26934 z m 0,-3.23854 h 1.232321 c 0.149214,0 0.269339,0.12013 0.269339,0.26934 v 0.85211 c 0,0.14922 -0.120125,0.26934 -0.269339,0.26934 h -1.232321 c -0.149214,0 -0.26934,-0.12012 -0.26934,-0.26934 v -0.85211 c 0,-0.14921 0.120126,-0.26934 0.26934,-0.26934 z m 0,-3.08908 h 1.232321 c 0.149214,0 0.269339,0.12012 0.269339,0.26934 v 0.85211 c 0,0.14921 -0.120125,0.26934 -0.269339,0.26934 h -1.232321 c -0.149214,0 -0.26934,-0.12013 -0.26934,-0.26934 v -0.85211 c 0,-0.14922 0.120126,-0.26934 0.26934,-0.26934 z m -6.353821,-5.11559 c -1.543328,0 -2.785877,1.24255 -2.785877,2.78588 v 12.73514 c 0,1.54332 1.242549,2.78587 2.785877,2.78587 h 6.654892 c 1.543327,0 2.785875,-1.24255 2.785875,-2.78587 v -12.73514 c 0,-1.54333 -1.242548,-2.78588 -2.785875,-2.78588 z m 0.415478,1.08934 h 5.824451 c 1.359711,0 2.454114,1.0944 2.454114,2.45411 v 11.21999 c 0,1.35971 -1.094403,2.45411 -2.454114,2.45411 h -5.824451 c -1.359711,0 -2.454629,-1.0944 -2.454629,-2.45411 v -11.21999 c 0,-1.35971 1.094919,-2.45411 2.454629,-2.45411 z m 0.533404,-2.55673 h 4.757357 c 0.09178,0 0.165672,0.0739 0.165672,0.16567 v 0.75736 c 0,0.0918 -0.07389,0.16567 -0.165672,0.16567 h -4.757357 c -0.09178,0 -0.165672,-0.0739 -0.165672,-0.16567 v -0.75736 c 0,-0.0918 0.07389,-0.16567 0.165672,-0.16567 z" />
    <path
       style="font-weight:bold;font-size:3.24933px;line-height:0.8;font-family:codicon;-inkscape-font-specification:'codicon, Normal';fill:#4b8bbe;stroke-width:0.558214"
       d="m 42.303702,142.72332 q 0,0.30738 -0.161824,0.55121 -0.161825,0.24235 -0.40882,0.3724 -0.185673,0.0975 -0.407117,0.13596 -0.221445,0.0384 -0.524652,0.0384 h -0.894293 v -2.2004 h 0.919844 q 0.310021,0 0.534873,0.0458 0.22485,0.0443 0.378158,0.12709 0.262327,0.13891 0.412226,0.37535 0.151605,0.23497 0.151605,0.55416 z m -0.676256,-0.005 q 0,-0.21722 -0.09199,-0.37092 -0.09028,-0.15516 -0.287877,-0.24235 -0.100503,-0.0428 -0.206113,-0.0576 -0.103907,-0.0162 -0.315133,-0.0162 h -0.165231 v 1.37728 h 0.165231 q 0.233368,0 0.342387,-0.0177 0.109019,-0.0192 0.212926,-0.068 0.17886,-0.0887 0.262327,-0.23645 0.08347,-0.14925 0.08347,-0.36796 z m 2.299612,0.66944 v -0.3458 q -0.12435,0.009 -0.26914,0.0251 -0.144791,0.0148 -0.219741,0.0355 -0.09198,0.0251 -0.141383,0.0739 -0.0477,0.0473 -0.0477,0.12561 0,0.0517 0.0102,0.0842 0.0102,0.0325 0.0511,0.062 0.03918,0.0295 0.09369,0.0443 0.05451,0.0133 0.170341,0.0133 0.09199,0 0.185672,-0.0325 0.09539,-0.0325 0.166936,-0.0857 z m 0,0.25712 q -0.0494,0.0325 -0.122646,0.0783 -0.07324,0.0458 -0.137977,0.0724 -0.09028,0.0355 -0.187377,0.0517 -0.09709,0.0177 -0.212926,0.0177 -0.272547,0 -0.456515,-0.1463 -0.18397,-0.1463 -0.18397,-0.37387 0,-0.18177 0.09369,-0.29704 0.09369,-0.11526 0.265733,-0.18176 0.170342,-0.0665 0.422447,-0.0946 0.252106,-0.028 0.522949,-0.0413 v -0.009 q 0,-0.13744 -0.12946,-0.18916 -0.129459,-0.0532 -0.381565,-0.0532 -0.151604,0 -0.323649,0.0473 -0.172045,0.0458 -0.246996,0.071 h -0.05622 v -0.40047 q 0.09709,-0.0222 0.315131,-0.0517 0.219741,-0.031 0.439482,-0.031 0.522949,0 0.754614,0.14039 0.233367,0.1389 0.233367,0.43741 v 1.12902 h -0.608119 z m 2.395003,0.16108 q -0.0988,0.0222 -0.20952,0.034 -0.110722,0.0133 -0.270844,0.0133 -0.357717,0 -0.533169,-0.12561 -0.173748,-0.12561 -0.173748,-0.43003 v -0.77583 h -0.252106 v -0.36058 h 0.252106 v -0.47436 h 0.613229 v 0.47436 h 0.574052 v 0.36058 h -0.574052 v 0.58815 q 0,0.0872 0.0017,0.15222 0.0017,0.065 0.02725,0.11674 0.02385,0.0517 0.08346,0.0828 0.06133,0.0295 0.177155,0.0295 0.04769,0 0.12435,-0.0177 0.07835,-0.0177 0.109018,-0.0325 h 0.0511 z m 1.524557,-0.4182 v -0.3458 q -0.12435,0.009 -0.269139,0.0251 -0.144791,0.0148 -0.219741,0.0355 -0.09199,0.0251 -0.141384,0.0739 -0.04769,0.0473 -0.04769,0.12561 0,0.0517 0.0102,0.0842 0.0102,0.0325 0.0511,0.062 0.03918,0.0295 0.09369,0.0443 0.05451,0.0133 0.170342,0.0133 0.09199,0 0.185672,-0.0325 0.09539,-0.0325 0.166935,-0.0857 z m 0,0.25712 q -0.0494,0.0325 -0.122646,0.0783 -0.07324,0.0458 -0.137976,0.0724 -0.09028,0.0355 -0.187376,0.0517 -0.0971,0.0177 -0.212927,0.0177 -0.272547,0 -0.456516,-0.1463 -0.183969,-0.1463 -0.183969,-0.37387 0,-0.18177 0.09369,-0.29704 0.09369,-0.11526 0.265733,-0.18176 0.170341,-0.0665 0.422447,-0.0946 0.252105,-0.028 0.522949,-0.0413 v -0.009 q 0,-0.13744 -0.12946,-0.18916 -0.12946,-0.0532 -0.381566,-0.0532 -0.151603,0 -0.323648,0.0473 -0.172045,0.0458 -0.246995,0.071 h -0.05622 v -0.40047 q 0.0971,-0.0222 0.315133,-0.0517 0.219741,-0.031 0.439481,-0.031 0.522949,0 0.754613,0.14039 0.233369,0.1389 0.233369,0.43741 v 1.12902 H 47.846613 Z M 50.21607,143.0556 H 48.916364 V 142.63 h 1.299706 z m 2.337087,0.76548 h -0.613229 v -0.17289 q -0.158419,0.11231 -0.296395,0.1655 -0.137977,0.0532 -0.318539,0.0532 -0.349201,0 -0.558721,-0.23348 -0.20952,-0.23349 -0.20952,-0.62954 0,-0.21132 0.06984,-0.37387 0.07155,-0.16403 0.19419,-0.28077 0.115832,-0.11084 0.281064,-0.17143 0.165231,-0.062 0.330462,-0.062 0.172045,0 0.281064,0.0325 0.110722,0.031 0.226555,0.0798 v -0.70618 h 0.613229 z m -0.613229,-0.4581 v -0.81425 q -0.06473,-0.0237 -0.136274,-0.034 -0.07155,-0.0103 -0.131163,-0.0103 -0.241885,0 -0.362827,0.13152 -0.120943,0.13004 -0.120943,0.36206 0,0.24383 0.09709,0.35466 0.0971,0.10936 0.311726,0.10936 0.08346,0 0.177155,-0.0266 0.09369,-0.028 0.165231,-0.0724 z m 2.578971,-0.69456 h -0.05451 q -0.03918,-0.0118 -0.126054,-0.0177 -0.08688,-0.006 -0.14479,-0.006 -0.131163,0 -0.231664,0.0148 -0.100503,0.0148 -0.216334,0.0502 v 1.11129 h -0.61323 v -1.65954 h 0.61323 v 0.24383 q 0.202706,-0.15073 0.352607,-0.19949 0.1499,-0.0502 0.275954,-0.0502 0.03236,0 0.07324,0.002 0.04088,0.002 0.07155,0.005 z m 0.960728,1.15266 h -0.613231 v -1.65953 h 0.613231 z m 0.01704,-1.89597 h -0.647302 v -0.40321 h 0.647298 z m 2.48869,0.23644 -0.737579,1.65953 H 56.55278 l -0.732469,-1.65953 h 0.649002 l 0.442887,1.14084 0.437778,-1.14084 z m 2.224662,0.92804 h -1.403614 q 0.01362,0.19506 0.170341,0.29851 0.158418,0.10344 0.465033,0.10344 0.19419,0 0.376454,-0.0606 0.182266,-0.0606 0.287878,-0.13005 h 0.06813 v 0.42707 q -0.207817,0.0724 -0.391785,0.10493 -0.183969,0.0325 -0.407117,0.0325 -0.575755,0 -0.882369,-0.22462 -0.306615,-0.22462 -0.306615,-0.63987 0,-0.41082 0.289581,-0.65022 0.291283,-0.24087 0.797199,-0.24087 0.466735,0 0.701806,0.20541 0.235072,0.20393 0.235072,0.58815 z m -0.609823,-0.31181 q -0.0052,-0.16699 -0.09539,-0.25122 -0.09028,-0.0842 -0.281064,-0.0842 -0.177156,0 -0.291284,0.0798 -0.114129,0.0798 -0.127756,0.25565 z m 2.963945,1.0433 H 61.9475 v -0.82289 q 0,-0.10049 -0.01193,-0.1995 -0.01193,-0.10049 -0.04088,-0.14778 -0.03407,-0.0547 -0.100503,-0.0798 -0.06473,-0.0251 -0.182265,-0.0251 -0.08346,0 -0.170342,0.0237 -0.08517,0.0237 -0.185673,0.0753 v 1.17631 h -0.613229 v -1.65954 h 0.613229 v 0.18325 q 0.163529,-0.11084 0.313429,-0.16995 0.151604,-0.0591 0.335573,-0.0591 0.310022,0 0.48377,0.15663 0.175452,0.15665 0.175452,0.46846 z m 3.752625,-0.85267 q 0,0.39161 -0.250403,0.63839 -0.248698,0.24679 -0.621747,0.24679 -0.160121,0 -0.281064,-0.0295 -0.120941,-0.0295 -0.22996,-0.0857 l -0.02555,0.0827 h -0.587681 v -2.29918 h 0.613229 v 0.81277 q 0.141384,-0.0975 0.287877,-0.15812 0.148198,-0.0606 0.340684,-0.0606 0.362828,0 0.55872,0.22757 0.195894,0.2261 0.195894,0.6251 z m -0.631968,0.0103 q 0,-0.22167 -0.08688,-0.34136 -0.08688,-0.1197 -0.310022,-0.1197 -0.08688,0 -0.178859,0.0237 -0.09199,0.0222 -0.175452,0.065 v 0.83347 q 0.06644,0.0207 0.126053,0.028 0.05962,0.007 0.143087,0.007 0.243589,0 0.362828,-0.12414 0.119239,-0.12413 0.119239,-0.3724 z m 2.233179,0.40935 v -0.3458 q -0.124348,0.009 -0.269138,0.0251 -0.144791,0.0148 -0.219741,0.0355 -0.09199,0.0251 -0.141384,0.0739 -0.04769,0.0473 -0.04769,0.12561 0,0.0517 0.0102,0.0842 0.0102,0.0325 0.05111,0.062 0.03918,0.0295 0.09369,0.0443 0.05451,0.0133 0.170342,0.0133 0.09199,0 0.185672,-0.0325 0.09539,-0.0325 0.166934,-0.0857 z m 0,0.25712 q -0.0494,0.0325 -0.122645,0.0783 -0.07324,0.0458 -0.137976,0.0724 -0.09028,0.0355 -0.187377,0.0517 -0.09709,0.0177 -0.212926,0.0177 -0.272547,0 -0.456517,-0.1463 -0.183968,-0.1463 -0.183968,-0.37387 0,-0.18177 0.09368,-0.29704 0.09369,-0.11526 0.265734,-0.18176 0.170342,-0.0665 0.422446,-0.0946 0.252106,-0.028 0.52295,-0.0413 v -0.009 q 0,-0.13744 -0.12946,-0.18916 -0.12946,-0.0532 -0.381565,-0.0532 -0.151605,0 -0.323649,0.0473 -0.172045,0.0458 -0.246996,0.071 h -0.05621 v -0.40047 q 0.0971,-0.0222 0.315131,-0.0517 0.219741,-0.031 0.439482,-0.031 0.522949,0 0.754614,0.14039 0.233367,0.1389 0.233367,0.43741 v 1.12902 h -0.60812 z m 2.395003,0.16108 q -0.0988,0.0222 -0.20952,0.034 -0.110721,0.0133 -0.270843,0.0133 -0.357718,0 -0.533169,-0.12561 -0.173749,-0.12561 -0.173749,-0.43003 v -0.77583 h -0.252105 v -0.36058 h 0.252105 v -0.47436 h 0.61323 v 0.47436 h 0.574051 v 0.36058 h -0.574051 v 0.58815 q 0,0.0872 0.0017,0.15222 0.0017,0.065 0.02725,0.11674 0.02385,0.0517 0.08346,0.0828 0.06133,0.0295 0.177155,0.0295 0.04769,0 0.12435,-0.0177 0.07835,-0.0177 0.109018,-0.0325 h 0.0511 z m 1.589288,0 q -0.0988,0.0222 -0.209521,0.034 -0.110722,0.0133 -0.270843,0.0133 -0.357717,0 -0.533169,-0.12561 -0.173748,-0.12561 -0.173748,-0.43003 v -0.77583 h -0.252106 v -0.36058 h 0.252106 v -0.47436 h 0.61323 v 0.47436 h 0.574051 v 0.36058 h -0.574051 v 0.58815 q 0,0.0872 0.0017,0.15222 0.0017,0.065 0.02726,0.11674 0.02385,0.0517 0.08347,0.0828 0.06133,0.0295 0.177155,0.0295 0.04769,0 0.124348,-0.0177 0.07835,-0.0177 0.109019,-0.0325 h 0.0511 z m 2.250213,-0.71671 h -1.403616 q 0.01363,0.19506 0.170342,0.29851 0.158418,0.10344 0.465033,0.10344 0.194189,0 0.376455,-0.0606 0.182266,-0.0606 0.287877,-0.13005 h 0.06813 v 0.42707 q -0.207817,0.0724 -0.391786,0.10493 -0.183969,0.0325 -0.407117,0.0325 -0.575754,0 -0.88237,-0.22462 -0.306614,-0.22462 -0.306614,-0.63987 0,-0.41082 0.28958,-0.65022 0.291285,-0.24087 0.797199,-0.24087 0.466736,0 0.701808,0.20541 0.235071,0.20393 0.235071,0.58815 z m -0.609823,-0.31181 q -0.0052,-0.16699 -0.09539,-0.25122 -0.09028,-0.0842 -0.281064,-0.0842 -0.177155,0 -0.291283,0.0798 -0.11413,0.0798 -0.127757,0.25565 z m 2.429069,-0.10936 h -0.05451 q -0.03918,-0.0118 -0.126054,-0.0177 -0.08688,-0.006 -0.14479,-0.006 -0.131163,0 -0.231665,0.0148 -0.100503,0.0148 -0.216333,0.0502 v 1.11129 h -0.61323 v -1.65954 h 0.61323 v 0.24383 q 0.202706,-0.15073 0.352606,-0.19949 0.149901,-0.0502 0.275955,-0.0502 0.03236,0 0.07324,0.002 0.04088,0.002 0.07155,0.005 z m 1.211131,0.56599 0.436074,-1.07286 h 0.630264 l -1.062931,2.26837 H 76.52193 l 0.303209,-0.62066 -0.744394,-1.64771 h 0.643892 z m 4.459545,0.58667 H 81.02917 v -0.17289 q -0.158417,0.11231 -0.296394,0.1655 -0.137976,0.0532 -0.318538,0.0532 -0.349201,0 -0.558721,-0.23348 -0.20952,-0.23349 -0.20952,-0.62954 0,-0.21132 0.06984,-0.37387 0.07155,-0.16403 0.19419,-0.28077 0.115832,-0.11084 0.281064,-0.17143 0.165231,-0.062 0.330462,-0.062 0.172045,0 0.281063,0.0325 0.110723,0.031 0.226554,0.0798 v -0.70618 h 0.613231 z m -0.613231,-0.4581 v -0.81425 q -0.06473,-0.0237 -0.136272,-0.034 -0.07155,-0.0103 -0.131164,-0.0103 -0.241884,0 -0.362827,0.13152 -0.120942,0.13004 -0.120942,0.36206 0,0.24383 0.09709,0.35466 0.0971,0.10936 0.311724,0.10936 0.08346,0 0.177157,-0.0266 0.09369,-0.028 0.16523,-0.0724 z m 3.07637,-0.27339 h -1.403615 q 0.01362,0.19506 0.170342,0.29851 0.158417,0.10344 0.465032,0.10344 0.19419,0 0.376455,-0.0606 0.182266,-0.0606 0.287878,-0.13005 h 0.06813 v 0.42707 q -0.207816,0.0724 -0.391785,0.10493 -0.183969,0.0325 -0.407116,0.0325 -0.575755,0 -0.88237,-0.22462 -0.306615,-0.22462 -0.306615,-0.63987 0,-0.41082 0.289581,-0.65022 0.291285,-0.24087 0.797199,-0.24087 0.466736,0 0.701807,0.20541 0.235072,0.20393 0.235072,0.58815 z m -0.609823,-0.31181 q -0.0052,-0.16699 -0.09539,-0.25122 -0.09028,-0.0842 -0.281064,-0.0842 -0.177155,0 -0.291284,0.0798 -0.114129,0.0798 -0.127757,0.25565 z m 2.705023,0.51721 q 0,0.25714 -0.265732,0.41526 -0.265734,0.15664 -0.727359,0.15664 -0.255513,0 -0.46333,-0.0414 -0.207816,-0.0414 -0.33387,-0.0916 v -0.43742 h 0.05622 q 0.04599,0.028 0.105614,0.062 0.06133,0.0325 0.172044,0.071 0.09539,0.034 0.216335,0.0591 0.120943,0.0237 0.258919,0.0237 0.180562,0 0.267436,-0.034 0.08688,-0.0355 0.08688,-0.10345 0,-0.0605 -0.05111,-0.0872 -0.0511,-0.028 -0.194189,-0.0532 -0.06813,-0.0133 -0.185673,-0.028 -0.115832,-0.0163 -0.211223,-0.0384 -0.260623,-0.0591 -0.386676,-0.18325 -0.126053,-0.12561 -0.126053,-0.31181 0,-0.2394 0.260623,-0.39751 0.262326,-0.1596 0.715435,-0.1596 0.214631,0 0.410523,0.0384 0.197596,0.037 0.308318,0.0798 v 0.41969 h -0.0528 q -0.136274,-0.0813 -0.311725,-0.13152 -0.173749,-0.0517 -0.352608,-0.0517 -0.148197,0 -0.250402,0.0355 -0.100503,0.0355 -0.100503,0.10049 0,0.0591 0.04599,0.0902 0.04599,0.031 0.216334,0.062 0.09369,0.0162 0.201003,0.0325 0.109018,0.0148 0.218037,0.0385 0.241885,0.0547 0.357717,0.17289 0.115833,0.11675 0.115833,0.2926 z m 1.020348,0.52609 h -0.613231 v -1.65953 h 0.613231 z m 0.01704,-1.89597 h -0.647307 v -0.40321 h 0.647298 z m 2.422259,1.70534 q 0,0.23349 -0.07666,0.39309 -0.07666,0.15959 -0.21463,0.24974 -0.137978,0.0916 -0.33387,0.13152 -0.194189,0.0414 -0.439482,0.0414 -0.199299,0 -0.393488,-0.0207 -0.192487,-0.0207 -0.33387,-0.0502 V 143.96 h 0.07495 q 0.112425,0.0384 0.27425,0.0695 0.161825,0.0325 0.289581,0.0325 0.170341,0 0.275953,-0.028 0.107321,-0.0266 0.163528,-0.0768 0.0528,-0.0473 0.07666,-0.12118 0.02384,-0.0739 0.02384,-0.17733 v -0.031 q -0.110722,0.0783 -0.245292,0.12414 -0.13457,0.0458 -0.299801,0.0458 -0.402007,0 -0.620044,-0.20984 -0.218037,-0.20985 -0.218037,-0.6384 0,-0.20541 0.06644,-0.35467 0.06644,-0.14926 0.187376,-0.26009 0.112425,-0.10344 0.275954,-0.16107 0.165231,-0.0577 0.337276,-0.0577 0.15501,0 0.281064,0.0325 0.127756,0.031 0.231665,0.0872 l 0.02214,-0.0739 h 0.594492 z m -0.61323,-0.33249 v -0.7522 q -0.0528,-0.0192 -0.12946,-0.0295 -0.07666,-0.0118 -0.137976,-0.0118 -0.241886,0 -0.362828,0.12118 -0.120943,0.11969 -0.120943,0.33544 0,0.23941 0.1022,0.33398 0.103906,0.0946 0.306615,0.0946 0.09199,0 0.180562,-0.0251 0.08858,-0.0251 0.161825,-0.0665 z m 3.113844,0.52312 h -0.616647 v -0.82289 q 0,-0.10049 -0.01193,-0.1995 -0.01193,-0.10049 -0.04088,-0.14778 -0.03407,-0.0547 -0.100503,-0.0798 -0.06473,-0.0251 -0.182266,-0.0251 -0.08346,0 -0.170342,0.0237 -0.08517,0.0237 -0.185672,0.0753 v 1.17631 h -0.61323 v -1.65954 h 0.61323 v 0.18325 q 0.163529,-0.11084 0.313429,-0.16995 0.151603,-0.0591 0.335573,-0.0591 0.310022,0 0.48377,0.15663 0.175452,0.15665 0.175452,0.46846 z m 2.226366,-0.52609 q 0,0.25714 -0.265733,0.41526 -0.265734,0.15664 -0.72736,0.15664 -0.255512,0 -0.463328,-0.0414 -0.207817,-0.0414 -0.33387,-0.0916 v -0.43742 h 0.05622 q 0.046,0.028 0.105614,0.062 0.06133,0.0325 0.172045,0.071 0.09539,0.034 0.216334,0.0591 0.120943,0.0237 0.258919,0.0237 0.180563,0 0.267437,-0.034 0.08688,-0.0355 0.08688,-0.10345 0,-0.0605 -0.0511,-0.0872 -0.05111,-0.028 -0.194189,-0.0532 -0.06813,-0.0133 -0.185672,-0.028 -0.115833,-0.0163 -0.211224,-0.0384 -0.260623,-0.0591 -0.386676,-0.18325 -0.126052,-0.12561 -0.126052,-0.31181 0,-0.2394 0.260622,-0.39751 0.262327,-0.1596 0.715435,-0.1596 0.214631,0 0.410523,0.0384 0.197596,0.037 0.308319,0.0798 v 0.41969 h -0.05281 q -0.136273,-0.0813 -0.311725,-0.13152 -0.173748,-0.0517 -0.352606,-0.0517 -0.148198,0 -0.250403,0.0355 -0.100503,0.0355 -0.100503,0.10049 0,0.0591 0.04599,0.0902 0.046,0.031 0.216335,0.062 0.09369,0.0162 0.201002,0.0325 0.10902,0.0148 0.218038,0.0385 0.241885,0.0547 0.357718,0.17289 0.115832,0.11675 0.115832,0.2926 z"
       id="text111"
       aria-label="Data-driven battery designs" />
    <rect
       style="fill:#333333;fill-opacity:1;stroke:none;stroke-width:2.36123;stroke-dasharray:none;stroke-opacity:1"
       id="rect160"
       width="75"
       height="25"
       x="113.27807"
       y="123.38446"
       ry="2.8633869"
       inkscape:export-filename="dark.png"
       inkscape:export-xdpi="500"
       inkscape:export-ydpi="500"
       rx="2.8633869" />
    <text
       xml:space="preserve"
       style="font-style:normal;font-variant:normal;font-weight:normal;font-stretch:normal;font-size:8.46667px;line-height:0.8;font-family:codicon;-inkscape-font-specification:'codicon, Normal';font-variant-ligatures:normal;font-variant-caps:normal;font-variant-numeric:normal;font-variant-east-asian:normal;fill:#cccccc;fill-opacity:1;stroke:#cccccc;stroke-width:0.499999"
       x="130.44817"
       y="140.33904"
       id="text79"><tspan
         sodipodi:role="line"
         id="tspan78"
         style="font-style:normal;font-variant:normal;font-weight:bold;font-stretch:normal;font-size:11.2889px;line-height:0.8;font-family:Arial;-inkscape-font-specification:Arial;fill:#cccccc;fill-opacity:1;stroke:none;stroke-width:0.5"
         x="130.44817"
         y="140.33904">BATMODS</tspan><tspan
         sodipodi:role="line"
         style="font-style:normal;font-variant:normal;font-weight:normal;font-stretch:normal;font-size:8.46667px;line-height:0.8;font-family:'Bauhaus 93';-inkscape-font-specification:'Bauhaus 93, Normal';font-variant-ligatures:normal;font-variant-caps:normal;font-variant-numeric:normal;font-variant-east-asian:normal;fill:#cccccc;fill-opacity:1;stroke:none;stroke-width:0.5"
         x="130.44817"
         y="149.36163"
         id="tspan79" /></text>
    <path
       style="fill:#cccccc;fill-opacity:1;stroke:none;stroke-width:0.499977"
       d="m 37.028554,291.32939 c -0.742856,0.46158 -1.485694,0.92315 -1.49197,0.43566 -0.0063,-0.4875 0.72401,-1.92401 1.454312,-3.36055"
       id="path17"
       sodipodi:nodetypes="ccc"
       transform="matrix(1,0,0,1.0000866,91.36533,-147.43047)"
       inkscape:original-d="m 37.028554,291.32939 c -0.742856,0.46158 -1.485694,0.92315 -2.228567,1.38474 0.73032,-1.43658 1.460606,-2.87309 2.190909,-4.30963"
       inkscape:path-effect="#path-effect21" />
    <path
       id="path132"
       style="font-size:14.1111px;line-height:0.9;font-family:Arial;-inkscape-font-specification:Arial;fill:#4b8bbe;fill-opacity:1;stroke:none;stroke-width:0.729651"
       d="m 116.161,131.52172 v 9.40511 h 2.52802 v -6.8833 h 0.26923 0.17002 0.34674 c 0.46394,0 0.69609,0.16324 0.69609,0.48937 0,0.3537 -0.25758,0.53072 -0.77205,0.53072 v 2.50786 h 0.53743 c 0.46854,0 0.7028,0.15158 0.7028,0.45475 0,0.17914 -0.0573,0.30529 -0.17208,0.37879 -0.11483,0.0689 -0.31253,0.10335 -0.59273,0.10335 h -0.47542 v 2.41846 h 0.53072 c 0.5604,0 1.00614,-0.0482 1.33687,-0.1447 0.33072,-0.0965 0.64078,-0.26607 0.93017,-0.50953 0.59256,-0.50987 0.88884,-1.19464 0.88884,-2.05362 0,-1.1208 -0.50299,-1.89939 -1.50896,-2.33577 0.69362,-0.52366 1.04025,-1.18035 1.04025,-1.97042 0,-1.59393 -1.01286,-2.39107 -3.03857,-2.39107 z m 8.40837,7.3862 h 1.23232 c 0.14922,0 0.26934,0.12013 0.26934,0.26934 v 0.85211 c 0,0.14922 -0.12012,0.26934 -0.26934,0.26934 h -1.23232 c -0.14921,0 -0.26934,-0.12012 -0.26934,-0.26934 v -0.85211 c 0,-0.14921 0.12013,-0.26934 0.26934,-0.26934 z m 0,-3.23854 h 1.23232 c 0.14922,0 0.26934,0.12013 0.26934,0.26934 v 0.85211 c 0,0.14922 -0.12012,0.26934 -0.26934,0.26934 h -1.23232 c -0.14921,0 -0.26934,-0.12012 -0.26934,-0.26934 v -0.85211 c 0,-0.14921 0.12013,-0.26934 0.26934,-0.26934 z m 0,-3.08908 h 1.23232 c 0.14922,0 0.26934,0.12012 0.26934,0.26934 v 0.85211 c 0,0.14921 -0.12012,0.26934 -0.26934,0.26934 h -1.23232 c -0.14921,0 -0.26934,-0.12013 -0.26934,-0.26934 v -0.85211 c 0,-0.14922 0.12013,-0.26934 0.26934,-0.26934 z m -6.35382,-5.11559 c -1.54333,0 -2.78588,1.24255 -2.78588,2.78588 v 12.73514 c 0,1.54332 1.24255,2.78587 2.78588,2.78587 h 6.65489 c 1.54333,0 2.78588,-1.24255 2.78588,-2.78587 v -12.73514 c 0,-1.54333 -1.24255,-2.78588 -2.78588,-2.78588 z m 0.41548,1.08934 h 5.82445 c 1.35971,0 2.45411,1.0944 2.45411,2.45411 v 11.21999 c 0,1.35971 -1.0944,2.45411 -2.45411,2.45411 h -5.82445 c -1.35971,0 -2.45463,-1.0944 -2.45463,-2.45411 v -11.21999 c 0,-1.35971 1.09492,-2.45411 2.45463,-2.45411 z m 0.5334,-2.55673 h 4.75736 c 0.0918,0 0.16567,0.0739 0.16567,0.16567 v 0.75736 c 0,0.0918 -0.0739,0.16567 -0.16567,0.16567 h -4.75736 c -0.0918,0 -0.16567,-0.0739 -0.16567,-0.16567 v -0.75736 c 0,-0.0918 0.0739,-0.16567 0.16567,-0.16567 z" />
    <rect
       style="fill:none;fill-opacity:1;stroke-width:0.180055"
       id="rect5"
       width="8.4666662"
       height="8.4666662"
       x="52.749706"
       y="166.33409"
       inkscape:export-filename="favicon.png"
       inkscape:export-xdpi="96"
       inkscape:export-ydpi="96" />
    <g
       id="g71"
       transform="matrix(0.85435337,0,0,0.85435337,-9.8995644,9.7803193)"
       inkscape:export-filename="..\..\..\Desktop\favicon.png"
       inkscape:export-xdpi="96"
       inkscape:export-ydpi="96">
      <path
         style="font-size:14.1111px;line-height:0.9;font-family:Arial;-inkscape-font-specification:Arial;fill:#4b8bbe;fill-opacity:1;stroke:none;stroke-width:0.729651"
         d="m 81.737827,184.90764 h 1.232321 c 0.149214,0 0.269339,0.12012 0.269339,0.26934 v 0.85211 c 0,0.14921 -0.120125,0.26934 -0.269339,0.26934 h -1.232321 c -0.149214,0 -0.26934,-0.12013 -0.26934,-0.26934 v -0.85211 c 0,-0.14922 0.120126,-0.26934 0.26934,-0.26934 z"
         id="path68" />
      <path
         style="font-size:14.1111px;line-height:0.9;font-family:Arial;-inkscape-font-specification:Arial;fill:#4b8bbe;fill-opacity:1;stroke:none;stroke-width:0.729651"
         d="m 81.737827,187.99672 h 1.232321 c 0.149214,0 0.269339,0.12013 0.269339,0.26934 v 0.85211 c 0,0.14922 -0.120125,0.26934 -0.269339,0.26934 h -1.232321 c -0.149214,0 -0.26934,-0.12012 -0.26934,-0.26934 v -0.85211 c 0,-0.14921 0.120126,-0.26934 0.26934,-0.26934 z"
         id="path67" />
      <path
         style="font-size:14.1111px;line-height:0.9;font-family:Arial;-inkscape-font-specification:Arial;fill:#4b8bbe;fill-opacity:1;stroke:none;stroke-width:0.729651"
         d="m 81.737827,191.23526 h 1.232321 c 0.149214,0 0.269339,0.12013 0.269339,0.26934 v 0.85211 c 0,0.14922 -0.120125,0.26934 -0.269339,0.26934 h -1.232321 c -0.149214,0 -0.26934,-0.12012 -0.26934,-0.26934 v -0.85211 c 0,-0.14921 0.120126,-0.26934 0.26934,-0.26934 z"
         id="path66" />
      <path
         style="font-size:14.1111px;line-height:0.9;font-family:Arial;-inkscape-font-specification:Arial;fill:#4b8bbe;fill-opacity:1;stroke:none;stroke-width:0.729651"
         d="m 73.329458,183.84906 v 9.40511 h 2.528011 v -6.8833 h 0.269234 0.170016 0.346749 c 0.463938,0 0.696081,0.16324 0.696081,0.48937 0,0.3537 -0.257579,0.53072 -0.772046,0.53072 v 2.50786 h 0.537435 c 0.468532,0 0.7028,0.15158 0.7028,0.45475 0,0.17914 -0.05725,0.30529 -0.172083,0.37879 -0.114836,0.0689 -0.312528,0.10335 -0.592728,0.10335 h -0.475424 v 2.41846 h 0.530717 c 0.560402,0 1.006141,-0.0482 1.33687,-0.1447 0.330728,-0.0965 0.640788,-0.26607 0.930175,-0.50953 0.592556,-0.50987 0.888835,-1.19464 0.888835,-2.05362 0,-1.1208 -0.502986,-1.89939 -1.508952,-2.33577 0.693612,-0.52366 1.040247,-1.18035 1.040247,-1.97042 0,-1.59393 -1.012862,-2.39107 -3.038574,-2.39107 z"
         id="path59" />
    </g>
    <path
       style="font-weight:bold;font-size:3.24933px;line-height:0.8;font-family:codicon;-inkscape-font-specification:'codicon, Normal';fill:#4b8bbe;stroke-width:0.558214"
       d="m 133.67169,142.72332 q 0,0.30738 -0.16183,0.55121 -0.16182,0.24235 -0.40882,0.3724 -0.18566,0.0975 -0.40711,0.13596 -0.22145,0.0384 -0.52465,0.0384 h -0.8943 v -2.2004 h 0.91985 q 0.31002,0 0.53487,0.0458 0.22486,0.0443 0.37816,0.12709 0.26232,0.13891 0.41222,0.37535 0.15161,0.23497 0.15161,0.55416 z m -0.67625,-0.005 q 0,-0.21722 -0.092,-0.37092 -0.0903,-0.15516 -0.28787,-0.24235 -0.1005,-0.0428 -0.20612,-0.0576 -0.10393,-0.0162 -0.31513,-0.0162 h -0.16524 v 1.37728 h 0.16524 q 0.23336,0 0.34239,-0.0177 0.10902,-0.0192 0.21292,-0.068 0.17886,-0.0887 0.26232,-0.23645 0.0834,-0.14925 0.0834,-0.36796 z m 2.29961,0.66944 v -0.3458 q -0.12435,0.009 -0.26914,0.0251 -0.14479,0.0148 -0.21974,0.0355 -0.092,0.0251 -0.14139,0.0739 -0.0477,0.0473 -0.0477,0.12561 0,0.0517 0.0107,0.0842 0.0107,0.0325 0.0511,0.062 0.0392,0.0295 0.0937,0.0443 0.0545,0.0133 0.17033,0.0133 0.092,0 0.18568,-0.0325 0.0954,-0.0325 0.16694,-0.0857 z m 0,0.25712 q -0.0494,0.0325 -0.12265,0.0783 -0.0732,0.0458 -0.13798,0.0724 -0.0903,0.0355 -0.18737,0.0517 -0.097,0.0177 -0.21293,0.0177 -0.27254,0 -0.45651,-0.1463 -0.18397,-0.1463 -0.18397,-0.37387 0,-0.18177 0.0937,-0.29704 0.0937,-0.11526 0.26574,-0.18176 0.17033,-0.0665 0.42244,-0.0946 0.2521,-0.028 0.52295,-0.0413 v -0.009 q 0,-0.13744 -0.12946,-0.18916 -0.12946,-0.0532 -0.38157,-0.0532 -0.1516,0 -0.32365,0.0473 -0.17204,0.0458 -0.24699,0.071 h -0.0563 v -0.40047 q 0.0971,-0.0222 0.31513,-0.0517 0.21975,-0.031 0.43949,-0.031 0.52294,0 0.75461,0.14039 0.23337,0.1389 0.23337,0.43741 v 1.12902 h -0.60812 z m 2.395,0.16108 q -0.0988,0.0222 -0.20952,0.034 -0.11072,0.0133 -0.27085,0.0133 -0.35771,0 -0.53316,-0.12561 -0.17375,-0.12561 -0.17375,-0.43003 v -0.77583 h -0.25211 v -0.36058 h 0.25211 v -0.47436 h 0.61323 v 0.47436 h 0.57405 v 0.36058 H 137.116 v 0.58815 q 0,0.0872 0.002,0.15222 0.002,0.065 0.0273,0.11674 0.0238,0.0517 0.0834,0.0828 0.0613,0.0295 0.17716,0.0295 0.0477,0 0.12435,-0.0177 0.0784,-0.0177 0.10901,-0.0325 h 0.0511 z m 1.52455,-0.4182 v -0.3458 q -0.12435,0.009 -0.26914,0.0251 -0.14479,0.0148 -0.21974,0.0355 -0.092,0.0251 -0.14137,0.0739 -0.0477,0.0473 -0.0477,0.12561 0,0.0517 0.0107,0.0842 0.0107,0.0325 0.0511,0.062 0.0392,0.0295 0.0937,0.0443 0.0545,0.0133 0.17034,0.0133 0.092,0 0.18567,-0.0325 0.0953,-0.0325 0.16693,-0.0857 z m 0,0.25712 q -0.0494,0.0325 -0.12264,0.0783 -0.0732,0.0458 -0.13797,0.0724 -0.0903,0.0355 -0.18738,0.0517 -0.0971,0.0177 -0.21293,0.0177 -0.27255,0 -0.45652,-0.1463 -0.18396,-0.1463 -0.18396,-0.37387 0,-0.18177 0.0937,-0.29704 0.0937,-0.11526 0.26574,-0.18176 0.17034,-0.0665 0.42245,-0.0946 0.2521,-0.028 0.52295,-0.0413 v -0.009 q 0,-0.13744 -0.12946,-0.18916 -0.12946,-0.0532 -0.38157,-0.0532 -0.1516,0 -0.32365,0.0473 -0.17205,0.0458 -0.247,0.071 h -0.0562 v -0.40047 q 0.0971,-0.0222 0.31514,-0.0517 0.21974,-0.031 0.43948,-0.031 0.52294,0 0.7546,0.14039 0.23338,0.1389 0.23338,0.43741 v 1.12902 h -0.60813 z m 2.36946,-0.58962 h -1.29971 V 142.63 h 1.29971 z m 2.33708,0.76548 h -0.61323 v -0.17289 q -0.15841,0.11231 -0.29638,0.1655 -0.13799,0.0532 -0.31855,0.0532 -0.3492,0 -0.55872,-0.23348 -0.20952,-0.23349 -0.20952,-0.62954 0,-0.21132 0.0699,-0.37387 0.0715,-0.16403 0.1942,-0.28077 0.11582,-0.11084 0.28106,-0.17143 0.16523,-0.062 0.33046,-0.062 0.17205,0 0.28107,0.0325 0.11071,0.031 0.22655,0.0798 v -0.70618 h 0.61323 z m -0.61323,-0.4581 v -0.81425 q -0.0647,-0.0237 -0.13626,-0.034 -0.0715,-0.0103 -0.13117,-0.0103 -0.24189,0 -0.36282,0.13152 -0.12095,0.13004 -0.12095,0.36206 0,0.24383 0.0971,0.35466 0.0971,0.10936 0.31173,0.10936 0.0834,0 0.17715,-0.0266 0.0937,-0.028 0.16523,-0.0724 z m 2.57898,-0.69456 h -0.0545 q -0.0392,-0.0118 -0.12604,-0.0177 -0.0869,-0.006 -0.14479,-0.006 -0.13117,0 -0.23167,0.0148 -0.10049,0.0148 -0.21633,0.0502 v 1.11129 h -0.61324 v -1.65954 h 0.61324 v 0.24383 q 0.2027,-0.15073 0.35261,-0.19949 0.1499,-0.0502 0.27595,-0.0502 0.0323,0 0.0732,0.002 0.0409,0.002 0.0715,0.005 z m 0.96073,1.15266 h -0.61323 v -1.65953 h 0.61323 z m 0.0171,-1.89597 h -0.64731 v -0.40321 h 0.64731 z m 2.48868,0.23644 -0.73757,1.65953 h -0.695 l -0.73247,-1.65953 h 0.64901 l 0.44288,1.14084 0.43778,-1.14084 z m 2.22466,0.92804 h -1.40362 q 0.0136,0.19506 0.17035,0.29851 0.15842,0.10344 0.46503,0.10344 0.19419,0 0.37646,-0.0606 0.18226,-0.0606 0.28788,-0.13005 h 0.0682 v 0.42707 q -0.20781,0.0724 -0.39178,0.10493 -0.18397,0.0325 -0.40712,0.0325 -0.57575,0 -0.88237,-0.22462 -0.30661,-0.22462 -0.30661,-0.63987 0,-0.41082 0.28958,-0.65022 0.29128,-0.24087 0.7972,-0.24087 0.46673,0 0.7018,0.20541 0.23507,0.20393 0.23507,0.58815 z m -0.60982,-0.31181 q -0.005,-0.16699 -0.0953,-0.25122 -0.0903,-0.0842 -0.28107,-0.0842 -0.17716,0 -0.29129,0.0798 -0.11412,0.0798 -0.12775,0.25565 z m 2.96395,1.0433 h -0.61667 v -0.82289 q 0,-0.10049 -0.0119,-0.1995 -0.0119,-0.10049 -0.0409,-0.14778 -0.034,-0.0547 -0.10049,-0.0798 -0.0647,-0.0251 -0.18227,-0.0251 -0.0834,0 -0.17033,0.0237 -0.0851,0.0237 -0.18568,0.0753 v 1.17631 h -0.61323 v -1.65954 h 0.61323 v 0.18325 q 0.16353,-0.11084 0.31343,-0.16995 0.15161,-0.0591 0.33557,-0.0591 0.31003,0 0.48377,0.15663 0.17546,0.15665 0.17546,0.46846 z m 3.75263,-0.85267 q 0,0.39161 -0.25041,0.63839 -0.2487,0.24679 -0.62175,0.24679 -0.16012,0 -0.28106,-0.0295 -0.12094,-0.0295 -0.22996,-0.0857 l -0.0256,0.0827 h -0.58768 v -2.29918 h 0.61323 v 0.81277 q 0.14138,-0.0975 0.28787,-0.15812 0.1482,-0.0606 0.34069,-0.0606 0.36282,0 0.55872,0.22757 0.1959,0.2261 0.1959,0.6251 z m -0.63198,0.0103 q 0,-0.22167 -0.0869,-0.34136 -0.0868,-0.1197 -0.31002,-0.1197 -0.0869,0 -0.17886,0.0237 -0.092,0.0222 -0.17545,0.065 v 0.83347 q 0.0665,0.0207 0.12605,0.028 0.0596,0.007 0.14309,0.007 0.24359,0 0.36282,-0.12414 0.11924,-0.12413 0.11924,-0.3724 z m 2.23318,0.40935 v -0.3458 q -0.12434,0.009 -0.26913,0.0251 -0.14479,0.0148 -0.21975,0.0355 -0.092,0.0251 -0.14138,0.0739 -0.0477,0.0473 -0.0477,0.12561 0,0.0517 0.0107,0.0842 0.0107,0.0325 0.0511,0.062 0.0392,0.0295 0.0937,0.0443 0.0545,0.0133 0.17033,0.0133 0.092,0 0.18567,-0.0325 0.0953,-0.0325 0.16694,-0.0857 z m 0,0.25712 q -0.0494,0.0325 -0.12265,0.0783 -0.0732,0.0458 -0.13797,0.0724 -0.0903,0.0355 -0.18737,0.0517 -0.0971,0.0177 -0.21294,0.0177 -0.27254,0 -0.45651,-0.1463 -0.18396,-0.1463 -0.18396,-0.37387 0,-0.18177 0.0937,-0.29704 0.0937,-0.11526 0.26573,-0.18176 0.17033,-0.0665 0.42244,-0.0946 0.25211,-0.028 0.52295,-0.0413 v -0.009 q 0,-0.13744 -0.12946,-0.18916 -0.12946,-0.0532 -0.38156,-0.0532 -0.15161,0 -0.32366,0.0473 -0.17203,0.0458 -0.24699,0.071 h -0.0563 v -0.40047 q 0.097,-0.0222 0.31513,-0.0517 0.21974,-0.031 0.43948,-0.031 0.52295,0 0.75462,0.14039 0.23336,0.1389 0.23336,0.43741 v 1.12902 h -0.60812 z m 2.39501,0.16108 q -0.0988,0.0222 -0.20952,0.034 -0.11073,0.0133 -0.27085,0.0133 -0.35771,0 -0.53317,-0.12561 -0.17374,-0.12561 -0.17374,-0.43003 v -0.77583 h -0.25211 v -0.36058 h 0.25211 v -0.47436 h 0.61323 v 0.47436 h 0.57405 v 0.36058 h -0.57405 v 0.58815 q 0,0.0872 0.002,0.15222 0.002,0.065 0.0273,0.11674 0.0238,0.0517 0.0834,0.0828 0.0613,0.0295 0.17716,0.0295 0.0477,0 0.12435,-0.0177 0.0784,-0.0177 0.10902,-0.0325 h 0.0511 z m 1.58928,0 q -0.0988,0.0222 -0.20952,0.034 -0.11072,0.0133 -0.27084,0.0133 -0.35772,0 -0.53316,-0.12561 -0.17376,-0.12561 -0.17376,-0.43003 v -0.77583 h -0.2521 v -0.36058 h 0.2521 v -0.47436 h 0.61323 v 0.47436 h 0.57405 v 0.36058 h -0.57405 v 0.58815 q 0,0.0872 0.002,0.15222 0.002,0.065 0.0273,0.11674 0.0238,0.0517 0.0834,0.0828 0.0613,0.0295 0.17715,0.0295 0.0477,0 0.12435,-0.0177 0.0784,-0.0177 0.10902,-0.0325 h 0.0511 z m 2.25022,-0.71671 h -1.40362 q 0.0136,0.19506 0.17035,0.29851 0.15841,0.10344 0.46503,0.10344 0.19419,0 0.37645,-0.0606 0.18227,-0.0606 0.28787,-0.13005 h 0.0682 v 0.42707 q -0.20782,0.0724 -0.39179,0.10493 -0.18397,0.0325 -0.40711,0.0325 -0.57576,0 -0.88237,-0.22462 -0.30662,-0.22462 -0.30662,-0.63987 0,-0.41082 0.28958,-0.65022 0.29129,-0.24087 0.7972,-0.24087 0.46674,0 0.70181,0.20541 0.23507,0.20393 0.23507,0.58815 z m -0.60982,-0.31181 q -0.005,-0.16699 -0.0954,-0.25122 -0.0903,-0.0842 -0.28107,-0.0842 -0.17715,0 -0.29128,0.0798 -0.11413,0.0798 -0.12776,0.25565 z m 2.42906,-0.10936 h -0.0545 q -0.0392,-0.0118 -0.12605,-0.0177 -0.0869,-0.006 -0.14479,-0.006 -0.13117,0 -0.23166,0.0148 -0.10049,0.0148 -0.21634,0.0502 v 1.11129 h -0.61323 v -1.65954 h 0.61323 v 0.24383 q 0.2027,-0.15073 0.3526,-0.19949 0.14991,-0.0502 0.27596,-0.0502 0.0323,0 0.0732,0.002 0.0409,0.002 0.0715,0.005 z m 1.21113,0.56599 0.43608,-1.07286 h 0.63026 l -1.06293,2.26837 h -0.66433 l 0.3032,-0.62066 -0.74439,-1.64771 h 0.64389 z m 4.45955,0.58667 h -0.61323 v -0.17289 q -0.15842,0.11231 -0.2964,0.1655 -0.13797,0.0532 -0.31854,0.0532 -0.3492,0 -0.55872,-0.23348 -0.20952,-0.23349 -0.20952,-0.62954 0,-0.21132 0.0698,-0.37387 0.0715,-0.16403 0.19419,-0.28077 0.11583,-0.11084 0.28107,-0.17143 0.16523,-0.062 0.33046,-0.062 0.17204,0 0.28106,0.0325 0.11072,0.031 0.22656,0.0798 v -0.70618 h 0.61322 z m -0.61323,-0.4581 v -0.81425 q -0.0647,-0.0237 -0.13628,-0.034 -0.0715,-0.0103 -0.13116,-0.0103 -0.24188,0 -0.36283,0.13152 -0.12094,0.13004 -0.12094,0.36206 0,0.24383 0.097,0.35466 0.0971,0.10936 0.31172,0.10936 0.0834,0 0.17716,-0.0266 0.0937,-0.028 0.16524,-0.0724 z m 3.07636,-0.27339 h -1.4036 q 0.0136,0.19506 0.17033,0.29851 0.15842,0.10344 0.46503,0.10344 0.19419,0 0.37646,-0.0606 0.18226,-0.0606 0.28788,-0.13005 h 0.0682 v 0.42707 q -0.20782,0.0724 -0.39179,0.10493 -0.18397,0.0325 -0.40711,0.0325 -0.57576,0 -0.88238,-0.22462 -0.30661,-0.22462 -0.30661,-0.63987 0,-0.41082 0.28958,-0.65022 0.29128,-0.24087 0.7972,-0.24087 0.46674,0 0.7018,0.20541 0.23508,0.20393 0.23508,0.58815 z m -0.60981,-0.31181 q -0.005,-0.16699 -0.0954,-0.25122 -0.0903,-0.0842 -0.28106,-0.0842 -0.17717,0 -0.29129,0.0798 -0.11413,0.0798 -0.12775,0.25565 z m 2.70501,0.51721 q 0,0.25714 -0.26572,0.41526 -0.26574,0.15664 -0.72737,0.15664 -0.2555,0 -0.46333,-0.0414 -0.20781,-0.0414 -0.33386,-0.0916 v -0.43742 h 0.0563 q 0.046,0.028 0.10565,0.062 0.0613,0.0325 0.17204,0.071 0.0954,0.034 0.21634,0.0591 0.12094,0.0237 0.25891,0.0237 0.18057,0 0.26744,-0.034 0.0868,-0.0355 0.0868,-0.10345 0,-0.0605 -0.0511,-0.0872 -0.0511,-0.028 -0.19419,-0.0532 -0.0682,-0.0133 -0.18567,-0.028 -0.11583,-0.0163 -0.21122,-0.0384 -0.26063,-0.0591 -0.38668,-0.18325 -0.12606,-0.12561 -0.12606,-0.31181 0,-0.2394 0.26063,-0.39751 0.26233,-0.1596 0.71544,-0.1596 0.21463,0 0.41052,0.0384 0.19759,0.037 0.30832,0.0798 v 0.41969 h -0.0528 q -0.13627,-0.0813 -0.31172,-0.13152 -0.17375,-0.0517 -0.35261,-0.0517 -0.1482,0 -0.2504,0.0355 -0.10049,0.0355 -0.10049,0.10049 0,0.0591 0.0459,0.0902 0.046,0.031 0.21633,0.062 0.0937,0.0162 0.201,0.0325 0.10902,0.0148 0.21804,0.0385 0.24189,0.0547 0.35772,0.17289 0.11582,0.11675 0.11582,0.2926 z m 1.02035,0.52609 h -0.61322 v -1.65953 h 0.61322 z m 0.0171,-1.89597 h -0.6473 v -0.40321 h 0.6473 z m 2.42226,1.70534 q 0,0.23349 -0.0767,0.39309 -0.0767,0.15959 -0.21463,0.24974 -0.13799,0.0916 -0.33387,0.13152 -0.1942,0.0414 -0.43948,0.0414 -0.1993,0 -0.3935,-0.0207 -0.19248,-0.0207 -0.33387,-0.0502 v -0.41526 h 0.0749 q 0.11243,0.0384 0.27425,0.0695 0.16183,0.0325 0.28958,0.0325 0.17034,0 0.27596,-0.028 0.10736,-0.0266 0.16352,-0.0768 0.0528,-0.0473 0.0767,-0.12118 0.0238,-0.0739 0.0238,-0.17733 v -0.031 q -0.11072,0.0783 -0.24529,0.12414 -0.13457,0.0458 -0.2998,0.0458 -0.402,0 -0.62004,-0.20984 -0.21804,-0.20985 -0.21804,-0.6384 0,-0.20541 0.0665,-0.35467 0.0665,-0.14926 0.18737,-0.26009 0.11243,-0.10344 0.27595,-0.16107 0.16524,-0.0577 0.33729,-0.0577 0.15501,0 0.28105,0.0325 0.12777,0.031 0.23167,0.0872 l 0.0221,-0.0739 h 0.59449 z m -0.61323,-0.33249 v -0.7522 q -0.0528,-0.0192 -0.12946,-0.0295 -0.0767,-0.0118 -0.13797,-0.0118 -0.24189,0 -0.36284,0.12118 -0.12093,0.11969 -0.12093,0.33544 0,0.23941 0.10221,0.33398 0.10392,0.0946 0.30662,0.0946 0.092,0 0.18056,-0.0251 0.0886,-0.0251 0.16182,-0.0665 z m 3.11384,0.52312 h -0.61663 v -0.82289 q 0,-0.10049 -0.0119,-0.1995 -0.0119,-0.10049 -0.0409,-0.14778 -0.034,-0.0547 -0.1005,-0.0798 -0.0647,-0.0251 -0.18226,-0.0251 -0.0834,0 -0.17034,0.0237 -0.0851,0.0237 -0.18567,0.0753 v 1.17631 h -0.61323 v -1.65954 h 0.61323 v 0.18325 q 0.16353,-0.11084 0.31343,-0.16995 0.1516,-0.0591 0.33557,-0.0591 0.31002,0 0.48377,0.15663 0.17545,0.15665 0.17545,0.46846 z m 2.22637,-0.52609 q 0,0.25714 -0.26574,0.41526 -0.26572,0.15664 -0.72735,0.15664 -0.25552,0 -0.46333,-0.0414 -0.20781,-0.0414 -0.33387,-0.0916 v -0.43742 h 0.0563 q 0.046,0.028 0.10564,0.062 0.0613,0.0325 0.17205,0.071 0.0954,0.034 0.21634,0.0591 0.12094,0.0237 0.25892,0.0237 0.18056,0 0.26743,-0.034 0.0869,-0.0355 0.0869,-0.10345 0,-0.0605 -0.0511,-0.0872 -0.0511,-0.028 -0.19419,-0.0532 -0.0682,-0.0133 -0.18567,-0.028 -0.11583,-0.0163 -0.21123,-0.0384 -0.26061,-0.0591 -0.38667,-0.18325 -0.12605,-0.12561 -0.12605,-0.31181 0,-0.2394 0.26062,-0.39751 0.26232,-0.1596 0.71544,-0.1596 0.21463,0 0.41052,0.0384 0.1976,0.037 0.30832,0.0798 v 0.41969 h -0.0528 q -0.13628,-0.0813 -0.31172,-0.13152 -0.17376,-0.0517 -0.35261,-0.0517 -0.1482,0 -0.25041,0.0355 -0.10049,0.0355 -0.10049,0.10049 0,0.0591 0.046,0.0902 0.046,0.031 0.21634,0.062 0.0937,0.0162 0.20101,0.0325 0.10901,0.0148 0.21803,0.0385 0.24189,0.0547 0.35771,0.17289 0.11584,0.11675 0.11584,0.2926 z"
       id="text1"
       aria-label="Data-driven battery designs" />
    <rect
       style="fill:#ffffff;fill-opacity:1;stroke:none;stroke-width:2.3612;stroke-dasharray:none;stroke-opacity:1"
       id="rect2"
       width="75"
       height="25"
       x="21.72193"
       y="193.35561"
       ry="2.8633869"
       inkscape:export-filename="..\docs\source\_static\light_notag.svg"
       inkscape:export-xdpi="500"
       inkscape:export-ydpi="500"
       rx="2.8633869" />
    <text
       xml:space="preserve"
       style="font-style:normal;font-variant:normal;font-weight:normal;font-stretch:normal;font-size:11.2889px;line-height:0.8;font-family:codicon;-inkscape-font-specification:'codicon, Normal';font-variant-ligatures:normal;font-variant-caps:normal;font-variant-numeric:normal;font-variant-east-asian:normal;fill:#333333;fill-opacity:1;stroke:#cccccc;stroke-width:0.497014"
       x="39.297832"
       y="209.05481"
       id="text3"
       transform="scale(0.99403075,1.0060051)"><tspan
         sodipodi:role="line"
         id="tspan2"
         style="font-style:normal;font-variant:normal;font-weight:bold;font-stretch:normal;font-size:11.2889px;line-height:0.8;font-family:Arial;-inkscape-font-specification:Arial;fill:#333333;fill-opacity:1;stroke:none;stroke-width:0.497016"
         x="39.297832"
         y="209.05481">BATMODS</tspan><tspan
         sodipodi:role="line"
         style="font-style:normal;font-variant:normal;font-weight:normal;font-stretch:normal;font-size:11.2889px;line-height:0.8;font-family:'Bauhaus 93';-inkscape-font-specification:'Bauhaus 93, Normal';font-variant-ligatures:normal;font-variant-caps:normal;font-variant-numeric:normal;font-variant-east-asian:normal;fill:#333333;fill-opacity:1;stroke:none;stroke-width:0.497016"
         x="39.297832"
         y="220.61742"
         id="tspan3" /></text>
    <path
       style="fill:#333333;fill-opacity:1;stroke:none;stroke-width:0.499977"
       d="m 37.028554,291.32939 c -0.742856,0.46158 -1.485694,0.92315 -1.49197,0.43566 -0.0063,-0.4875 0.72401,-1.92401 1.454312,-3.36055"
       id="path32"
       sodipodi:nodetypes="ccc"
       transform="matrix(1,0,0,1.0000866,-0.1636708,-77.459453)"
       inkscape:original-d="m 37.028554,291.32939 c -0.742856,0.46158 -1.485694,0.92315 -2.228567,1.38474 0.73032,-1.43658 1.460606,-2.87309 2.190909,-4.30963"
       inkscape:path-effect="#path-effect36" />
    <path
       id="path3-1"
       style="font-size:14.1111px;line-height:0.9;font-family:Arial;-inkscape-font-specification:Arial;fill:#4b8bbe;fill-opacity:1;stroke:none;stroke-width:0.729651"
       d="m 24.765949,201.49287 v 9.40511 h 2.528011 v -6.8833 h 0.269234 0.170016 0.346749 c 0.463938,0 0.696081,0.16324 0.696081,0.48937 0,0.3537 -0.257579,0.53072 -0.772046,0.53072 v 2.50786 h 0.537435 c 0.468532,0 0.7028,0.15158 0.7028,0.45475 0,0.17914 -0.05725,0.30529 -0.172083,0.37879 -0.114836,0.0689 -0.312528,0.10335 -0.592728,0.10335 h -0.475424 v 2.41846 h 0.530717 c 0.560402,0 1.006141,-0.0482 1.33687,-0.1447 0.330728,-0.0965 0.640788,-0.26607 0.930175,-0.50953 0.592556,-0.50987 0.888835,-1.19464 0.888835,-2.05362 0,-1.1208 -0.502986,-1.89939 -1.508952,-2.33577 0.693612,-0.52366 1.040247,-1.18035 1.040247,-1.97042 0,-1.59393 -1.012862,-2.39107 -3.038574,-2.39107 z m 8.408369,7.3862 h 1.232321 c 0.149214,0 0.269339,0.12013 0.269339,0.26934 v 0.85211 c 0,0.14922 -0.120125,0.26934 -0.269339,0.26934 h -1.232321 c -0.149214,0 -0.26934,-0.12012 -0.26934,-0.26934 v -0.85211 c 0,-0.14921 0.120126,-0.26934 0.26934,-0.26934 z m 0,-3.23854 h 1.232321 c 0.149214,0 0.269339,0.12013 0.269339,0.26934 v 0.85211 c 0,0.14922 -0.120125,0.26934 -0.269339,0.26934 h -1.232321 c -0.149214,0 -0.26934,-0.12012 -0.26934,-0.26934 v -0.85211 c 0,-0.14921 0.120126,-0.26934 0.26934,-0.26934 z m 0,-3.08908 h 1.232321 c 0.149214,0 0.269339,0.12012 0.269339,0.26934 v 0.85211 c 0,0.14921 -0.120125,0.26934 -0.269339,0.26934 h -1.232321 c -0.149214,0 -0.26934,-0.12013 -0.26934,-0.26934 v -0.85211 c 0,-0.14922 0.120126,-0.26934 0.26934,-0.26934 z m -6.353821,-5.11559 c -1.543328,0 -2.785877,1.24255 -2.785877,2.78588 v 12.73514 c 0,1.54332 1.242549,2.78587 2.785877,2.78587 h 6.654892 c 1.543327,0 2.785875,-1.24255 2.785875,-2.78587 v -12.73514 c 0,-1.54333 -1.242548,-2.78588 -2.785875,-2.78588 z m 0.415478,1.08934 h 5.824451 c 1.359711,0 2.454114,1.0944 2.454114,2.45411 v 11.21999 c 0,1.35971 -1.094403,2.45411 -2.454114,2.45411 h -5.824451 c -1.359711,0 -2.454629,-1.0944 -2.454629,-2.45411 v -11.21999 c 0,-1.35971 1.094919,-2.45411 2.454629,-2.45411 z m 0.533404,-2.55673 h 4.757357 c 0.09178,0 0.165672,0.0739 0.165672,0.16567 v 0.75736 c 0,0.0918 -0.07389,0.16567 -0.165672,0.16567 h -4.757357 c -0.09178,0 -0.165672,-0.0739 -0.165672,-0.16567 v -0.75736 c 0,-0.0918 0.07389,-0.16567 0.165672,-0.16567 z" />
    <rect
       style="fill:#333333;fill-opacity:1;stroke:none;stroke-width:2.36123;stroke-dasharray:none;stroke-opacity:1"
       id="rect9"
       width="75"
       height="25"
       x="113.27807"
       y="193.35561"
       ry="2.8633869"
       inkscape:export-filename="..\docs\source\_static\dark_notag.svg"
       inkscape:export-xdpi="500"
       inkscape:export-ydpi="500"
       rx="2.8633869" />
    <text
       xml:space="preserve"
       style="font-style:normal;font-variant:normal;font-weight:normal;font-stretch:normal;font-size:8.46667px;line-height:0.8;font-family:codicon;-inkscape-font-specification:'codicon, Normal';font-variant-ligatures:normal;font-variant-caps:normal;font-variant-numeric:normal;font-variant-east-asian:normal;fill:#cccccc;fill-opacity:1;stroke:#cccccc;stroke-width:0.499999"
       x="130.44817"
       y="210.31018"
       id="text11"><tspan
         sodipodi:role="line"
         id="tspan10"
         style="font-style:normal;font-variant:normal;font-weight:bold;font-stretch:normal;font-size:11.2889px;line-height:0.8;font-family:Arial;-inkscape-font-specification:Arial;fill:#cccccc;fill-opacity:1;stroke:none;stroke-width:0.5"
         x="130.44817"
         y="210.31018">BATMODS</tspan><tspan
         sodipodi:role="line"
         style="font-style:normal;font-variant:normal;font-weight:normal;font-stretch:normal;font-size:8.46667px;line-height:0.8;font-family:'Bauhaus 93';-inkscape-font-specification:'Bauhaus 93, Normal';font-variant-ligatures:normal;font-variant-caps:normal;font-variant-numeric:normal;font-variant-east-asian:normal;fill:#cccccc;fill-opacity:1;stroke:none;stroke-width:0.5"
         x="130.44817"
         y="219.33278"
         id="tspan11" /></text>
    <path
       style="fill:#cccccc;fill-opacity:1;stroke:none;stroke-width:0.499977"
       d="m 37.028554,291.32939 c -0.742856,0.46158 -1.485694,0.92315 -1.49197,0.43566 -0.0063,-0.4875 0.72401,-1.92401 1.454312,-3.36055"
       id="path33"
       sodipodi:nodetypes="ccc"
       transform="matrix(1,0,0,1.0000866,91.36533,-77.45947)"
       inkscape:original-d="m 37.028554,291.32939 c -0.742856,0.46158 -1.485694,0.92315 -2.228567,1.38474 0.73032,-1.43658 1.460606,-2.87309 2.190909,-4.30963"
       inkscape:path-effect="#path-effect38" />
    <path
       id="path11"
       style="font-size:14.1111px;line-height:0.9;font-family:Arial;-inkscape-font-specification:Arial;fill:#4b8bbe;fill-opacity:1;stroke:none;stroke-width:0.729651"
       d="m 116.161,201.49287 v 9.40512 h 2.52802 v -6.88331 h 0.26923 0.17002 0.34674 c 0.46394,0 0.69609,0.16325 0.69609,0.48937 0,0.3537 -0.25758,0.53073 -0.77205,0.53073 v 2.50786 h 0.53743 c 0.46854,0 0.7028,0.15157 0.7028,0.45475 0,0.17913 -0.0573,0.30529 -0.17208,0.37878 -0.11483,0.0689 -0.31253,0.10336 -0.59273,0.10336 h -0.47542 v 2.41846 h 0.53072 c 0.5604,0 1.00614,-0.0482 1.33687,-0.1447 0.33072,-0.0965 0.64078,-0.26608 0.93017,-0.50953 0.59256,-0.50987 0.88884,-1.19464 0.88884,-2.05363 0,-1.12079 -0.50299,-1.89938 -1.50896,-2.33576 0.69362,-0.52366 1.04025,-1.18036 1.04025,-1.97042 0,-1.59393 -1.01286,-2.39107 -3.03857,-2.39107 z m 8.40837,7.3862 h 1.23232 c 0.14922,0 0.26934,0.12013 0.26934,0.26934 v 0.85211 c 0,0.14922 -0.12012,0.26934 -0.26934,0.26934 h -1.23232 c -0.14921,0 -0.26934,-0.12012 -0.26934,-0.26934 v -0.85211 c 0,-0.14921 0.12013,-0.26934 0.26934,-0.26934 z m 0,-3.23854 h 1.23232 c 0.14922,0 0.26934,0.12013 0.26934,0.26934 v 0.85211 c 0,0.14922 -0.12012,0.26934 -0.26934,0.26934 h -1.23232 c -0.14921,0 -0.26934,-0.12012 -0.26934,-0.26934 v -0.85211 c 0,-0.14921 0.12013,-0.26934 0.26934,-0.26934 z m 0,-3.08908 h 1.23232 c 0.14922,0 0.26934,0.12013 0.26934,0.26934 v 0.85212 c 0,0.1492 -0.12012,0.26934 -0.26934,0.26934 h -1.23232 c -0.14921,0 -0.26934,-0.12014 -0.26934,-0.26934 v -0.85212 c 0,-0.14922 0.12013,-0.26934 0.26934,-0.26934 z m -6.35382,-5.11559 c -1.54333,0 -2.78588,1.24255 -2.78588,2.78588 v 12.73514 c 0,1.54332 1.24255,2.78587 2.78588,2.78587 h 6.65489 c 1.54333,0 2.78588,-1.24255 2.78588,-2.78587 v -12.73514 c 0,-1.54333 -1.24255,-2.78588 -2.78588,-2.78588 z m 0.41548,1.08934 h 5.82445 c 1.35971,0 2.45411,1.0944 2.45411,2.45411 v 11.21999 c 0,1.35971 -1.0944,2.45411 -2.45411,2.45411 h -5.82445 c -1.35971,0 -2.45463,-1.0944 -2.45463,-2.45411 v -11.21999 c 0,-1.35971 1.09492,-2.45411 2.45463,-2.45411 z m 0.5334,-2.55672 h 4.75736 c 0.0918,0 0.16567,0.0739 0.16567,0.16566 v 0.75736 c 0,0.0918 -0.0739,0.16568 -0.16567,0.16568 h -4.75736 c -0.0918,0 -0.16567,-0.0739 -0.16567,-0.16568 v -0.75736 c 0,-0.0918 0.0739,-0.16566 0.16567,-0.16566 z" />
    <path
       style="fill:#333333;fill-opacity:1;stroke:none;stroke-width:0.499977"
       d="m 37.028554,291.32939 c -0.742856,0.46158 -1.485694,0.92315 -1.49197,0.43566 -0.0063,-0.4875 0.72401,-1.92401 1.454312,-3.36055"
       id="path21"
       sodipodi:nodetypes="ccc"
       transform="matrix(1,0,0,1.0000866,1.1223297,-112.44545)"
       inkscape:original-d="m 37.028554,291.32939 c -0.742856,0.46158 -1.485694,0.92315 -2.228567,1.38474 0.73032,-1.43658 1.460606,-2.87309 2.190909,-4.30963"
       inkscape:path-effect="#path-effect28" />
    <path
       id="path22"
       style="font-size:14.1111px;line-height:0.9;font-family:Arial;-inkscape-font-specification:Arial;fill:#4b8bbe;fill-opacity:1;stroke:none;stroke-width:0.729651"
       d="m 26.018208,166.50729 v 9.40511 h 2.528011 v -6.8833 h 0.269234 0.170016 0.346749 c 0.463938,0 0.696081,0.16324 0.696081,0.48937 0,0.3537 -0.257579,0.53072 -0.772046,0.53072 v 2.50786 h 0.537435 c 0.468532,0 0.7028,0.15158 0.7028,0.45475 0,0.17914 -0.05725,0.30529 -0.172083,0.37879 -0.114836,0.0689 -0.312528,0.10335 -0.592728,0.10335 h -0.475424 v 2.41846 h 0.530717 c 0.560402,0 1.006141,-0.0482 1.33687,-0.1447 0.330728,-0.0965 0.640788,-0.26607 0.930175,-0.50953 0.592556,-0.50987 0.888835,-1.19464 0.888835,-2.05362 0,-1.1208 -0.502986,-1.89939 -1.508952,-2.33577 0.693612,-0.52366 1.040247,-1.18035 1.040247,-1.97042 0,-1.59393 -1.012862,-2.39107 -3.038574,-2.39107 z m 8.408369,7.3862 h 1.232321 c 0.149214,0 0.269339,0.12013 0.269339,0.26934 v 0.85211 c 0,0.14922 -0.120125,0.26934 -0.269339,0.26934 h -1.232321 c -0.149214,0 -0.26934,-0.12012 -0.26934,-0.26934 v -0.85211 c 0,-0.14921 0.120126,-0.26934 0.26934,-0.26934 z m 0,-3.23854 h 1.232321 c 0.149214,0 0.269339,0.12013 0.269339,0.26934 v 0.85211 c 0,0.14922 -0.120125,0.26934 -0.269339,0.26934 h -1.232321 c -0.149214,0 -0.26934,-0.12012 -0.26934,-0.26934 v -0.85211 c 0,-0.14921 0.120126,-0.26934 0.26934,-0.26934 z m 0,-3.08908 h 1.232321 c 0.149214,0 0.269339,0.12012 0.269339,0.26934 v 0.85211 c 0,0.14921 -0.120125,0.26934 -0.269339,0.26934 h -1.232321 c -0.149214,0 -0.26934,-0.12013 -0.26934,-0.26934 v -0.85211 c 0,-0.14922 0.120126,-0.26934 0.26934,-0.26934 z m -6.353821,-5.11559 c -1.543328,0 -2.785877,1.24255 -2.785877,2.78588 v 12.73514 c 0,1.54332 1.242549,2.78587 2.785877,2.78587 h 6.654892 c 1.543327,0 2.785875,-1.24255 2.785875,-2.78587 v -12.73514 c 0,-1.54333 -1.242548,-2.78588 -2.785875,-2.78588 z m 0.415478,1.08934 h 5.824451 c 1.359711,0 2.454114,1.0944 2.454114,2.45411 v 11.21999 c 0,1.35971 -1.094403,2.45411 -2.454114,2.45411 h -5.824451 c -1.359711,0 -2.454629,-1.0944 -2.454629,-2.45411 v -11.21999 c 0,-1.35971 1.094919,-2.45411 2.454629,-2.45411 z m 0.533404,-2.55673 h 4.757357 c 0.09178,0 0.165672,0.0739 0.165672,0.16567 v 0.75736 c 0,0.0918 -0.07389,0.16567 -0.165672,0.16567 h -4.757357 c -0.09178,0 -0.165672,-0.0739 -0.165672,-0.16567 v -0.75736 c 0,-0.0918 0.07389,-0.16567 0.165672,-0.16567 z" />
    <path
       style="fill:#cccccc;fill-opacity:1;stroke:none;stroke-width:0.499977"
       d="m 37.028554,291.32939 c -0.742856,0.46158 -1.485694,0.92315 -1.49197,0.43566 -0.0063,-0.4875 0.72401,-1.92401 1.454312,-3.36055"
       id="path23"
       sodipodi:nodetypes="ccc"
       transform="matrix(1,0,0,1.0000866,92.76633,-112.44548)"
       inkscape:original-d="m 37.028554,291.32939 c -0.742856,0.46158 -1.485694,0.92315 -2.228567,1.38474 0.73032,-1.43658 1.460606,-2.87309 2.190909,-4.30963"
       inkscape:path-effect="#path-effect32" />
    <path
       id="path25"
       style="font-size:14.1111px;line-height:0.9;font-family:Arial;-inkscape-font-specification:Arial;fill:#4b8bbe;fill-opacity:1;stroke:none;stroke-width:0.729651"
       d="m 117.66179,166.50729 v 9.40512 h 2.52802 v -6.88331 h 0.26923 0.17002 0.34674 c 0.46394,0 0.69609,0.16325 0.69609,0.48937 0,0.3537 -0.25758,0.53073 -0.77205,0.53073 v 2.50786 h 0.53743 c 0.46854,0 0.7028,0.15157 0.7028,0.45475 0,0.17913 -0.0573,0.30529 -0.17208,0.37878 -0.11483,0.0689 -0.31253,0.10336 -0.59273,0.10336 h -0.47542 v 2.41846 h 0.53072 c 0.5604,0 1.00614,-0.0482 1.33687,-0.1447 0.33072,-0.0965 0.64078,-0.26608 0.93017,-0.50953 0.59256,-0.50987 0.88884,-1.19464 0.88884,-2.05363 0,-1.12079 -0.50299,-1.89938 -1.50896,-2.33576 0.69362,-0.52366 1.04025,-1.18036 1.04025,-1.97042 0,-1.59393 -1.01286,-2.39107 -3.03857,-2.39107 z m 8.40837,7.3862 h 1.23232 c 0.14922,0 0.26934,0.12013 0.26934,0.26934 v 0.85211 c 0,0.14922 -0.12012,0.26934 -0.26934,0.26934 h -1.23232 c -0.14921,0 -0.26934,-0.12012 -0.26934,-0.26934 v -0.85211 c 0,-0.14921 0.12013,-0.26934 0.26934,-0.26934 z m 0,-3.23854 h 1.23232 c 0.14922,0 0.26934,0.12013 0.26934,0.26934 v 0.85211 c 0,0.14922 -0.12012,0.26934 -0.26934,0.26934 h -1.23232 c -0.14921,0 -0.26934,-0.12012 -0.26934,-0.26934 v -0.85211 c 0,-0.14921 0.12013,-0.26934 0.26934,-0.26934 z m 0,-3.08908 h 1.23232 c 0.14922,0 0.26934,0.12013 0.26934,0.26934 v 0.85212 c 0,0.1492 -0.12012,0.26934 -0.26934,0.26934 h -1.23232 c -0.14921,0 -0.26934,-0.12014 -0.26934,-0.26934 v -0.85212 c 0,-0.14922 0.12013,-0.26934 0.26934,-0.26934 z m -6.35382,-5.11559 c -1.54333,0 -2.78588,1.24255 -2.78588,2.78588 v 12.73514 c 0,1.54332 1.24255,2.78587 2.78588,2.78587 h 6.65489 c 1.54333,0 2.78588,-1.24255 2.78588,-2.78587 v -12.73514 c 0,-1.54333 -1.24255,-2.78588 -2.78588,-2.78588 z m 0.41548,1.08934 h 5.82445 c 1.35971,0 2.45411,1.0944 2.45411,2.45411 v 11.21999 c 0,1.35971 -1.0944,2.45411 -2.45411,2.45411 h -5.82445 c -1.35971,0 -2.45463,-1.0944 -2.45463,-2.45411 v -11.21999 c 0,-1.35971 1.09492,-2.45411 2.45463,-2.45411 z m 0.5334,-2.55672 h 4.75736 c 0.0918,0 0.16567,0.0739 0.16567,0.16566 v 0.75736 c 0,0.0918 -0.0739,0.16568 -0.16567,0.16568 h -4.75736 c -0.0918,0 -0.16567,-0.0739 -0.16567,-0.16568 v -0.75736 c 0,-0.0918 0.0739,-0.16566 0.16567,-0.16566 z" />
    <path
       id="path5"
       style="fill:#333333;fill-opacity:1;stroke:none;stroke-width:0.284198"
       d="m 29.848,140.99911 v 0.0727 l 1.037508,1.38982 -1.037508,1.38981 v 0.0727 h 7.016882 V 140.999 Z" />
    <text
       xml:space="preserve"
       style="font-style:normal;font-variant:normal;font-weight:normal;font-stretch:normal;font-size:2.82234px;line-height:0.8;font-family:'Bauhaus 93';-inkscape-font-specification:'Bauhaus 93, Normal';font-variant-ligatures:normal;font-variant-caps:normal;font-variant-numeric:normal;font-variant-east-asian:normal;fill:#ffffff;fill-opacity:1;stroke:none;stroke-width:0.499999"
       x="31.633965"
       y="143.43524"
       id="text13"
       transform="scale(0.9999567,1.0000433)"><tspan
         sodipodi:role="line"
         id="tspan13"
         style="font-style:normal;font-variant:normal;font-weight:normal;font-stretch:normal;font-size:2.82234px;font-family:codicon;-inkscape-font-specification:'codicon, Normal';font-variant-ligatures:normal;font-variant-caps:normal;font-variant-numeric:normal;font-variant-east-asian:normal;fill:#ffffff;fill-opacity:1;stroke-width:0.5"
         x="31.633965"
         y="143.43524">lite</tspan></text>
    <g
       id="g21"
       transform="translate(14.36981)">
      <path
         id="path18"
         style="fill:#cccccc;fill-opacity:1;stroke:none;stroke-width:0.284198"
         d="m 107.00719,140.9991 v 0.0727 l 1.03751,1.38982 -1.03751,1.38981 v 0.0727 h 7.01688 V 140.999 Z" />
      <text
         xml:space="preserve"
         style="font-style:normal;font-variant:normal;font-weight:normal;font-stretch:normal;font-size:2.82234px;line-height:0.8;font-family:'Bauhaus 93';-inkscape-font-specification:'Bauhaus 93, Normal';font-variant-ligatures:normal;font-variant-caps:normal;font-variant-numeric:normal;font-variant-east-asian:normal;fill:#333333;fill-opacity:1;stroke:none;stroke-width:0.499999"
         x="108.79649"
         y="143.43524"
         id="text18"
         transform="scale(0.9999567,1.0000433)"><tspan
           sodipodi:role="line"
           id="tspan18"
           style="font-style:normal;font-variant:normal;font-weight:normal;font-stretch:normal;font-size:2.82234px;font-family:codicon;-inkscape-font-specification:'codicon, Normal';font-variant-ligatures:normal;font-variant-caps:normal;font-variant-numeric:normal;font-variant-east-asian:normal;fill:#333333;fill-opacity:1;stroke-width:0.5"
           x="108.79649"
           y="143.43524">lite</tspan></text>
    </g>
    <path
       id="path24"
       style="fill:#333333;fill-opacity:1;stroke:none;stroke-width:0.284198"
       d="m 31.134,175.98411 v 0.0727 l 1.037508,1.38981 -1.037508,1.38982 v 0.0727 h 7.016883 V 175.984 Z" />
    <text
       xml:space="preserve"
       style="font-style:normal;font-variant:normal;font-weight:normal;font-stretch:normal;font-size:2.82234px;line-height:0.8;font-family:'Bauhaus 93';-inkscape-font-specification:'Bauhaus 93, Normal';font-variant-ligatures:normal;font-variant-caps:normal;font-variant-numeric:normal;font-variant-east-asian:normal;fill:#ffffff;fill-opacity:1;stroke:none;stroke-width:0.499999"
       x="32.920021"
       y="178.41873"
       id="text24"
       transform="scale(0.9999567,1.0000433)"><tspan
         sodipodi:role="line"
         id="tspan24"
         style="font-style:normal;font-variant:normal;font-weight:normal;font-stretch:normal;font-size:2.82234px;font-family:codicon;-inkscape-font-specification:'codicon, Normal';font-variant-ligatures:normal;font-variant-caps:normal;font-variant-numeric:normal;font-variant-east-asian:normal;fill:#ffffff;fill-opacity:1;stroke-width:0.5"
         x="32.920021"
         y="178.41873">lite</tspan></text>
    <g
       id="g26"
       transform="translate(15.77081,34.985004)">
      <path
         id="path26"
         style="fill:#cccccc;fill-opacity:1;stroke:none;stroke-width:0.284198"
         d="m 107.00719,140.9991 v 0.0727 l 1.03751,1.38982 -1.03751,1.38981 v 0.0727 h 7.01688 V 140.999 Z" />
      <text
         xml:space="preserve"
         style="font-style:normal;font-variant:normal;font-weight:normal;font-stretch:normal;font-size:2.82234px;line-height:0.8;font-family:'Bauhaus 93';-inkscape-font-specification:'Bauhaus 93, Normal';font-variant-ligatures:normal;font-variant-caps:normal;font-variant-numeric:normal;font-variant-east-asian:normal;fill:#333333;fill-opacity:1;stroke:none;stroke-width:0.499999"
         x="108.79649"
         y="143.43524"
         id="text26"
         transform="scale(0.9999567,1.0000433)"><tspan
           sodipodi:role="line"
           id="tspan26"
           style="font-style:normal;font-variant:normal;font-weight:normal;font-stretch:normal;font-size:2.82234px;font-family:codicon;-inkscape-font-specification:'codicon, Normal';font-variant-ligatures:normal;font-variant-caps:normal;font-variant-numeric:normal;font-variant-east-asian:normal;fill:#333333;fill-opacity:1;stroke-width:0.5"
           x="108.79649"
           y="143.43524">lite</tspan></text>
    </g>
    <path
       id="path34"
       style="fill:#333333;fill-opacity:1;stroke:none;stroke-width:0.284198"
       d="m 29.848,210.97011 v 0.0727 l 1.037508,1.38981 -1.037508,1.38982 v 0.0727 h 7.016882 V 210.97 Z" />
    <path
       id="path35"
       style="fill:#cccccc;fill-opacity:1;stroke:none;stroke-width:0.284198"
       d="m 121.377,210.9701 v 0.0727 l 1.03751,1.38982 -1.03751,1.38981 v 0.0727 h 7.01688 V 210.97 Z" />
  </g>
</svg>
