<?xml version="1.0" encoding="UTF-8" standalone="no"?>
<!-- Created with Inkscape (http://www.inkscape.org/) -->

<svg
   width="75mm"
   height="24.999992mm"
   viewBox="0 0 75 24.999992"
   version="1.1"
   id="svg1"
   inkscape:version="1.3 (0e150ed6c4, 2023-07-21)"
   sodipodi:docname="light.svg"
   inkscape:export-filename="light.png"
   inkscape:export-xdpi="250"
   inkscape:export-ydpi="250"
   xmlns:inkscape="http://www.inkscape.org/namespaces/inkscape"
   xmlns:sodipodi="http://sodipodi.sourceforge.net/DTD/sodipodi-0.dtd"
   xmlns="http://www.w3.org/2000/svg"
   xmlns:svg="http://www.w3.org/2000/svg">
  <sodipodi:namedview
     id="namedview1"
     pagecolor="#ffffff"
     bordercolor="#000000"
     borderopacity="0.25"
     inkscape:showpageshadow="2"
     inkscape:pageopacity="0.0"
     inkscape:pagecheckerboard="0"
     inkscape:deskcolor="#d1d1d1"
     inkscape:document-units="mm"
     inkscape:zoom="5.6568544"
     inkscape:cx="62.667337"
     inkscape:cy="67.970638"
     inkscape:window-width="1920"
     inkscape:window-height="1017"
     inkscape:window-x="-8"
     inkscape:window-y="296"
     inkscape:window-maximized="1"
     inkscape:current-layer="g14" />
  <defs
     id="defs1">
    <inkscape:path-effect
       effect="bspline"
       id="path-effect111"
       is_visible="true"
       lpeversion="1.3"
       weight="33.333333"
       steps="2"
       helper_size="0"
       apply_no_weight="true"
       apply_with_weight="true"
       only_selected="false"
       uniform="false" />
  </defs>
  <g
     inkscape:label="Layer 1"
     inkscape:groupmode="layer"
     id="layer1"
     transform="translate(-21.72193,-141.34968)">
    <rect
       style="fill:none;fill-opacity:1;stroke:none;stroke-width:2.3612;stroke-dasharray:none;stroke-opacity:1"
       id="rect161"
       width="75"
       height="25"
       x="21.72193"
       y="141.34969"
       ry="2.8633869"
       inkscape:export-filename="light.svg"
       inkscape:export-xdpi="96"
       inkscape:export-ydpi="96" />
    <g
       id="g14">
      <path
         style="fill:#333333;fill-opacity:1;stroke:none;stroke-width:0.499999"
         d="m 37.028554,291.32939 c -0.742856,0.46158 -1.485694,0.92315 -1.49197,0.43566 -0.0063,-0.4875 0.72401,-1.92401 1.454312,-3.36055"
         id="path111"
         inkscape:path-effect="#path-effect111"
         inkscape:original-d="m 37.028554,291.32939 c -0.742856,0.46158 -1.485694,0.92315 -2.228567,1.38474 0.73032,-1.43658 1.460606,-2.87309 2.190909,-4.30963"
         sodipodi:nodetypes="ccc"
         transform="translate(-0.1238333,-129.24687)" />
      <text
         xml:space="preserve"
         style="font-style:normal;font-variant:normal;font-weight:normal;font-stretch:normal;font-size:11.2889px;line-height:0.8;font-family:codicon;-inkscape-font-specification:'codicon, Normal';font-variant-ligatures:normal;font-variant-caps:normal;font-variant-numeric:normal;font-variant-east-asian:normal;fill:#333333;fill-opacity:1;stroke:#cccccc;stroke-width:0.497014"
         x="39.297832"
         y="157.35931"
         id="text5"
         transform="scale(0.99403075,1.0060051)"><tspan
           sodipodi:role="line"
           id="tspan5"
           style="font-style:normal;font-variant:normal;font-weight:bold;font-stretch:normal;font-size:11.2889px;line-height:0.8;font-family:Arial;-inkscape-font-specification:Arial;fill:#333333;fill-opacity:1;stroke:none;stroke-width:0.497016"
           x="39.297832"
           y="157.35931">BATMODS</tspan><tspan
           sodipodi:role="line"
           style="font-style:normal;font-variant:normal;font-weight:normal;font-stretch:normal;font-size:11.2889px;line-height:0.8;font-family:'Bauhaus 93';-inkscape-font-specification:'Bauhaus 93, Normal';font-variant-ligatures:normal;font-variant-caps:normal;font-variant-numeric:normal;font-variant-east-asian:normal;fill:#333333;fill-opacity:1;stroke:none;stroke-width:0.497016"
           x="39.297832"
           y="168.92192"
           id="tspan6" /></text>
      <path
         id="path28"
         style="font-size:14.1111px;line-height:0.9;font-family:Arial;-inkscape-font-specification:Arial;fill:#4b8bbe;fill-opacity:1;stroke:none;stroke-width:0.729651"
         d="m 24.765949,149.48694 v 9.40511 h 2.528011 v -6.8833 h 0.269234 0.170016 0.346749 c 0.463938,0 0.696081,0.16324 0.696081,0.48937 0,0.3537 -0.257579,0.53072 -0.772046,0.53072 v 2.50786 h 0.537435 c 0.468532,0 0.7028,0.15158 0.7028,0.45475 0,0.17914 -0.05725,0.30529 -0.172083,0.37879 -0.114836,0.0689 -0.312528,0.10335 -0.592728,0.10335 h -0.475424 v 2.41846 h 0.530717 c 0.560402,0 1.006141,-0.0482 1.33687,-0.1447 0.330728,-0.0965 0.640788,-0.26607 0.930175,-0.50953 0.592556,-0.50987 0.888835,-1.19464 0.888835,-2.05362 0,-1.1208 -0.502986,-1.89939 -1.508952,-2.33577 0.693612,-0.52366 1.040247,-1.18035 1.040247,-1.97042 0,-1.59393 -1.012862,-2.39107 -3.038574,-2.39107 z m 8.408369,7.3862 h 1.232321 c 0.149214,0 0.269339,0.12013 0.269339,0.26934 v 0.85211 c 0,0.14922 -0.120125,0.26934 -0.269339,0.26934 h -1.232321 c -0.149214,0 -0.26934,-0.12012 -0.26934,-0.26934 v -0.85211 c 0,-0.14921 0.120126,-0.26934 0.26934,-0.26934 z m 0,-3.23854 h 1.232321 c 0.149214,0 0.269339,0.12013 0.269339,0.26934 v 0.85211 c 0,0.14922 -0.120125,0.26934 -0.269339,0.26934 h -1.232321 c -0.149214,0 -0.26934,-0.12012 -0.26934,-0.26934 v -0.85211 c 0,-0.14921 0.120126,-0.26934 0.26934,-0.26934 z m 0,-3.08908 h 1.232321 c 0.149214,0 0.269339,0.12012 0.269339,0.26934 v 0.85211 c 0,0.14921 -0.120125,0.26934 -0.269339,0.26934 h -1.232321 c -0.149214,0 -0.26934,-0.12013 -0.26934,-0.26934 v -0.85211 c 0,-0.14922 0.120126,-0.26934 0.26934,-0.26934 z m -6.353821,-5.11559 c -1.543328,0 -2.785877,1.24255 -2.785877,2.78588 v 12.73514 c 0,1.54332 1.242549,2.78587 2.785877,2.78587 h 6.654891 c 1.543328,0 2.785876,-1.24255 2.785876,-2.78587 v -12.73514 c 0,-1.54333 -1.242548,-2.78588 -2.785876,-2.78588 z m 0.415478,1.08934 h 5.824451 c 1.359711,0 2.454114,1.0944 2.454114,2.45411 v 11.21999 c 0,1.35971 -1.094403,2.45411 -2.454114,2.45411 h -5.824451 c -1.359711,0 -2.45463,-1.0944 -2.45463,-2.45411 v -11.21999 c 0,-1.35971 1.094919,-2.45411 2.45463,-2.45411 z m 0.533404,-2.55673 h 4.757356 c 0.09178,0 0.165672,0.0739 0.165672,0.16567 v 0.75736 c 0,0.0918 -0.07389,0.16567 -0.165672,0.16567 h -4.757356 c -0.09178,0 -0.165672,-0.0739 -0.165672,-0.16567 v -0.75736 c 0,-0.0918 0.07389,-0.16567 0.165672,-0.16567 z" />
      <path
         id="path110"
         style="fill:#333333;fill-opacity:1;stroke:none;stroke-width:0.284198"
         d="m 29.887838,159.15773 v 0.0727 l 1.037508,1.3897 -1.037508,1.38969 v 0.0727 h 7.016882 v -2.92489 z" />
      <path
         style="font-size:2.82222px;line-height:0.8;font-family:codicon;-inkscape-font-specification:'codicon, Normal';fill:#ffffff;stroke-width:0.5"
         d="m 32.189196,161.59985 h -0.259071 v -2.14422 h 0.259071 z m 0.790993,-1.79696 h -0.292144 v -0.26871 h 0.292144 z m -0.01654,1.79696 h -0.259071 v -1.53926 h 0.259071 z m 1.311891,-0.0138 q -0.07304,0.0193 -0.159852,0.0317 -0.08544,0.0124 -0.152962,0.0124 -0.235645,0 -0.35829,-0.12678 -0.122645,-0.12678 -0.122645,-0.40652 v -0.81855 h -0.175011 v -0.21773 h 0.175011 v -0.44235 h 0.259071 v 0.44235 h 0.534678 v 0.21773 h -0.534678 v 0.70142 q 0,0.12126 0.0055,0.19017 0.0055,0.0675 0.03858,0.12678 0.03032,0.0551 0.08268,0.0813 0.05374,0.0248 0.162608,0.0248 0.06339,0 0.132292,-0.0179 0.0689,-0.0193 0.09922,-0.0317 h 0.01378 z m 1.601279,-0.72898 h -1.134124 q 0,0.14194 0.04272,0.24805 0.04272,0.10473 0.117133,0.17225 0.07166,0.0661 0.169499,0.0992 0.09922,0.0331 0.217729,0.0331 0.157097,0 0.315571,-0.062 0.159852,-0.0634 0.227376,-0.12402 h 0.01378 v 0.2825 q -0.130913,0.0551 -0.267339,0.0923 -0.136425,0.0372 -0.286631,0.0372 -0.383095,0 -0.598069,-0.2067 -0.214973,-0.20809 -0.214973,-0.5898 0,-0.37759 0.205327,-0.59945 0.206706,-0.22186 0.542947,-0.22186 0.311436,0 0.479557,0.1819 0.169498,0.1819 0.169498,0.51676 z m -0.25218,-0.19844 q -0.0014,-0.20395 -0.103353,-0.31557 -0.100597,-0.11162 -0.307303,-0.11162 -0.208083,0 -0.332107,0.12265 -0.122645,0.12264 -0.139181,0.30454 z"
         id="text110"
         aria-label="lite" />
      <path
         style="font-weight:bold;font-size:3.15081px;line-height:0.8;font-family:codicon;-inkscape-font-specification:'codicon, Normal';fill:#4b8bbe;stroke-width:0.558214"
         d="m 40.496803,167.29024 q 0,0.32001 -0.146156,0.57386 -0.146155,0.25231 -0.369235,0.38769 -0.167695,0.10154 -0.367697,0.14154 -0.200003,0.04 -0.473852,0.04 H 38.33216 v -2.29079 h 0.83078 q 0.280003,0 0.483083,0.0477 0.20308,0.0461 0.341543,0.13231 0.236926,0.14462 0.372312,0.39077 0.136925,0.24462 0.136925,0.57693 z m -0.610777,-0.005 q 0,-0.22616 -0.08308,-0.38616 -0.08154,-0.16154 -0.260003,-0.25231 -0.09077,-0.0446 -0.186157,-0.06 -0.09385,-0.0169 -0.284619,-0.0169 h -0.149232 v 1.43387 h 0.149232 q 0.210772,0 0.309235,-0.0185 0.09846,-0.02 0.19231,-0.0708 0.161541,-0.0923 0.236926,-0.24616 0.07539,-0.15539 0.07539,-0.38308 z m 2.732343,0.38616 H 41.35066 q 0.01231,0.20308 0.153849,0.31077 0.143078,0.10769 0.420005,0.10769 0.175387,0 0.340004,-0.0631 0.164618,-0.0631 0.260004,-0.13539 h 0.06154 v 0.44462 q -0.187695,0.0754 -0.353851,0.10923 -0.166156,0.0339 -0.367697,0.0339 -0.520007,0 -0.796933,-0.23385 -0.276927,-0.23385 -0.276927,-0.66616 0,-0.4277 0.261542,-0.67693 0.26308,-0.25078 0.720009,-0.25078 0.421544,0 0.633855,0.21385 0.21231,0.21231 0.21231,0.61232 z m -0.550776,-0.32462 q -0.0046,-0.17385 -0.08616,-0.26155 -0.08154,-0.0877 -0.25385,-0.0877 -0.160002,0 -0.26308,0.0831 -0.103078,0.0831 -0.115386,0.26616 z m 1.841562,1.13232 q -0.226157,0 -0.413852,-0.0539 -0.186156,-0.0538 -0.324619,-0.16615 -0.136925,-0.11231 -0.212311,-0.28308 -0.07539,-0.17078 -0.07539,-0.40001 0,-0.24154 0.08,-0.41693 0.08154,-0.17539 0.226157,-0.29077 0.140001,-0.10923 0.323081,-0.16 0.183079,-0.0508 0.380005,-0.0508 0.176925,0 0.326158,0.0385 0.149232,0.0385 0.278465,0.1 v 0.47231 h -0.07846 q -0.03231,-0.0277 -0.07846,-0.0646 -0.04462,-0.0369 -0.110771,-0.0723 -0.06308,-0.0339 -0.138463,-0.0554 -0.07539,-0.0231 -0.175387,-0.0231 -0.221541,0 -0.341543,0.14154 -0.118463,0.14 -0.118463,0.38154 0,0.24923 0.12154,0.37847 0.123079,0.12923 0.347697,0.12923 0.104617,0 0.187695,-0.0231 0.08462,-0.0246 0.140001,-0.0569 0.05231,-0.0308 0.09231,-0.0646 0.04,-0.0338 0.07385,-0.0661 h 0.07846 v 0.47231 q -0.130771,0.0615 -0.27385,0.0969 -0.14154,0.0369 -0.31385,0.0369 z m 2.720035,-0.90924 q 0,0.42616 -0.249234,0.67231 -0.247695,0.24462 -0.696932,0.24462 -0.449236,0 -0.69847,-0.24462 -0.247696,-0.24615 -0.247696,-0.67231 0,-0.42924 0.249234,-0.67386 0.250773,-0.24462 0.696932,-0.24462 0.452314,0 0.698471,0.24616 0.247695,0.24616 0.247695,0.67232 z m -0.681547,0.42 q 0.05385,-0.0661 0.08,-0.15846 0.02769,-0.0939 0.02769,-0.25847 0,-0.15231 -0.02769,-0.25538 -0.02769,-0.10308 -0.07692,-0.16462 -0.04923,-0.0631 -0.118463,-0.0892 -0.06923,-0.0262 -0.149233,-0.0262 -0.08,0 -0.143078,0.0215 -0.06154,0.0215 -0.118463,0.0862 -0.05077,0.06 -0.08154,0.16461 -0.02923,0.10462 -0.02923,0.26308 0,0.14154 0.02615,0.24616 0.02615,0.10308 0.07692,0.16616 0.04923,0.06 0.116925,0.0877 0.06923,0.0277 0.156925,0.0277 0.07538,0 0.143079,-0.0246 0.06923,-0.0262 0.116924,-0.0862 z m 2.758497,0.44308 h -0.553853 v -0.18 q -0.143079,0.11693 -0.267696,0.17231 -0.124617,0.0554 -0.287696,0.0554 -0.315388,0 -0.504622,-0.24308 -0.189233,-0.24308 -0.189233,-0.6554 0,-0.22 0.06308,-0.38923 0.06462,-0.17077 0.175387,-0.29231 0.104617,-0.11539 0.253849,-0.17847 0.149233,-0.0646 0.298466,-0.0646 0.155386,0 0.253849,0.0338 0.100001,0.0323 0.204618,0.0831 v -0.73539 h 0.553853 z m -0.553853,-0.47692 v -0.84771 q -0.05846,-0.0246 -0.123078,-0.0354 -0.06462,-0.0108 -0.118463,-0.0108 -0.218465,0 -0.327697,0.13692 -0.109232,0.13539 -0.109232,0.37693 0,0.25385 0.08769,0.36924 0.08769,0.11384 0.281542,0.11384 0.07539,0 0.160002,-0.0277 0.08462,-0.0292 0.149233,-0.0754 z m 1.63079,0.47692 h -0.553853 v -1.72771 h 0.553853 z m 0.01539,-1.97387 h -0.584623 v -0.42 h 0.584623 z m 2.243106,1.97387 h -0.556931 v -0.85693 q 0,-0.10462 -0.01077,-0.20769 -0.01077,-0.10462 -0.03692,-0.15385 -0.03077,-0.0569 -0.09077,-0.0831 -0.05846,-0.0262 -0.164618,-0.0262 -0.07538,0 -0.153848,0.0246 -0.07692,0.0246 -0.167694,0.0785 v 1.22463 H 50.30616 v -1.72771 h 0.553854 v 0.19077 q 0.147694,-0.11538 0.28308,-0.17692 0.136925,-0.0615 0.303081,-0.0615 0.280004,0 0.436929,0.16308 0.158464,0.16307 0.158464,0.48769 z m 2.189259,-0.19846 q 0,0.24308 -0.06923,0.40924 -0.06923,0.16615 -0.193849,0.26 -0.124617,0.0954 -0.301542,0.13692 -0.175387,0.0431 -0.396929,0.0431 -0.180002,0 -0.355389,-0.0215 -0.173848,-0.0215 -0.301542,-0.0523 v -0.43231 h 0.06769 q 0.10154,0.04 0.247696,0.0723 0.146155,0.0339 0.261541,0.0339 0.153849,0 0.249234,-0.0292 0.09692,-0.0277 0.147695,-0.08 0.04769,-0.0492 0.06923,-0.12615 0.02154,-0.0769 0.02154,-0.18462 v -0.0323 q -0.100001,0.0815 -0.221541,0.12924 -0.12154,0.0477 -0.270773,0.0477 -0.363082,0 -0.560007,-0.21847 -0.196926,-0.21846 -0.196926,-0.66462 0,-0.21385 0.06,-0.36924 0.06,-0.15538 0.169233,-0.27077 0.10154,-0.10769 0.249234,-0.16769 0.149232,-0.06 0.304619,-0.06 0.140002,0 0.25385,0.0338 0.115386,0.0323 0.209233,0.0908 l 0.02,-0.0769 h 0.53693 z m -0.553853,-0.34616 v -0.78309 q -0.04769,-0.02 -0.116925,-0.0308 -0.06923,-0.0123 -0.124617,-0.0123 -0.218464,0 -0.327696,0.12615 -0.109232,0.12462 -0.109232,0.34924 0,0.24923 0.09231,0.34769 0.09385,0.0985 0.276926,0.0985 0.08308,0 0.163079,-0.0262 0.08,-0.0262 0.146156,-0.0692 z m 3.956974,-0.34308 q 0,0.4077 -0.226157,0.66462 -0.224619,0.25693 -0.561546,0.25693 -0.144617,0 -0.253849,-0.0308 -0.109233,-0.0308 -0.207695,-0.0892 l -0.02308,0.0862 h -0.530776 v -2.39387 h 0.553854 v 0.84616 q 0.127694,-0.10154 0.260003,-0.16462 0.133848,-0.0631 0.307696,-0.0631 0.327697,0 0.504622,0.23692 0.176926,0.23539 0.176926,0.65078 z m -0.570777,0.0108 q 0,-0.23077 -0.07846,-0.35539 -0.07846,-0.12462 -0.280003,-0.12462 -0.07846,0 -0.161541,0.0246 -0.08308,0.0231 -0.158463,0.0677 v 0.86771 q 0.06,0.0215 0.113847,0.0292 0.05385,0.008 0.129233,0.008 0.220003,0 0.327696,-0.12923 0.107694,-0.12924 0.107694,-0.3877 z m 2.01695,0.42616 v -0.36001 q -0.11231,0.009 -0.24308,0.0262 -0.130771,0.0154 -0.198465,0.0369 -0.08308,0.0262 -0.127694,0.0769 -0.04308,0.0492 -0.04308,0.13077 0,0.0538 0.0092,0.0877 0.0092,0.0339 0.04615,0.0646 0.03538,0.0308 0.08462,0.0462 0.04923,0.0138 0.153848,0.0138 0.08308,0 0.167694,-0.0339 0.08615,-0.0339 0.150772,-0.0892 z m 0,0.2677 q -0.04462,0.0338 -0.110771,0.0815 -0.06616,0.0477 -0.124617,0.0754 -0.08154,0.0369 -0.169233,0.0538 -0.08769,0.0185 -0.19231,0.0185 -0.246157,0 -0.412313,-0.15231 -0.166156,-0.15231 -0.166156,-0.38924 0,-0.18923 0.08462,-0.30923 0.08462,-0.12 0.240003,-0.18923 0.153848,-0.0692 0.381544,-0.0985 0.227695,-0.0292 0.472314,-0.0431 v -0.009 q 0,-0.14307 -0.116925,-0.19692 -0.116925,-0.0554 -0.34462,-0.0554 -0.136925,0 -0.292311,0.0492 -0.155387,0.0477 -0.22308,0.0738 h -0.05077 v -0.41693 q 0.08769,-0.0231 0.284619,-0.0538 0.198464,-0.0323 0.396928,-0.0323 0.472314,0 0.681547,0.14615 0.210772,0.14462 0.210772,0.45539 v 1.1754 h -0.549237 z m 2.163105,0.16769 q -0.08923,0.0231 -0.189233,0.0354 -0.100002,0.0139 -0.244619,0.0139 -0.323081,0 -0.481545,-0.13077 -0.156925,-0.13077 -0.156925,-0.4477 v -0.8077 h -0.227695 v -0.37539 h 0.227695 v -0.49385 h 0.553853 v 0.49385 h 0.518469 v 0.37539 h -0.518469 v 0.61231 q 0,0.0908 0.0015,0.15847 0.0015,0.0677 0.02462,0.12154 0.02154,0.0538 0.07538,0.0862 0.05539,0.0308 0.160002,0.0308 0.04308,0 0.112309,-0.0185 0.07077,-0.0185 0.09846,-0.0339 h 0.04615 z m 1.435404,0 q -0.08923,0.0231 -0.189234,0.0354 -0.100001,0.0139 -0.244618,0.0139 -0.323081,0 -0.481545,-0.13077 -0.156925,-0.13077 -0.156925,-0.4477 v -0.8077 h -0.227695 v -0.37539 h 0.227695 v -0.49385 h 0.553853 v 0.49385 h 0.518469 v 0.37539 h -0.518469 v 0.61231 q 0,0.0908 0.0015,0.15847 0.0015,0.0677 0.02462,0.12154 0.02154,0.0538 0.07539,0.0862 0.05539,0.0308 0.160002,0.0308 0.04308,0 0.112309,-0.0185 0.07077,-0.0185 0.09846,-0.0339 h 0.04615 z m 2.032332,-0.74616 h -1.267708 q 0.01231,0.20308 0.153848,0.31077 0.143078,0.10769 0.420005,0.10769 0.175387,0 0.340005,-0.0631 0.164617,-0.0631 0.260003,-0.13539 h 0.06154 v 0.44462 q -0.187695,0.0754 -0.353851,0.10923 -0.166156,0.0339 -0.367697,0.0339 -0.520006,0 -0.796933,-0.23385 -0.276927,-0.23385 -0.276927,-0.66616 0,-0.4277 0.261542,-0.67693 0.26308,-0.25078 0.720009,-0.25078 0.421544,0 0.633855,0.21385 0.21231,0.21231 0.21231,0.61232 z m -0.550776,-0.32462 q -0.0046,-0.17385 -0.08615,-0.26155 -0.08154,-0.0877 -0.253849,-0.0877 -0.160003,0 -0.263081,0.0831 -0.103078,0.0831 -0.115386,0.26616 z m 2.193874,-0.11385 h -0.04923 q -0.03539,-0.0123 -0.113848,-0.0185 -0.07846,-0.006 -0.130771,-0.006 -0.118463,0 -0.209233,0.0154 -0.09077,0.0154 -0.195387,0.0523 v 1.15693 h -0.553853 v -1.72771 h 0.553853 v 0.25385 q 0.183079,-0.15693 0.318466,-0.2077 0.135386,-0.0523 0.249234,-0.0523 0.02923,0 0.06615,0.002 0.03692,0.002 0.06462,0.005 z m 1.093862,0.58924 0.393851,-1.11694 h 0.569238 l -0.960012,2.36157 h -0.600008 l 0.27385,-0.64616 -0.672316,-1.71541 h 0.581546 z m 4.027743,0.61077 h -0.553853 v -0.18 q -0.143079,0.11693 -0.267696,0.17231 -0.124617,0.0554 -0.287696,0.0554 -0.315389,0 -0.504622,-0.24308 -0.189233,-0.24308 -0.189233,-0.6554 0,-0.22 0.06308,-0.38923 0.06462,-0.17077 0.175386,-0.29231 0.104617,-0.11539 0.25385,-0.17847 0.149233,-0.0646 0.298465,-0.0646 0.155387,0 0.25385,0.0338 0.100001,0.0323 0.204618,0.0831 v -0.73539 h 0.553853 z m -0.553853,-0.47692 v -0.84771 q -0.05846,-0.0246 -0.123079,-0.0354 -0.06462,-0.0108 -0.118463,-0.0108 -0.218464,0 -0.327696,0.13692 -0.109233,0.13539 -0.109233,0.37693 0,0.25385 0.08769,0.36924 0.08769,0.11384 0.281542,0.11384 0.07539,0 0.160002,-0.0277 0.08462,-0.0292 0.149233,-0.0754 z m 2.7785,-0.28462 h -1.267709 q 0.01231,0.20308 0.153848,0.31077 0.143079,0.10769 0.420006,0.10769 0.175386,0 0.340004,-0.0631 0.164617,-0.0631 0.260003,-0.13539 h 0.06154 v 0.44462 q -0.187695,0.0754 -0.353851,0.10923 -0.166156,0.0339 -0.367697,0.0339 -0.520007,0 -0.796934,-0.23385 -0.276926,-0.23385 -0.276926,-0.66616 0,-0.4277 0.261542,-0.67693 0.26308,-0.25078 0.720009,-0.25078 0.421544,0 0.633854,0.21385 0.212311,0.21231 0.212311,0.61232 z m -0.550777,-0.32462 q -0.0046,-0.17385 -0.08616,-0.26155 -0.08154,-0.0877 -0.253849,-0.0877 -0.160002,0 -0.26308,0.0831 -0.103079,0.0831 -0.115387,0.26616 z m 2.621573,0.8877 q 0,0.24308 -0.06923,0.40924 -0.06923,0.16615 -0.193849,0.26 -0.124617,0.0954 -0.301542,0.13692 -0.175387,0.0431 -0.396928,0.0431 -0.180003,0 -0.355389,-0.0215 -0.173849,-0.0215 -0.301543,-0.0523 v -0.43231 h 0.06769 q 0.10154,0.04 0.247696,0.0723 0.146156,0.0339 0.261542,0.0339 0.153848,0 0.249234,-0.0292 0.09692,-0.0277 0.147694,-0.08 0.04769,-0.0492 0.06923,-0.12615 0.02154,-0.0769 0.02154,-0.18462 v -0.0323 q -0.100001,0.0815 -0.221541,0.12924 -0.12154,0.0477 -0.270773,0.0477 -0.363081,0 -0.560007,-0.21847 -0.196926,-0.21846 -0.196926,-0.66462 0,-0.21385 0.06,-0.36924 0.06,-0.15538 0.169233,-0.27077 0.10154,-0.10769 0.249234,-0.16769 0.149233,-0.06 0.304619,-0.06 0.140002,0 0.25385,0.0338 0.115386,0.0323 0.209233,0.0908 l 0.02,-0.0769 h 0.53693 z m -0.553854,-0.34616 v -0.78309 q -0.04769,-0.02 -0.116924,-0.0308 -0.06923,-0.0123 -0.124617,-0.0123 -0.218465,0 -0.327697,0.12615 -0.109232,0.12462 -0.109232,0.34924 0,0.24923 0.09231,0.34769 0.09385,0.0985 0.276927,0.0985 0.08308,0 0.163079,-0.0262 0.08,-0.0262 0.146155,-0.0692 z m 2.329258,-0.65539 h -0.04923 q -0.03539,-0.0123 -0.113848,-0.0185 -0.07846,-0.006 -0.130771,-0.006 -0.118463,0 -0.209234,0.0154 -0.09077,0.0154 -0.195387,0.0523 v 1.15693 h -0.553853 v -1.72771 h 0.553853 v 0.25385 q 0.18308,-0.15693 0.318466,-0.2077 0.135386,-0.0523 0.249234,-0.0523 0.02923,0 0.06616,0.002 0.03692,0.002 0.06462,0.005 z m 1.360021,0.74924 v -0.36001 q -0.112309,0.009 -0.24308,0.0262 -0.130771,0.0154 -0.198464,0.0369 -0.08308,0.0262 -0.127694,0.0769 -0.04308,0.0492 -0.04308,0.13077 0,0.0538 0.0092,0.0877 0.0092,0.0339 0.04615,0.0646 0.03539,0.0308 0.08462,0.0462 0.04923,0.0138 0.153848,0.0138 0.08308,0 0.167695,-0.0339 0.08615,-0.0339 0.150771,-0.0892 z m 0,0.2677 q -0.04462,0.0338 -0.110771,0.0815 -0.06615,0.0477 -0.124617,0.0754 -0.08154,0.0369 -0.169233,0.0538 -0.08769,0.0185 -0.19231,0.0185 -0.246157,0 -0.412313,-0.15231 -0.166156,-0.15231 -0.166156,-0.38924 0,-0.18923 0.08462,-0.30923 0.08462,-0.12 0.240004,-0.18923 0.153848,-0.0692 0.381543,-0.0985 0.227695,-0.0292 0.472314,-0.0431 v -0.009 q 0,-0.14307 -0.116925,-0.19692 -0.116924,-0.0554 -0.34462,-0.0554 -0.136925,0 -0.292311,0.0492 -0.155387,0.0477 -0.22308,0.0738 h -0.05077 v -0.41693 q 0.08769,-0.0231 0.284619,-0.0538 0.198464,-0.0323 0.396928,-0.0323 0.472314,0 0.681548,0.14615 0.210772,0.14462 0.210772,0.45539 v 1.1754 h -0.549238 z m 2.738495,0.18307 h -0.553853 v -0.18 q -0.143079,0.11693 -0.267696,0.17231 -0.124617,0.0554 -0.287696,0.0554 -0.315389,0 -0.504622,-0.24308 -0.189233,-0.24308 -0.189233,-0.6554 0,-0.22 0.06308,-0.38923 0.06462,-0.17077 0.175386,-0.29231 0.104617,-0.11539 0.25385,-0.17847 0.149233,-0.0646 0.298465,-0.0646 0.155387,0 0.25385,0.0338 0.100001,0.0323 0.204618,0.0831 v -0.73539 h 0.553853 z m -0.553853,-0.47692 v -0.84771 q -0.05846,-0.0246 -0.123079,-0.0354 -0.06462,-0.0108 -0.118463,-0.0108 -0.218464,0 -0.327696,0.13692 -0.109233,0.13539 -0.109233,0.37693 0,0.25385 0.08769,0.36924 0.08769,0.11384 0.281542,0.11384 0.07539,0 0.160002,-0.0277 0.08462,-0.0292 0.149233,-0.0754 z m 2.123105,0.0262 v -0.36001 q -0.112309,0.009 -0.24308,0.0262 -0.130771,0.0154 -0.198465,0.0369 -0.08308,0.0262 -0.127693,0.0769 -0.04308,0.0492 -0.04308,0.13077 0,0.0538 0.0092,0.0877 0.0092,0.0339 0.04615,0.0646 0.03539,0.0308 0.08462,0.0462 0.04923,0.0138 0.153848,0.0138 0.08308,0 0.167694,-0.0339 0.08616,-0.0339 0.150772,-0.0892 z m 0,0.2677 q -0.04462,0.0338 -0.110771,0.0815 -0.06616,0.0477 -0.124617,0.0754 -0.08154,0.0369 -0.169233,0.0538 -0.08769,0.0185 -0.19231,0.0185 -0.246157,0 -0.412313,-0.15231 -0.166156,-0.15231 -0.166156,-0.38924 0,-0.18923 0.08462,-0.30923 0.08462,-0.12 0.240003,-0.18923 0.153849,-0.0692 0.381544,-0.0985 0.227695,-0.0292 0.472314,-0.0431 v -0.009 q 0,-0.14307 -0.116925,-0.19692 -0.116925,-0.0554 -0.34462,-0.0554 -0.136925,0 -0.292311,0.0492 -0.155387,0.0477 -0.22308,0.0738 h -0.05077 v -0.41693 q 0.08769,-0.0231 0.284619,-0.0538 0.198464,-0.0323 0.396928,-0.0323 0.472314,0 0.681548,0.14615 0.210772,0.14462 0.210772,0.45539 v 1.1754 H 83.21428 Z m 2.163103,0.16769 q -0.08923,0.0231 -0.189233,0.0354 -0.100002,0.0139 -0.244619,0.0139 -0.323081,0 -0.481545,-0.13077 -0.156925,-0.13077 -0.156925,-0.4477 v -0.8077 h -0.227695 v -0.37539 h 0.227695 v -0.49385 h 0.553854 v 0.49385 h 0.518468 v 0.37539 h -0.518468 v 0.61231 q 0,0.0908 0.0015,0.15847 0.0015,0.0677 0.02462,0.12154 0.02154,0.0538 0.07538,0.0862 0.05539,0.0308 0.160003,0.0308 0.04308,0 0.112309,-0.0185 0.07077,-0.0185 0.09846,-0.0339 h 0.04615 z m 0.884629,0.0154 h -0.553853 v -1.72771 h 0.553853 z m 0.01538,-1.97387 h -0.584623 v -0.42 h 0.584623 z m 2.273873,1.11079 q 0,0.42616 -0.249234,0.67231 -0.247695,0.24462 -0.696932,0.24462 -0.449236,0 -0.69847,-0.24462 -0.247696,-0.24615 -0.247696,-0.67231 0,-0.42924 0.249234,-0.67386 0.250773,-0.24462 0.696932,-0.24462 0.452314,0 0.698471,0.24616 0.247695,0.24616 0.247695,0.67232 z m -0.681547,0.42 q 0.05385,-0.0661 0.08,-0.15846 0.02769,-0.0939 0.02769,-0.25847 0,-0.15231 -0.02769,-0.25538 -0.02769,-0.10308 -0.07692,-0.16462 -0.04923,-0.0631 -0.118463,-0.0892 -0.06923,-0.0262 -0.149233,-0.0262 -0.08,0 -0.143078,0.0215 -0.06154,0.0215 -0.118463,0.0862 -0.05077,0.06 -0.08154,0.16461 -0.02923,0.10462 -0.02923,0.26308 0,0.14154 0.02615,0.24616 0.02615,0.10308 0.07692,0.16616 0.04923,0.06 0.116925,0.0877 0.06923,0.0277 0.156925,0.0277 0.07538,0 0.143079,-0.0246 0.06923,-0.0262 0.116924,-0.0862 z m 2.813883,0.44308 h -0.55693 v -0.85693 q 0,-0.10462 -0.01077,-0.20769 -0.01077,-0.10462 -0.03692,-0.15385 -0.03077,-0.0569 -0.09077,-0.0831 -0.05846,-0.0262 -0.164617,-0.0262 -0.07539,0 -0.153848,0.0246 -0.07692,0.0246 -0.167695,0.0785 v 1.22463 h -0.553853 v -1.72771 h 0.553853 v 0.19077 q 0.147694,-0.11538 0.283081,-0.17692 0.136925,-0.0615 0.303081,-0.0615 0.280003,0 0.436928,0.16308 0.158464,0.16307 0.158464,0.48769 z"
         id="text111"
         transform="scale(1.0410839,0.96053739)"
         aria-label="Decoding battery degradation" />
    </g>
  </g>
</svg>
